# Blender 5.1.1
# www.blender.org
mtllib defender_ground.mtl
o Cube
v 64.000000 1.906307 -0.500000
v 64.000000 -0.062549 -0.500000
v 64.000000 1.906307 0.500000
v 64.000000 -0.062549 0.500000
v -64.000000 1.906307 -0.500000
v -64.000000 -0.062549 -0.500000
v -64.000000 1.906307 0.500000
v -64.000000 -0.062549 0.500000
v 0.000000 -0.062549 -0.500000
v 0.000000 6.489400 0.500000
v 0.000000 -0.062549 0.500000
v 0.000000 6.489400 -0.500000
v -32.000000 -0.062549 -0.500000
v -32.000000 7.478933 0.500000
v -32.000000 -0.062549 0.500000
v -32.000000 7.478933 -0.500000
v -16.000000 -0.062549 0.500000
v -16.000000 4.458257 -0.500000
v -16.000000 -0.062549 -0.500000
v -16.000000 4.458257 0.500000
v -48.000000 -0.062549 -0.500000
v -48.000000 1.906307 0.500000
v -48.000000 -0.062549 0.500000
v -48.000000 1.906307 -0.500000
v -40.000000 -0.062549 0.500000
v -40.000000 2.687516 -0.500000
v -40.000000 -0.062549 -0.500000
v -40.000000 2.687516 0.500000
v -56.000000 -0.062549 -0.500000
v -56.000000 2.427114 0.500000
v -56.000000 -0.062549 0.500000
v -56.000000 2.427114 -0.500000
v -24.000000 -0.062549 -0.500000
v -24.000000 7.322690 0.500000
v -24.000000 -0.062549 0.500000
v -24.000000 7.322690 -0.500000
v -8.000000 -0.062549 0.500000
v -8.000000 2.270872 -0.500000
v -8.000000 -0.062549 -0.500000
v -8.000000 2.270872 0.500000
v 32.000000 -0.062549 0.500000
v 32.000000 3.937451 -0.500000
v 32.000000 -0.062549 -0.500000
v 32.000000 3.937451 0.500000
v 16.000000 -0.062549 -0.500000
v 16.000000 6.228998 0.500000
v 16.000000 -0.062549 0.500000
v 16.000000 6.228998 -0.500000
v 48.000000 -0.062549 0.500000
v 48.000000 3.000000 -0.500000
v 48.000000 -0.062549 -0.500000
v 48.000000 3.000000 0.500000
v 40.000000 -0.062549 -0.500000
v 40.000000 4.354096 0.500000
v 40.000000 -0.062549 0.500000
v 40.000000 4.354096 -0.500000
v 56.000000 -0.062549 0.500000
v 56.000000 2.791677 -0.500000
v 56.000000 -0.062549 -0.500000
v 56.000000 2.791677 0.500000
v 24.074766 -0.062549 0.500000
v 24.074766 3.000000 -0.500000
v 24.074766 -0.062549 -0.500000
v 24.074766 3.000000 0.500000
v 8.000000 -0.062549 -0.500000
v 8.000000 2.739597 0.500000
v 8.000000 -0.062549 0.500000
v 8.000000 2.739597 -0.500000
v -59.925926 -0.062549 -0.500000
v -59.925926 5.551950 0.500000
v -59.925926 -0.062549 0.500000
v -59.925926 5.551950 -0.500000
v -51.925926 -0.062549 0.500000
v -51.925926 4.510338 -0.500000
v -51.925926 -0.062549 -0.500000
v -51.925926 4.510338 0.500000
v -44.000000 -0.062549 -0.500000
v -44.000000 1.333421 0.500000
v -44.000000 -0.062549 0.500000
v -44.000000 1.333421 -0.500000
v -35.925926 -0.062549 0.500000
v -35.925926 6.072756 -0.500000
v -35.925926 -0.062549 -0.500000
v -35.925926 6.072756 0.500000
v -28.000000 -0.062549 -0.500000
v -28.000000 4.822822 0.500000
v -28.000000 -0.062549 0.500000
v -28.000000 4.822822 -0.500000
v -20.000000 -0.062549 0.500000
v -20.000000 2.895839 -0.500000
v -20.000000 -0.062549 -0.500000
v -20.000000 2.895839 0.500000
v -12.000000 -0.062549 -0.500000
v -12.000000 3.260403 0.500000
v -12.000000 -0.062549 0.500000
v -12.000000 3.260403 -0.500000
v -4.000000 -0.062549 0.500000
v -4.000000 3.937451 -0.500000
v -4.000000 -0.062549 -0.500000
v -4.000000 3.937451 0.500000
v 4.000000 -0.062549 -0.500000
v 4.000000 4.510338 0.500000
v 4.000000 -0.062549 0.500000
v 4.000000 4.510338 -0.500000
v 12.000000 -0.062549 0.500000
v 12.000000 4.718660 -0.500000
v 12.000000 -0.062549 -0.500000
v 12.000000 4.718660 0.500000
v 20.037384 -0.062549 -0.500000
v 20.037384 5.499869 0.500000
v 20.037384 -0.062549 0.500000
v 20.037384 5.499869 -0.500000
v 28.037384 -0.062549 0.500000
v 28.037384 2.479194 -0.500000
v 28.037384 -0.062549 -0.500000
v 28.037384 2.479194 0.500000
v 36.000000 -0.062549 -0.500000
v 36.000000 5.604031 0.500000
v 36.000000 -0.062549 0.500000
v 36.000000 5.604031 -0.500000
v 44.000000 -0.062549 0.500000
v 44.000000 2.218791 -0.500000
v 44.000000 -0.062549 -0.500000
v 44.000000 2.218791 0.500000
v 52.000000 -0.062549 -0.500000
v 52.000000 3.937451 0.500000
v 52.000000 -0.062549 0.500000
v 52.000000 3.937451 -0.500000
v 60.000000 -0.062549 0.500000
v 60.000000 1.958388 -0.500000
v 60.000000 -0.062549 -0.500000
v 60.000000 1.958388 0.500000
vn -0.6668 0.7452 -0.0000
vn -0.0000 -0.0000 1.0000
vn -1.0000 -0.0000 -0.0000
vn -0.0000 -1.0000 -0.0000
vn 1.0000 -0.0000 -0.0000
vn -0.0000 -0.0000 -1.0000
vn 0.4435 0.8963 -0.0000
vn 0.5532 0.8331 -0.0000
vn 0.2869 0.9580 -0.0000
vn 0.1418 0.9899 -0.0000
vn -0.6391 0.7691 -0.0000
vn -0.4553 0.8904 -0.0000
vn 0.7420 0.6704 -0.0000
vn -0.3846 0.9231 -0.0000
vn 0.1777 0.9841 -0.0000
vn -0.2282 0.9736 -0.0000
vn 0.4709 0.8822 -0.0000
vn 0.2039 0.9790 -0.0000
vn 0.1303 0.9915 -0.0000
vn -0.4435 0.8963 -0.0000
vn 0.6228 0.7824 -0.0000
vn 0.5528 0.8333 -0.0000
vn -0.3206 0.9472 -0.0000
vn -0.3372 0.9414 -0.0000
vn -0.5300 0.8480 -0.0000
vn -0.3638 0.9315 -0.0000
vn 0.2401 0.9707 -0.0000
vn -0.5378 0.8430 -0.0000
vn 0.4048 0.9144 -0.0000
vn -0.3532 0.9355 -0.0000
vn 0.5264 0.8502 -0.0000
vn -0.3454 0.9385 -0.0000
vn 0.2983 0.9545 -0.0000
vn -0.1917 0.9815 -0.0000
vn 0.2754 0.9613 -0.0000
vn 0.0130 0.9999 -0.0000
vt 0.867043 0.500000
vt 0.875000 0.500000
vt 0.875000 0.750000
vt 0.867043 0.750000
vt 0.375000 0.992043
vt 0.625000 0.992043
vt 0.625000 1.000000
vt 0.375000 1.000000
vt 0.375000 0.000000
vt 0.625000 0.000000
vt 0.625000 0.250000
vt 0.375000 0.250000
vt 0.367188 0.500000
vt 0.375000 0.500000
vt 0.375000 0.750000
vt 0.367188 0.750000
vt 0.625000 0.500000
vt 0.625000 0.750000
vt 0.375000 0.492188
vt 0.625000 0.492188
vt 0.375000 0.367188
vt 0.625000 0.367188
vt 0.625000 0.375000
vt 0.375000 0.375000
vt 0.242188 0.500000
vt 0.250000 0.500000
vt 0.250000 0.750000
vt 0.242188 0.750000
vt 0.375000 0.867188
vt 0.625000 0.867188
vt 0.625000 0.875000
vt 0.375000 0.875000
vt 0.742188 0.500000
vt 0.750000 0.500000
vt 0.750000 0.750000
vt 0.742188 0.750000
vt 0.179832 0.500000
vt 0.187500 0.500000
vt 0.187500 0.750000
vt 0.179832 0.750000
vt 0.375000 0.304832
vt 0.625000 0.304832
vt 0.625000 0.312500
vt 0.375000 0.312500
vt 0.375000 0.929688
vt 0.625000 0.929688
vt 0.625000 0.937500
vt 0.375000 0.937500
vt 0.804688 0.500000
vt 0.812500 0.500000
vt 0.812500 0.750000
vt 0.804688 0.750000
vt 0.773438 0.500000
vt 0.781250 0.500000
vt 0.781250 0.750000
vt 0.773438 0.750000
vt 0.375000 0.898438
vt 0.625000 0.898438
vt 0.625000 0.906250
vt 0.375000 0.906250
vt 0.210938 0.500000
vt 0.218750 0.500000
vt 0.218750 0.750000
vt 0.210938 0.750000
vt 0.375000 0.335938
vt 0.625000 0.335938
vt 0.625000 0.343750
vt 0.375000 0.343750
vt 0.375000 0.273582
vt 0.625000 0.273582
vt 0.625000 0.281250
vt 0.375000 0.281250
vt 0.148582 0.500000
vt 0.156250 0.500000
vt 0.156250 0.750000
vt 0.148582 0.750000
vt 0.375000 0.960938
vt 0.625000 0.960938
vt 0.625000 0.968750
vt 0.375000 0.968750
vt 0.835938 0.500000
vt 0.843750 0.500000
vt 0.843750 0.750000
vt 0.835938 0.750000
vt 0.820168 0.500000
vt 0.828125 0.500000
vt 0.828125 0.750000
vt 0.820168 0.750000
vt 0.375000 0.945168
vt 0.625000 0.945168
vt 0.625000 0.953125
vt 0.375000 0.953125
vt 0.375000 0.289062
vt 0.625000 0.289062
vt 0.625000 0.296875
vt 0.375000 0.296875
vt 0.164062 0.500000
vt 0.171875 0.500000
vt 0.171875 0.750000
vt 0.164062 0.750000
vt 0.132957 0.500000
vt 0.140625 0.500000
vt 0.140625 0.750000
vt 0.132957 0.750000
vt 0.375000 0.257957
vt 0.625000 0.257957
vt 0.625000 0.265625
vt 0.375000 0.265625
vt 0.375000 0.976418
vt 0.625000 0.976418
vt 0.625000 0.984375
vt 0.375000 0.984375
vt 0.851418 0.500000
vt 0.859375 0.500000
vt 0.859375 0.750000
vt 0.851418 0.750000
vt 0.375000 0.320312
vt 0.625000 0.320312
vt 0.625000 0.328125
vt 0.375000 0.328125
vt 0.195312 0.500000
vt 0.203125 0.500000
vt 0.203125 0.750000
vt 0.195312 0.750000
vt 0.789062 0.500000
vt 0.796875 0.500000
vt 0.796875 0.750000
vt 0.789062 0.750000
vt 0.375000 0.914062
vt 0.625000 0.914062
vt 0.625000 0.921875
vt 0.375000 0.921875
vt 0.375000 0.882812
vt 0.625000 0.882812
vt 0.625000 0.890625
vt 0.375000 0.890625
vt 0.757812 0.500000
vt 0.765625 0.500000
vt 0.765625 0.750000
vt 0.757812 0.750000
vt 0.226562 0.500000
vt 0.234375 0.500000
vt 0.234375 0.750000
vt 0.226562 0.750000
vt 0.375000 0.351562
vt 0.625000 0.351562
vt 0.625000 0.359375
vt 0.375000 0.359375
vt 0.679688 0.500000
vt 0.687500 0.500000
vt 0.687500 0.750000
vt 0.679688 0.750000
vt 0.375000 0.804688
vt 0.625000 0.804688
vt 0.625000 0.812500
vt 0.375000 0.812500
vt 0.375000 0.429761
vt 0.625000 0.429761
vt 0.625000 0.437500
vt 0.375000 0.437500
vt 0.304761 0.500000
vt 0.312500 0.500000
vt 0.312500 0.750000
vt 0.304761 0.750000
vt 0.273438 0.500000
vt 0.281250 0.500000
vt 0.281250 0.750000
vt 0.273438 0.750000
vt 0.375000 0.398438
vt 0.625000 0.398438
vt 0.625000 0.406250
vt 0.375000 0.406250
vt 0.710864 0.500000
vt 0.718750 0.500000
vt 0.718750 0.750000
vt 0.710864 0.750000
vt 0.375000 0.835864
vt 0.625000 0.835864
vt 0.625000 0.843750
vt 0.375000 0.843750
vt 0.375000 0.773438
vt 0.625000 0.773438
vt 0.625000 0.781250
vt 0.375000 0.781250
vt 0.648438 0.500000
vt 0.656250 0.500000
vt 0.656250 0.750000
vt 0.648438 0.750000
vt 0.375000 0.460938
vt 0.625000 0.460938
vt 0.625000 0.468750
vt 0.375000 0.468750
vt 0.335938 0.500000
vt 0.343750 0.500000
vt 0.343750 0.750000
vt 0.335938 0.750000
vt 0.320312 0.500000
vt 0.328125 0.500000
vt 0.328125 0.750000
vt 0.320312 0.750000
vt 0.375000 0.445312
vt 0.625000 0.445312
vt 0.625000 0.453125
vt 0.375000 0.453125
vt 0.375000 0.789062
vt 0.625000 0.789062
vt 0.625000 0.796875
vt 0.375000 0.796875
vt 0.664062 0.500000
vt 0.671875 0.500000
vt 0.671875 0.750000
vt 0.664062 0.750000
vt 0.632812 0.500000
vt 0.640625 0.500000
vt 0.640625 0.750000
vt 0.632812 0.750000
vt 0.375000 0.757812
vt 0.625000 0.757812
vt 0.625000 0.765625
vt 0.375000 0.765625
vt 0.375000 0.476562
vt 0.625000 0.476562
vt 0.625000 0.484375
vt 0.375000 0.484375
vt 0.351562 0.500000
vt 0.359375 0.500000
vt 0.359375 0.750000
vt 0.351562 0.750000
vt 0.375000 0.820239
vt 0.625000 0.820239
vt 0.625000 0.827979
vt 0.375000 0.827979
vt 0.695239 0.500000
vt 0.702979 0.500000
vt 0.702979 0.750000
vt 0.695239 0.750000
vt 0.289136 0.500000
vt 0.297021 0.500000
vt 0.297021 0.750000
vt 0.289136 0.750000
vt 0.375000 0.414136
vt 0.625000 0.414136
vt 0.625000 0.422021
vt 0.375000 0.422021
vt 0.375000 0.382812
vt 0.625000 0.382812
vt 0.625000 0.390625
vt 0.375000 0.390625
vt 0.257812 0.500000
vt 0.265625 0.500000
vt 0.265625 0.750000
vt 0.257812 0.750000
vt 0.726562 0.500000
vt 0.734375 0.500000
vt 0.734375 0.750000
vt 0.726562 0.750000
vt 0.375000 0.851562
vt 0.625000 0.851562
vt 0.625000 0.859375
vt 0.375000 0.859375
vt 0.125000 0.500000
vt 0.125000 0.750000
s 0
usemtl Material
f 72/1/1 5/2/1 7/3/1 70/4/1
f 71/5/2 70/6/2 7/7/2 8/8/2
f 8/9/3 7/10/3 5/11/3 6/12/3
f 131/13/4 2/14/4 4/15/4 129/16/4
f 2/14/5 1/17/5 3/18/5 4/15/5
f 131/19/6 130/20/6 1/17/6 2/14/6
f 99/21/6 98/22/6 12/23/6 9/24/6
f 99/25/4 9/26/4 11/27/4 97/28/4
f 103/29/2 102/30/2 10/31/2 11/32/2
f 104/33/7 12/34/7 10/35/7 102/36/7
f 83/37/4 13/38/4 15/39/4 81/40/4
f 83/41/6 82/42/6 16/43/6 13/44/6
f 87/45/2 86/46/2 14/47/2 15/48/2
f 88/49/8 16/50/8 14/51/8 86/52/8
f 96/53/9 18/54/9 20/55/9 94/56/9
f 95/57/2 94/58/2 20/59/2 17/60/2
f 91/61/4 19/62/4 17/63/4 89/64/4
f 91/65/6 90/66/6 18/67/6 19/68/6
f 75/69/6 74/70/6 24/71/6 21/72/6
f 75/73/4 21/74/4 23/75/4 73/76/4
f 79/77/2 78/78/2 22/79/2 23/80/2
f 80/81/10 24/82/10 22/83/10 78/84/10
f 82/85/11 26/86/11 28/87/11 84/88/11
f 81/89/2 84/90/2 28/91/2 25/92/2
f 77/93/6 80/94/6 26/95/6 27/96/6
f 77/97/4 27/98/4 25/99/4 79/100/4
f 69/101/4 29/102/4 31/103/4 71/104/4
f 69/105/6 72/106/6 32/107/6 29/108/6
f 73/109/2 76/110/2 30/111/2 31/112/2
f 74/113/12 32/114/12 30/115/12 76/116/12
f 85/117/6 88/118/6 36/119/6 33/120/6
f 85/121/4 33/122/4 35/123/4 87/124/4
f 90/125/13 36/126/13 34/127/13 92/128/13
f 89/129/2 92/130/2 34/131/2 35/132/2
f 97/133/2 100/134/2 40/135/2 37/136/2
f 98/137/14 38/138/14 40/139/14 100/140/14
f 93/141/4 39/142/4 37/143/4 95/144/4
f 93/145/6 96/146/6 38/147/6 39/148/6
f 120/149/14 42/150/14 44/151/14 118/152/14
f 119/153/2 118/154/2 44/155/2 41/156/2
f 115/157/6 114/158/6 42/159/6 43/160/6
f 115/161/4 43/162/4 41/163/4 113/164/4
f 107/165/4 45/166/4 47/167/4 105/168/4
f 107/169/6 106/170/6 48/171/6 45/172/6
f 112/173/15 48/174/15 46/175/15 110/176/15
f 111/177/2 110/178/2 46/179/2 47/180/2
f 127/181/2 126/182/2 52/183/2 49/184/2
f 128/185/16 50/186/16 52/187/16 126/188/16
f 123/189/6 122/190/6 50/191/6 51/192/6
f 123/193/4 51/194/4 49/195/4 121/196/4
f 117/197/4 53/198/4 55/199/4 119/200/4
f 117/201/6 120/202/6 56/203/6 53/204/6
f 121/205/2 124/206/2 54/207/2 55/208/2
f 122/209/17 56/210/17 54/211/17 124/212/17
f 130/213/18 58/214/18 60/215/18 132/216/18
f 129/217/2 132/218/2 60/219/2 57/220/2
f 125/221/6 128/222/6 58/223/6 59/224/6
f 125/225/4 59/226/4 57/227/4 127/228/4
f 113/229/2 116/230/2 64/231/2 61/232/2
f 114/233/19 62/234/19 64/235/19 116/236/19
f 109/237/4 63/238/4 61/239/4 111/240/4
f 109/241/6 112/242/6 62/243/6 63/244/6
f 101/245/6 104/246/6 68/247/6 65/248/6
f 101/249/4 65/250/4 67/251/4 103/252/4
f 106/253/20 68/254/20 66/255/20 108/256/20
f 105/257/2 108/258/2 66/259/2 67/260/2
f 6/12/6 5/11/6 72/106/6 69/105/6
f 6/261/4 69/101/4 71/104/4 8/262/4
f 31/112/2 30/111/2 70/6/2 71/5/2
f 32/114/21 72/1/21 70/4/21 30/115/21
f 24/82/22 74/113/22 76/116/22 22/83/22
f 23/80/2 22/79/2 76/110/2 73/109/2
f 29/102/4 75/73/4 73/76/4 31/103/4
f 29/108/6 32/107/6 74/70/6 75/69/6
f 21/74/4 77/97/4 79/100/4 23/75/4
f 21/72/6 24/71/6 80/94/6 77/93/6
f 26/86/23 80/81/23 78/84/23 28/87/23
f 25/92/2 28/91/2 78/78/2 79/77/2
f 15/48/2 14/47/2 84/90/2 81/89/2
f 16/50/24 82/85/24 84/88/24 14/51/24
f 27/96/6 26/95/6 82/42/6 83/41/6
f 27/98/4 83/37/4 81/40/4 25/99/4
f 13/38/4 85/121/4 87/124/4 15/39/4
f 13/44/6 16/43/6 88/118/6 85/117/6
f 36/126/25 88/49/25 86/52/25 34/127/25
f 35/132/2 34/131/2 86/46/2 87/45/2
f 17/60/2 20/59/2 92/130/2 89/129/2
f 18/54/26 90/125/26 92/128/26 20/55/26
f 33/120/6 36/119/6 90/66/6 91/65/6
f 33/122/4 91/61/4 89/64/4 35/123/4
f 19/68/6 18/67/6 96/146/6 93/145/6
f 19/62/4 93/141/4 95/144/4 17/63/4
f 37/136/2 40/135/2 94/58/2 95/57/2
f 38/138/27 96/53/27 94/56/27 40/139/27
f 12/34/28 98/137/28 100/140/28 10/35/28
f 11/32/2 10/31/2 100/134/2 97/133/2
f 39/142/4 99/25/4 97/28/4 37/143/4
f 39/148/6 38/147/6 98/22/6 99/21/6
f 9/26/4 101/249/4 103/252/4 11/27/4
f 9/24/6 12/23/6 104/246/6 101/245/6
f 68/254/29 104/33/29 102/36/29 66/255/29
f 67/260/2 66/259/2 102/30/2 103/29/2
f 47/180/2 46/179/2 108/258/2 105/257/2
f 48/174/30 106/253/30 108/256/30 46/175/30
f 65/248/6 68/247/6 106/170/6 107/169/6
f 65/250/4 107/165/4 105/168/4 67/251/4
f 45/172/6 48/171/6 112/242/6 109/241/6
f 45/166/4 109/237/4 111/240/4 47/167/4
f 61/232/2 64/231/2 110/178/2 111/177/2
f 62/234/31 112/173/31 110/176/31 64/235/31
f 42/150/32 114/233/32 116/236/32 44/151/32
f 41/156/2 44/155/2 116/230/2 113/229/2
f 63/238/4 115/161/4 113/164/4 61/239/4
f 63/244/6 62/243/6 114/158/6 115/157/6
f 43/160/6 42/159/6 120/202/6 117/201/6
f 43/162/4 117/197/4 119/200/4 41/163/4
f 55/208/2 54/207/2 118/154/2 119/153/2
f 56/210/33 120/149/33 118/152/33 54/211/33
f 50/186/34 122/209/34 124/212/34 52/187/34
f 49/184/2 52/183/2 124/206/2 121/205/2
f 53/198/4 123/193/4 121/196/4 55/199/4
f 53/204/6 56/203/6 122/190/6 123/189/6
f 51/194/4 125/225/4 127/228/4 49/195/4
f 51/192/6 50/191/6 128/222/6 125/221/6
f 58/214/35 128/185/35 126/188/35 60/215/35
f 57/220/2 60/219/2 126/182/2 127/181/2
f 4/15/2 3/18/2 132/218/2 129/217/2
f 1/17/36 130/213/36 132/216/36 3/18/36
f 59/224/6 58/223/6 130/20/6 131/19/6
f 59/226/4 131/13/4 129/16/4 57/227/4
