# Blender 5.1.1
# www.blender.org
mtllib data/defender_ground1.mtl
o Cube
v 64.000000 2.527762 -0.500000
v 64.000000 -0.082940 -0.500000
v 64.000000 2.527762 0.500000
v 64.000000 -0.082940 0.500000
v -64.000000 2.527762 -0.500000
v -64.000000 -0.082940 -0.500000
v -64.000000 2.527762 0.500000
v -64.000000 -0.082940 0.500000
v 0.000000 -0.082940 -0.500000
v 0.000000 8.604940 0.500000
v 0.000000 -0.082940 0.500000
v 0.000000 8.604940 -0.500000
v -32.000000 -0.082940 -0.500000
v -32.000000 9.917060 0.500000
v -32.000000 -0.082940 0.500000
v -32.000000 9.917060 -0.500000
v -16.000000 -0.082940 0.500000
v -16.000000 5.911646 -0.500000
v -16.000000 -0.082940 -0.500000
v -16.000000 5.911646 0.500000
v -48.000000 -0.082940 -0.500000
v -48.000000 2.527762 0.500000
v -48.000000 -0.082940 0.500000
v -48.000000 2.527762 -0.500000
v -40.000000 -0.082940 0.500000
v -40.000000 3.563645 -0.500000
v -40.000000 -0.082940 -0.500000
v -40.000000 3.563645 0.500000
v -56.000000 -0.082940 -0.500000
v -56.000000 3.218351 0.500000
v -56.000000 -0.082940 0.500000
v -56.000000 3.218351 -0.500000
v -24.000000 -0.082940 -0.500000
v -24.000000 9.709883 0.500000
v -24.000000 -0.082940 0.500000
v -24.000000 9.709883 -0.500000
v -8.000000 -0.082940 0.500000
v -8.000000 3.011174 -0.500000
v -8.000000 -0.082940 -0.500000
v -8.000000 3.011174 0.500000
v 32.000000 -0.082940 0.500000
v 32.000000 5.221057 -0.500000
v 32.000000 -0.082940 -0.500000
v 32.000000 5.221057 0.500000
v 16.000000 -0.082940 -0.500000
v 16.000000 8.259647 0.500000
v 16.000000 -0.082940 0.500000
v 16.000000 8.259647 -0.500000
v 48.000000 -0.082940 0.500000
v 48.000000 3.977998 -0.500000
v 48.000000 -0.082940 -0.500000
v 48.000000 3.977998 0.500000
v 40.000000 -0.082940 -0.500000
v 40.000000 5.773529 0.500000
v 40.000000 -0.082940 0.500000
v 40.000000 5.773529 -0.500000
v 56.000000 -0.082940 0.500000
v 56.000000 3.701763 -0.500000
v 56.000000 -0.082940 -0.500000
v 56.000000 3.701763 0.500000
v 24.074766 -0.082940 0.500000
v 24.074766 3.977998 -0.500000
v 24.074766 -0.082940 -0.500000
v 24.074766 3.977998 0.500000
v 8.000000 -0.082940 -0.500000
v 8.000000 3.632704 0.500000
v 8.000000 -0.082940 0.500000
v 8.000000 3.632704 -0.500000
v -59.925926 -0.082940 -0.500000
v -59.925926 7.361882 0.500000
v -59.925926 -0.082940 0.500000
v -59.925926 7.361882 -0.500000
v -51.925926 -0.082940 0.500000
v -51.925926 5.980705 -0.500000
v -51.925926 -0.082940 -0.500000
v -51.925926 5.980705 0.500000
v -44.000000 -0.082940 -0.500000
v -44.000000 1.768115 0.500000
v -44.000000 -0.082940 0.500000
v -44.000000 1.768115 -0.500000
v -35.925926 -0.082940 0.500000
v -35.925926 8.052471 -0.500000
v -35.925926 -0.082940 -0.500000
v -35.925926 8.052471 0.500000
v -28.000000 -0.082940 -0.500000
v -28.000000 6.395059 0.500000
v -28.000000 -0.082940 0.500000
v -28.000000 6.395059 -0.500000
v -20.000000 -0.082940 0.500000
v -20.000000 3.839880 -0.500000
v -20.000000 -0.082940 -0.500000
v -20.000000 3.839880 0.500000
v -12.000000 -0.082940 -0.500000
v -12.000000 4.323293 0.500000
v -12.000000 -0.082940 0.500000
v -12.000000 4.323293 -0.500000
v -4.000000 -0.082940 0.500000
v -4.000000 5.221057 -0.500000
v -4.000000 -0.082940 -0.500000
v -4.000000 5.221057 0.500000
v 4.000000 -0.082940 -0.500000
v 4.000000 5.980705 0.500000
v 4.000000 -0.082940 0.500000
v 4.000000 5.980705 -0.500000
v 12.000000 -0.082940 0.500000
v 12.000000 6.256941 -0.500000
v 12.000000 -0.082940 -0.500000
v 12.000000 6.256941 0.500000
v 20.037384 -0.082940 -0.500000
v 20.037384 7.292823 0.500000
v 20.037384 -0.082940 0.500000
v 20.037384 7.292823 -0.500000
v 28.037384 -0.082940 0.500000
v 28.037384 3.287410 -0.500000
v 28.037384 -0.082940 -0.500000
v 28.037384 3.287410 0.500000
v 36.000000 -0.082940 -0.500000
v 36.000000 7.430941 0.500000
v 36.000000 -0.082940 0.500000
v 36.000000 7.430941 -0.500000
v 44.000000 -0.082940 0.500000
v 44.000000 2.942116 -0.500000
v 44.000000 -0.082940 -0.500000
v 44.000000 2.942116 0.500000
v 52.000000 -0.082940 -0.500000
v 52.000000 5.221057 0.500000
v 52.000000 -0.082940 0.500000
v 52.000000 5.221057 -0.500000
v 60.000000 -0.082940 0.500000
v 60.000000 2.596821 -0.500000
v 60.000000 -0.082940 -0.500000
v 60.000000 2.596821 0.500000
vn -0.7647 0.6444 -0.0000
vn -0.0000 -0.0000 1.0000
vn -1.0000 -0.0000 -0.0000
vn -0.0000 -1.0000 -0.0000
vn 1.0000 -0.0000 -0.0000
vn -0.0000 -0.0000 -1.0000
vn 0.5485 0.8361 -0.0000
vn 0.6608 0.7505 -0.0000
vn 0.3691 0.9294 -0.0000
vn 0.1866 0.9824 -0.0000
vn -0.7405 0.6721 -0.0000
vn -0.5612 0.8277 -0.0000
vn 0.8264 0.5631 -0.0000
vn -0.4836 0.8753 -0.0000
vn 0.2329 0.9725 -0.0000
vn -0.2968 0.9550 -0.0000
vn 0.5778 0.8162 -0.0000
vn 0.2663 0.9639 -0.0000
vn 0.1717 0.9852 -0.0000
vn -0.5485 0.8361 -0.0000
vn 0.7259 0.6878 -0.0000
vn 0.6604 0.7509 -0.0000
vn -0.4095 0.9123 -0.0000
vn -0.4290 0.9033 -0.0000
vn -0.6381 0.7700 -0.0000
vn -0.4599 0.8880 -0.0000
vn 0.3117 0.9502 -0.0000
vn -0.6459 0.7635 -0.0000
vn 0.5062 0.8624 -0.0000
vn -0.4477 0.8942 -0.0000
vn 0.6346 0.7729 -0.0000
vn -0.4385 0.8987 -0.0000
vn 0.3828 0.9238 -0.0000
vn -0.2507 0.9681 -0.0000
vn 0.3551 0.9348 -0.0000
vn 0.0173 0.9999 -0.0000
vt 0.867043 0.500000
vt 0.875000 0.500000
vt 0.875000 0.750000
vt 0.867043 0.750000
vt 0.375000 0.992043
vt 0.625000 0.992043
vt 0.625000 1.000000
vt 0.375000 1.000000
vt 0.375000 0.000000
vt 0.625000 0.000000
vt 0.625000 0.250000
vt 0.375000 0.250000
vt 0.367188 0.500000
vt 0.375000 0.500000
vt 0.375000 0.750000
vt 0.367188 0.750000
vt 0.625000 0.500000
vt 0.625000 0.750000
vt 0.375000 0.492188
vt 0.625000 0.492188
vt 0.375000 0.367188
vt 0.625000 0.367188
vt 0.625000 0.375000
vt 0.375000 0.375000
vt 0.242188 0.500000
vt 0.250000 0.500000
vt 0.250000 0.750000
vt 0.242188 0.750000
vt 0.375000 0.867188
vt 0.625000 0.867188
vt 0.625000 0.875000
vt 0.375000 0.875000
vt 0.742188 0.500000
vt 0.750000 0.500000
vt 0.750000 0.750000
vt 0.742188 0.750000
vt 0.179832 0.500000
vt 0.187500 0.500000
vt 0.187500 0.750000
vt 0.179832 0.750000
vt 0.375000 0.304832
vt 0.625000 0.304832
vt 0.625000 0.312500
vt 0.375000 0.312500
vt 0.375000 0.929688
vt 0.625000 0.929688
vt 0.625000 0.937500
vt 0.375000 0.937500
vt 0.804688 0.500000
vt 0.812500 0.500000
vt 0.812500 0.750000
vt 0.804688 0.750000
vt 0.773438 0.500000
vt 0.781250 0.500000
vt 0.781250 0.750000
vt 0.773438 0.750000
vt 0.375000 0.898438
vt 0.625000 0.898438
vt 0.625000 0.906250
vt 0.375000 0.906250
vt 0.210938 0.500000
vt 0.218750 0.500000
vt 0.218750 0.750000
vt 0.210938 0.750000
vt 0.375000 0.335938
vt 0.625000 0.335938
vt 0.625000 0.343750
vt 0.375000 0.343750
vt 0.375000 0.273582
vt 0.625000 0.273582
vt 0.625000 0.281250
vt 0.375000 0.281250
vt 0.148582 0.500000
vt 0.156250 0.500000
vt 0.156250 0.750000
vt 0.148582 0.750000
vt 0.375000 0.960938
vt 0.625000 0.960938
vt 0.625000 0.968750
vt 0.375000 0.968750
vt 0.835938 0.500000
vt 0.843750 0.500000
vt 0.843750 0.750000
vt 0.835938 0.750000
vt 0.820168 0.500000
vt 0.828125 0.500000
vt 0.828125 0.750000
vt 0.820168 0.750000
vt 0.375000 0.945168
vt 0.625000 0.945168
vt 0.625000 0.953125
vt 0.375000 0.953125
vt 0.375000 0.289062
vt 0.625000 0.289062
vt 0.625000 0.296875
vt 0.375000 0.296875
vt 0.164062 0.500000
vt 0.171875 0.500000
vt 0.171875 0.750000
vt 0.164062 0.750000
vt 0.132957 0.500000
vt 0.140625 0.500000
vt 0.140625 0.750000
vt 0.132957 0.750000
vt 0.375000 0.257957
vt 0.625000 0.257957
vt 0.625000 0.265625
vt 0.375000 0.265625
vt 0.375000 0.976418
vt 0.625000 0.976418
vt 0.625000 0.984375
vt 0.375000 0.984375
vt 0.851418 0.500000
vt 0.859375 0.500000
vt 0.859375 0.750000
vt 0.851418 0.750000
vt 0.375000 0.320312
vt 0.625000 0.320312
vt 0.625000 0.328125
vt 0.375000 0.328125
vt 0.195312 0.500000
vt 0.203125 0.500000
vt 0.203125 0.750000
vt 0.195312 0.750000
vt 0.789062 0.500000
vt 0.796875 0.500000
vt 0.796875 0.750000
vt 0.789062 0.750000
vt 0.375000 0.914062
vt 0.625000 0.914062
vt 0.625000 0.921875
vt 0.375000 0.921875
vt 0.375000 0.882812
vt 0.625000 0.882812
vt 0.625000 0.890625
vt 0.375000 0.890625
vt 0.757812 0.500000
vt 0.765625 0.500000
vt 0.765625 0.750000
vt 0.757812 0.750000
vt 0.226562 0.500000
vt 0.234375 0.500000
vt 0.234375 0.750000
vt 0.226562 0.750000
vt 0.375000 0.351562
vt 0.625000 0.351562
vt 0.625000 0.359375
vt 0.375000 0.359375
vt 0.679688 0.500000
vt 0.687500 0.500000
vt 0.687500 0.750000
vt 0.679688 0.750000
vt 0.375000 0.804688
vt 0.625000 0.804688
vt 0.625000 0.812500
vt 0.375000 0.812500
vt 0.375000 0.429761
vt 0.625000 0.429761
vt 0.625000 0.437500
vt 0.375000 0.437500
vt 0.304761 0.500000
vt 0.312500 0.500000
vt 0.312500 0.750000
vt 0.304761 0.750000
vt 0.273438 0.500000
vt 0.281250 0.500000
vt 0.281250 0.750000
vt 0.273438 0.750000
vt 0.375000 0.398438
vt 0.625000 0.398438
vt 0.625000 0.406250
vt 0.375000 0.406250
vt 0.710864 0.500000
vt 0.718750 0.500000
vt 0.718750 0.750000
vt 0.710864 0.750000
vt 0.375000 0.835864
vt 0.625000 0.835864
vt 0.625000 0.843750
vt 0.375000 0.843750
vt 0.375000 0.773438
vt 0.625000 0.773438
vt 0.625000 0.781250
vt 0.375000 0.781250
vt 0.648438 0.500000
vt 0.656250 0.500000
vt 0.656250 0.750000
vt 0.648438 0.750000
vt 0.375000 0.460938
vt 0.625000 0.460938
vt 0.625000 0.468750
vt 0.375000 0.468750
vt 0.335938 0.500000
vt 0.343750 0.500000
vt 0.343750 0.750000
vt 0.335938 0.750000
vt 0.320312 0.500000
vt 0.328125 0.500000
vt 0.328125 0.750000
vt 0.320312 0.750000
vt 0.375000 0.445312
vt 0.625000 0.445312
vt 0.625000 0.453125
vt 0.375000 0.453125
vt 0.375000 0.789062
vt 0.625000 0.789062
vt 0.625000 0.796875
vt 0.375000 0.796875
vt 0.664062 0.500000
vt 0.671875 0.500000
vt 0.671875 0.750000
vt 0.664062 0.750000
vt 0.632812 0.500000
vt 0.640625 0.500000
vt 0.640625 0.750000
vt 0.632812 0.750000
vt 0.375000 0.757812
vt 0.625000 0.757812
vt 0.625000 0.765625
vt 0.375000 0.765625
vt 0.375000 0.476562
vt 0.625000 0.476562
vt 0.625000 0.484375
vt 0.375000 0.484375
vt 0.351562 0.500000
vt 0.359375 0.500000
vt 0.359375 0.750000
vt 0.351562 0.750000
vt 0.375000 0.820239
vt 0.625000 0.820239
vt 0.625000 0.827979
vt 0.375000 0.827979
vt 0.695239 0.500000
vt 0.702979 0.500000
vt 0.702979 0.750000
vt 0.695239 0.750000
vt 0.289136 0.500000
vt 0.297021 0.500000
vt 0.297021 0.750000
vt 0.289136 0.750000
vt 0.375000 0.414136
vt 0.625000 0.414136
vt 0.625000 0.422021
vt 0.375000 0.422021
vt 0.375000 0.382812
vt 0.625000 0.382812
vt 0.625000 0.390625
vt 0.375000 0.390625
vt 0.257812 0.500000
vt 0.265625 0.500000
vt 0.265625 0.750000
vt 0.257812 0.750000
vt 0.726562 0.500000
vt 0.734375 0.500000
vt 0.734375 0.750000
vt 0.726562 0.750000
vt 0.375000 0.851562
vt 0.625000 0.851562
vt 0.625000 0.859375
vt 0.375000 0.859375
vt 0.125000 0.500000
vt 0.125000 0.750000
s 0
usemtl Material
f 72/1/1 5/2/1 7/3/1 70/4/1
f 71/5/2 70/6/2 7/7/2 8/8/2
f 8/9/3 7/10/3 5/11/3 6/12/3
f 131/13/4 2/14/4 4/15/4 129/16/4
f 2/14/5 1/17/5 3/18/5 4/15/5
f 131/19/6 130/20/6 1/17/6 2/14/6
f 99/21/6 98/22/6 12/23/6 9/24/6
f 99/25/4 9/26/4 11/27/4 97/28/4
f 103/29/2 102/30/2 10/31/2 11/32/2
f 104/33/7 12/34/7 10/35/7 102/36/7
f 83/37/4 13/38/4 15/39/4 81/40/4
f 83/41/6 82/42/6 16/43/6 13/44/6
f 87/45/2 86/46/2 14/47/2 15/48/2
f 88/49/8 16/50/8 14/51/8 86/52/8
f 96/53/9 18/54/9 20/55/9 94/56/9
f 95/57/2 94/58/2 20/59/2 17/60/2
f 91/61/4 19/62/4 17/63/4 89/64/4
f 91/65/6 90/66/6 18/67/6 19/68/6
f 75/69/6 74/70/6 24/71/6 21/72/6
f 75/73/4 21/74/4 23/75/4 73/76/4
f 79/77/2 78/78/2 22/79/2 23/80/2
f 80/81/10 24/82/10 22/83/10 78/84/10
f 82/85/11 26/86/11 28/87/11 84/88/11
f 81/89/2 84/90/2 28/91/2 25/92/2
f 77/93/6 80/94/6 26/95/6 27/96/6
f 77/97/4 27/98/4 25/99/4 79/100/4
f 69/101/4 29/102/4 31/103/4 71/104/4
f 69/105/6 72/106/6 32/107/6 29/108/6
f 73/109/2 76/110/2 30/111/2 31/112/2
f 74/113/12 32/114/12 30/115/12 76/116/12
f 85/117/6 88/118/6 36/119/6 33/120/6
f 85/121/4 33/122/4 35/123/4 87/124/4
f 90/125/13 36/126/13 34/127/13 92/128/13
f 89/129/2 92/130/2 34/131/2 35/132/2
f 97/133/2 100/134/2 40/135/2 37/136/2
f 98/137/14 38/138/14 40/139/14 100/140/14
f 93/141/4 39/142/4 37/143/4 95/144/4
f 93/145/6 96/146/6 38/147/6 39/148/6
f 120/149/14 42/150/14 44/151/14 118/152/14
f 119/153/2 118/154/2 44/155/2 41/156/2
f 115/157/6 114/158/6 42/159/6 43/160/6
f 115/161/4 43/162/4 41/163/4 113/164/4
f 107/165/4 45/166/4 47/167/4 105/168/4
f 107/169/6 106/170/6 48/171/6 45/172/6
f 112/173/15 48/174/15 46/175/15 110/176/15
f 111/177/2 110/178/2 46/179/2 47/180/2
f 127/181/2 126/182/2 52/183/2 49/184/2
f 128/185/16 50/186/16 52/187/16 126/188/16
f 123/189/6 122/190/6 50/191/6 51/192/6
f 123/193/4 51/194/4 49/195/4 121/196/4
f 117/197/4 53/198/4 55/199/4 119/200/4
f 117/201/6 120/202/6 56/203/6 53/204/6
f 121/205/2 124/206/2 54/207/2 55/208/2
f 122/209/17 56/210/17 54/211/17 124/212/17
f 130/213/18 58/214/18 60/215/18 132/216/18
f 129/217/2 132/218/2 60/219/2 57/220/2
f 125/221/6 128/222/6 58/223/6 59/224/6
f 125/225/4 59/226/4 57/227/4 127/228/4
f 113/229/2 116/230/2 64/231/2 61/232/2
f 114/233/19 62/234/19 64/235/19 116/236/19
f 109/237/4 63/238/4 61/239/4 111/240/4
f 109/241/6 112/242/6 62/243/6 63/244/6
f 101/245/6 104/246/6 68/247/6 65/248/6
f 101/249/4 65/250/4 67/251/4 103/252/4
f 106/253/20 68/254/20 66/255/20 108/256/20
f 105/257/2 108/258/2 66/259/2 67/260/2
f 6/12/6 5/11/6 72/106/6 69/105/6
f 6/261/4 69/101/4 71/104/4 8/262/4
f 31/112/2 30/111/2 70/6/2 71/5/2
f 32/114/21 72/1/21 70/4/21 30/115/21
f 24/82/22 74/113/22 76/116/22 22/83/22
f 23/80/2 22/79/2 76/110/2 73/109/2
f 29/102/4 75/73/4 73/76/4 31/103/4
f 29/108/6 32/107/6 74/70/6 75/69/6
f 21/74/4 77/97/4 79/100/4 23/75/4
f 21/72/6 24/71/6 80/94/6 77/93/6
f 26/86/23 80/81/23 78/84/23 28/87/23
f 25/92/2 28/91/2 78/78/2 79/77/2
f 15/48/2 14/47/2 84/90/2 81/89/2
f 16/50/24 82/85/24 84/88/24 14/51/24
f 27/96/6 26/95/6 82/42/6 83/41/6
f 27/98/4 83/37/4 81/40/4 25/99/4
f 13/38/4 85/121/4 87/124/4 15/39/4
f 13/44/6 16/43/6 88/118/6 85/117/6
f 36/126/25 88/49/25 86/52/25 34/127/25
f 35/132/2 34/131/2 86/46/2 87/45/2
f 17/60/2 20/59/2 92/130/2 89/129/2
f 18/54/26 90/125/26 92/128/26 20/55/26
f 33/120/6 36/119/6 90/66/6 91/65/6
f 33/122/4 91/61/4 89/64/4 35/123/4
f 19/68/6 18/67/6 96/146/6 93/145/6
f 19/62/4 93/141/4 95/144/4 17/63/4
f 37/136/2 40/135/2 94/58/2 95/57/2
f 38/138/27 96/53/27 94/56/27 40/139/27
f 12/34/28 98/137/28 100/140/28 10/35/28
f 11/32/2 10/31/2 100/134/2 97/133/2
f 39/142/4 99/25/4 97/28/4 37/143/4
f 39/148/6 38/147/6 98/22/6 99/21/6
f 9/26/4 101/249/4 103/252/4 11/27/4
f 9/24/6 12/23/6 104/246/6 101/245/6
f 68/254/29 104/33/29 102/36/29 66/255/29
f 67/260/2 66/259/2 102/30/2 103/29/2
f 47/180/2 46/179/2 108/258/2 105/257/2
f 48/174/30 106/253/30 108/256/30 46/175/30
f 65/248/6 68/247/6 106/170/6 107/169/6
f 65/250/4 107/165/4 105/168/4 67/251/4
f 45/172/6 48/171/6 112/242/6 109/241/6
f 45/166/4 109/237/4 111/240/4 47/167/4
f 61/232/2 64/231/2 110/178/2 111/177/2
f 62/234/31 112/173/31 110/176/31 64/235/31
f 42/150/32 114/233/32 116/236/32 44/151/32
f 41/156/2 44/155/2 116/230/2 113/229/2
f 63/238/4 115/161/4 113/164/4 61/239/4
f 63/244/6 62/243/6 114/158/6 115/157/6
f 43/160/6 42/159/6 120/202/6 117/201/6
f 43/162/4 117/197/4 119/200/4 41/163/4
f 55/208/2 54/207/2 118/154/2 119/153/2
f 56/210/33 120/149/33 118/152/33 54/211/33
f 50/186/34 122/209/34 124/212/34 52/187/34
f 49/184/2 52/183/2 124/206/2 121/205/2
f 53/198/4 123/193/4 121/196/4 55/199/4
f 53/204/6 56/203/6 122/190/6 123/189/6
f 51/194/4 125/225/4 127/228/4 49/195/4
f 51/192/6 50/191/6 128/222/6 125/221/6
f 58/214/35 128/185/35 126/188/35 60/215/35
f 57/220/2 60/219/2 126/182/2 127/181/2
f 4/15/2 3/18/2 132/218/2 129/217/2
f 1/17/36 130/213/36 132/216/36 3/18/36
f 59/224/6 58/223/6 130/20/6 131/19/6
f 59/226/4 131/13/4 129/16/4 57/227/4
o Cube.001
v 192.000000 2.527762 -0.500000
v 192.000000 -0.082940 -0.500000
v 192.000000 2.527762 0.500000
v 192.000000 -0.082940 0.500000
v 64.000000 2.527762 -0.500000
v 64.000000 -0.082940 -0.500000
v 64.000000 2.527762 0.500000
v 64.000000 -0.082940 0.500000
v 128.000000 -0.082940 -0.500000
v 128.000000 8.604940 0.500000
v 128.000000 -0.082940 0.500000
v 128.000000 8.604940 -0.500000
v 96.000000 -0.082940 -0.500000
v 96.000000 9.917060 0.500000
v 96.000000 -0.082940 0.500000
v 96.000000 9.917060 -0.500000
v 112.000000 -0.082940 0.500000
v 112.000000 5.911646 -0.500000
v 112.000000 -0.082940 -0.500000
v 112.000000 5.911646 0.500000
v 80.000000 -0.082940 -0.500000
v 80.000000 2.527762 0.500000
v 80.000000 -0.082940 0.500000
v 80.000000 2.527762 -0.500000
v 88.000000 -0.082940 0.500000
v 88.000000 3.563645 -0.500000
v 88.000000 -0.082940 -0.500000
v 88.000000 3.563645 0.500000
v 72.000000 -0.082940 -0.500000
v 72.000000 3.218351 0.500000
v 72.000000 -0.082940 0.500000
v 72.000000 3.218351 -0.500000
v 104.000000 -0.082940 -0.500000
v 104.000000 9.709883 0.500000
v 104.000000 -0.082940 0.500000
v 104.000000 9.709883 -0.500000
v 120.000000 -0.082940 0.500000
v 120.000000 3.011174 -0.500000
v 120.000000 -0.082940 -0.500000
v 120.000000 3.011174 0.500000
v 160.000000 -0.082940 0.500000
v 160.000000 5.221057 -0.500000
v 160.000000 -0.082940 -0.500000
v 160.000000 5.221057 0.500000
v 144.000000 -0.082940 -0.500000
v 144.000000 8.259647 0.500000
v 144.000000 -0.082940 0.500000
v 144.000000 8.259647 -0.500000
v 176.000000 -0.082940 0.500000
v 176.000000 3.977998 -0.500000
v 176.000000 -0.082940 -0.500000
v 176.000000 3.977998 0.500000
v 168.000000 -0.082940 -0.500000
v 168.000000 5.773529 0.500000
v 168.000000 -0.082940 0.500000
v 168.000000 5.773529 -0.500000
v 184.000000 -0.082940 0.500000
v 184.000000 3.701763 -0.500000
v 184.000000 -0.082940 -0.500000
v 184.000000 3.701763 0.500000
v 152.074768 -0.082940 0.500000
v 152.074768 3.977998 -0.500000
v 152.074768 -0.082940 -0.500000
v 152.074768 3.977998 0.500000
v 136.000000 -0.082940 -0.500000
v 136.000000 3.632704 0.500000
v 136.000000 -0.082940 0.500000
v 136.000000 3.632704 -0.500000
v 68.074074 -0.082940 -0.500000
v 68.074074 7.361882 0.500000
v 68.074074 -0.082940 0.500000
v 68.074074 7.361882 -0.500000
v 76.074074 -0.082940 0.500000
v 76.074074 5.980705 -0.500000
v 76.074074 -0.082940 -0.500000
v 76.074074 5.980705 0.500000
v 84.000000 -0.082940 -0.500000
v 84.000000 1.768115 0.500000
v 84.000000 -0.082940 0.500000
v 84.000000 1.768115 -0.500000
v 92.074074 -0.082940 0.500000
v 92.074074 8.052471 -0.500000
v 92.074074 -0.082940 -0.500000
v 92.074074 8.052471 0.500000
v 100.000000 -0.082940 -0.500000
v 100.000000 6.395059 0.500000
v 100.000000 -0.082940 0.500000
v 100.000000 6.395059 -0.500000
v 108.000000 -0.082940 0.500000
v 108.000000 3.839880 -0.500000
v 108.000000 -0.082940 -0.500000
v 108.000000 3.839880 0.500000
v 116.000000 -0.082940 -0.500000
v 116.000000 4.323293 0.500000
v 116.000000 -0.082940 0.500000
v 116.000000 4.323293 -0.500000
v 124.000000 -0.082940 0.500000
v 124.000000 5.221057 -0.500000
v 124.000000 -0.082940 -0.500000
v 124.000000 5.221057 0.500000
v 132.000000 -0.082940 -0.500000
v 132.000000 5.980705 0.500000
v 132.000000 -0.082940 0.500000
v 132.000000 5.980705 -0.500000
v 140.000000 -0.082940 0.500000
v 140.000000 6.256941 -0.500000
v 140.000000 -0.082940 -0.500000
v 140.000000 6.256941 0.500000
v 148.037384 -0.082940 -0.500000
v 148.037384 7.292823 0.500000
v 148.037384 -0.082940 0.500000
v 148.037384 7.292823 -0.500000
v 156.037384 -0.082940 0.500000
v 156.037384 3.287410 -0.500000
v 156.037384 -0.082940 -0.500000
v 156.037384 3.287410 0.500000
v 164.000000 -0.082940 -0.500000
v 164.000000 7.430941 0.500000
v 164.000000 -0.082940 0.500000
v 164.000000 7.430941 -0.500000
v 172.000000 -0.082940 0.500000
v 172.000000 2.942116 -0.500000
v 172.000000 -0.082940 -0.500000
v 172.000000 2.942116 0.500000
v 180.000000 -0.082940 -0.500000
v 180.000000 5.221057 0.500000
v 180.000000 -0.082940 0.500000
v 180.000000 5.221057 -0.500000
v 188.000000 -0.082940 0.500000
v 188.000000 2.596821 -0.500000
v 188.000000 -0.082940 -0.500000
v 188.000000 2.596821 0.500000
vn -0.7647 0.6444 -0.0000
vn -0.0000 -0.0000 1.0000
vn -1.0000 -0.0000 -0.0000
vn -0.0000 -1.0000 -0.0000
vn 1.0000 -0.0000 -0.0000
vn -0.0000 -0.0000 -1.0000
vn 0.5485 0.8361 -0.0000
vn 0.6608 0.7505 -0.0000
vn 0.3691 0.9294 -0.0000
vn 0.1866 0.9824 -0.0000
vn -0.7405 0.6721 -0.0000
vn -0.5612 0.8277 -0.0000
vn 0.8264 0.5631 -0.0000
vn -0.4836 0.8753 -0.0000
vn 0.2329 0.9725 -0.0000
vn -0.2968 0.9550 -0.0000
vn 0.5778 0.8162 -0.0000
vn 0.2663 0.9639 -0.0000
vn 0.1717 0.9852 -0.0000
vn -0.5485 0.8361 -0.0000
vn 0.7259 0.6878 -0.0000
vn 0.6604 0.7509 -0.0000
vn -0.4095 0.9123 -0.0000
vn -0.4290 0.9033 -0.0000
vn -0.6381 0.7700 -0.0000
vn -0.4599 0.8880 -0.0000
vn 0.3117 0.9502 -0.0000
vn -0.6459 0.7635 -0.0000
vn 0.5062 0.8624 -0.0000
vn -0.4477 0.8942 -0.0000
vn 0.6346 0.7729 -0.0000
vn -0.4385 0.8987 -0.0000
vn 0.3828 0.9238 -0.0000
vn -0.2507 0.9681 -0.0000
vn 0.3551 0.9348 -0.0000
vn 0.0173 0.9999 -0.0000
vt 0.867043 0.500000
vt 0.875000 0.500000
vt 0.875000 0.750000
vt 0.867043 0.750000
vt 0.375000 0.992043
vt 0.625000 0.992043
vt 0.625000 1.000000
vt 0.375000 1.000000
vt 0.375000 0.000000
vt 0.625000 0.000000
vt 0.625000 0.250000
vt 0.375000 0.250000
vt 0.367188 0.500000
vt 0.375000 0.500000
vt 0.375000 0.750000
vt 0.367188 0.750000
vt 0.625000 0.500000
vt 0.625000 0.750000
vt 0.375000 0.492188
vt 0.625000 0.492188
vt 0.375000 0.367188
vt 0.625000 0.367188
vt 0.625000 0.375000
vt 0.375000 0.375000
vt 0.242188 0.500000
vt 0.250000 0.500000
vt 0.250000 0.750000
vt 0.242188 0.750000
vt 0.375000 0.867188
vt 0.625000 0.867188
vt 0.625000 0.875000
vt 0.375000 0.875000
vt 0.742188 0.500000
vt 0.750000 0.500000
vt 0.750000 0.750000
vt 0.742188 0.750000
vt 0.179832 0.500000
vt 0.187500 0.500000
vt 0.187500 0.750000
vt 0.179832 0.750000
vt 0.375000 0.304832
vt 0.625000 0.304832
vt 0.625000 0.312500
vt 0.375000 0.312500
vt 0.375000 0.929688
vt 0.625000 0.929688
vt 0.625000 0.937500
vt 0.375000 0.937500
vt 0.804688 0.500000
vt 0.812500 0.500000
vt 0.812500 0.750000
vt 0.804688 0.750000
vt 0.773438 0.500000
vt 0.781250 0.500000
vt 0.781250 0.750000
vt 0.773438 0.750000
vt 0.375000 0.898438
vt 0.625000 0.898438
vt 0.625000 0.906250
vt 0.375000 0.906250
vt 0.210938 0.500000
vt 0.218750 0.500000
vt 0.218750 0.750000
vt 0.210938 0.750000
vt 0.375000 0.335938
vt 0.625000 0.335938
vt 0.625000 0.343750
vt 0.375000 0.343750
vt 0.375000 0.273582
vt 0.625000 0.273582
vt 0.625000 0.281250
vt 0.375000 0.281250
vt 0.148582 0.500000
vt 0.156250 0.500000
vt 0.156250 0.750000
vt 0.148582 0.750000
vt 0.375000 0.960938
vt 0.625000 0.960938
vt 0.625000 0.968750
vt 0.375000 0.968750
vt 0.835938 0.500000
vt 0.843750 0.500000
vt 0.843750 0.750000
vt 0.835938 0.750000
vt 0.820168 0.500000
vt 0.828125 0.500000
vt 0.828125 0.750000
vt 0.820168 0.750000
vt 0.375000 0.945168
vt 0.625000 0.945168
vt 0.625000 0.953125
vt 0.375000 0.953125
vt 0.375000 0.289062
vt 0.625000 0.289062
vt 0.625000 0.296875
vt 0.375000 0.296875
vt 0.164062 0.500000
vt 0.171875 0.500000
vt 0.171875 0.750000
vt 0.164062 0.750000
vt 0.132957 0.500000
vt 0.140625 0.500000
vt 0.140625 0.750000
vt 0.132957 0.750000
vt 0.375000 0.257957
vt 0.625000 0.257957
vt 0.625000 0.265625
vt 0.375000 0.265625
vt 0.375000 0.976418
vt 0.625000 0.976418
vt 0.625000 0.984375
vt 0.375000 0.984375
vt 0.851418 0.500000
vt 0.859375 0.500000
vt 0.859375 0.750000
vt 0.851418 0.750000
vt 0.375000 0.320312
vt 0.625000 0.320312
vt 0.625000 0.328125
vt 0.375000 0.328125
vt 0.195312 0.500000
vt 0.203125 0.500000
vt 0.203125 0.750000
vt 0.195312 0.750000
vt 0.789062 0.500000
vt 0.796875 0.500000
vt 0.796875 0.750000
vt 0.789062 0.750000
vt 0.375000 0.914062
vt 0.625000 0.914062
vt 0.625000 0.921875
vt 0.375000 0.921875
vt 0.375000 0.882812
vt 0.625000 0.882812
vt 0.625000 0.890625
vt 0.375000 0.890625
vt 0.757812 0.500000
vt 0.765625 0.500000
vt 0.765625 0.750000
vt 0.757812 0.750000
vt 0.226562 0.500000
vt 0.234375 0.500000
vt 0.234375 0.750000
vt 0.226562 0.750000
vt 0.375000 0.351562
vt 0.625000 0.351562
vt 0.625000 0.359375
vt 0.375000 0.359375
vt 0.679688 0.500000
vt 0.687500 0.500000
vt 0.687500 0.750000
vt 0.679688 0.750000
vt 0.375000 0.804688
vt 0.625000 0.804688
vt 0.625000 0.812500
vt 0.375000 0.812500
vt 0.375000 0.429761
vt 0.625000 0.429761
vt 0.625000 0.437500
vt 0.375000 0.437500
vt 0.304761 0.500000
vt 0.312500 0.500000
vt 0.312500 0.750000
vt 0.304761 0.750000
vt 0.273438 0.500000
vt 0.281250 0.500000
vt 0.281250 0.750000
vt 0.273438 0.750000
vt 0.375000 0.398438
vt 0.625000 0.398438
vt 0.625000 0.406250
vt 0.375000 0.406250
vt 0.710864 0.500000
vt 0.718750 0.500000
vt 0.718750 0.750000
vt 0.710864 0.750000
vt 0.375000 0.835864
vt 0.625000 0.835864
vt 0.625000 0.843750
vt 0.375000 0.843750
vt 0.375000 0.773438
vt 0.625000 0.773438
vt 0.625000 0.781250
vt 0.375000 0.781250
vt 0.648438 0.500000
vt 0.656250 0.500000
vt 0.656250 0.750000
vt 0.648438 0.750000
vt 0.375000 0.460938
vt 0.625000 0.460938
vt 0.625000 0.468750
vt 0.375000 0.468750
vt 0.335938 0.500000
vt 0.343750 0.500000
vt 0.343750 0.750000
vt 0.335938 0.750000
vt 0.320312 0.500000
vt 0.328125 0.500000
vt 0.328125 0.750000
vt 0.320312 0.750000
vt 0.375000 0.445312
vt 0.625000 0.445312
vt 0.625000 0.453125
vt 0.375000 0.453125
vt 0.375000 0.789062
vt 0.625000 0.789062
vt 0.625000 0.796875
vt 0.375000 0.796875
vt 0.664062 0.500000
vt 0.671875 0.500000
vt 0.671875 0.750000
vt 0.664062 0.750000
vt 0.632812 0.500000
vt 0.640625 0.500000
vt 0.640625 0.750000
vt 0.632812 0.750000
vt 0.375000 0.757812
vt 0.625000 0.757812
vt 0.625000 0.765625
vt 0.375000 0.765625
vt 0.375000 0.476562
vt 0.625000 0.476562
vt 0.625000 0.484375
vt 0.375000 0.484375
vt 0.351562 0.500000
vt 0.359375 0.500000
vt 0.359375 0.750000
vt 0.351562 0.750000
vt 0.375000 0.820239
vt 0.625000 0.820239
vt 0.625000 0.827979
vt 0.375000 0.827979
vt 0.695239 0.500000
vt 0.702979 0.500000
vt 0.702979 0.750000
vt 0.695239 0.750000
vt 0.289136 0.500000
vt 0.297021 0.500000
vt 0.297021 0.750000
vt 0.289136 0.750000
vt 0.375000 0.414136
vt 0.625000 0.414136
vt 0.625000 0.422021
vt 0.375000 0.422021
vt 0.375000 0.382812
vt 0.625000 0.382812
vt 0.625000 0.390625
vt 0.375000 0.390625
vt 0.257812 0.500000
vt 0.265625 0.500000
vt 0.265625 0.750000
vt 0.257812 0.750000
vt 0.726562 0.500000
vt 0.734375 0.500000
vt 0.734375 0.750000
vt 0.726562 0.750000
vt 0.375000 0.851562
vt 0.625000 0.851562
vt 0.625000 0.859375
vt 0.375000 0.859375
vt 0.125000 0.500000
vt 0.125000 0.750000
s 0
usemtl Material
f 204/263/37 137/264/37 139/265/37 202/266/37
f 203/267/38 202/268/38 139/269/38 140/270/38
f 140/271/39 139/272/39 137/273/39 138/274/39
f 263/275/40 134/276/40 136/277/40 261/278/40
f 134/276/41 133/279/41 135/280/41 136/277/41
f 263/281/42 262/282/42 133/279/42 134/276/42
f 231/283/42 230/284/42 144/285/42 141/286/42
f 231/287/40 141/288/40 143/289/40 229/290/40
f 235/291/38 234/292/38 142/293/38 143/294/38
f 236/295/43 144/296/43 142/297/43 234/298/43
f 215/299/40 145/300/40 147/301/40 213/302/40
f 215/303/42 214/304/42 148/305/42 145/306/42
f 219/307/38 218/308/38 146/309/38 147/310/38
f 220/311/44 148/312/44 146/313/44 218/314/44
f 228/315/45 150/316/45 152/317/45 226/318/45
f 227/319/38 226/320/38 152/321/38 149/322/38
f 223/323/40 151/324/40 149/325/40 221/326/40
f 223/327/42 222/328/42 150/329/42 151/330/42
f 207/331/42 206/332/42 156/333/42 153/334/42
f 207/335/40 153/336/40 155/337/40 205/338/40
f 211/339/38 210/340/38 154/341/38 155/342/38
f 212/343/46 156/344/46 154/345/46 210/346/46
f 214/347/47 158/348/47 160/349/47 216/350/47
f 213/351/38 216/352/38 160/353/38 157/354/38
f 209/355/42 212/356/42 158/357/42 159/358/42
f 209/359/40 159/360/40 157/361/40 211/362/40
f 201/363/40 161/364/40 163/365/40 203/366/40
f 201/367/42 204/368/42 164/369/42 161/370/42
f 205/371/38 208/372/38 162/373/38 163/374/38
f 206/375/48 164/376/48 162/377/48 208/378/48
f 217/379/42 220/380/42 168/381/42 165/382/42
f 217/383/40 165/384/40 167/385/40 219/386/40
f 222/387/49 168/388/49 166/389/49 224/390/49
f 221/391/38 224/392/38 166/393/38 167/394/38
f 229/395/38 232/396/38 172/397/38 169/398/38
f 230/399/50 170/400/50 172/401/50 232/402/50
f 225/403/40 171/404/40 169/405/40 227/406/40
f 225/407/42 228/408/42 170/409/42 171/410/42
f 252/411/50 174/412/50 176/413/50 250/414/50
f 251/415/38 250/416/38 176/417/38 173/418/38
f 247/419/42 246/420/42 174/421/42 175/422/42
f 247/423/40 175/424/40 173/425/40 245/426/40
f 239/427/40 177/428/40 179/429/40 237/430/40
f 239/431/42 238/432/42 180/433/42 177/434/42
f 244/435/51 180/436/51 178/437/51 242/438/51
f 243/439/38 242/440/38 178/441/38 179/442/38
f 259/443/38 258/444/38 184/445/38 181/446/38
f 260/447/52 182/448/52 184/449/52 258/450/52
f 255/451/42 254/452/42 182/453/42 183/454/42
f 255/455/40 183/456/40 181/457/40 253/458/40
f 249/459/40 185/460/40 187/461/40 251/462/40
f 249/463/42 252/464/42 188/465/42 185/466/42
f 253/467/38 256/468/38 186/469/38 187/470/38
f 254/471/53 188/472/53 186/473/53 256/474/53
f 262/475/54 190/476/54 192/477/54 264/478/54
f 261/479/38 264/480/38 192/481/38 189/482/38
f 257/483/42 260/484/42 190/485/42 191/486/42
f 257/487/40 191/488/40 189/489/40 259/490/40
f 245/491/38 248/492/38 196/493/38 193/494/38
f 246/495/55 194/496/55 196/497/55 248/498/55
f 241/499/40 195/500/40 193/501/40 243/502/40
f 241/503/42 244/504/42 194/505/42 195/506/42
f 233/507/42 236/508/42 200/509/42 197/510/42
f 233/511/40 197/512/40 199/513/40 235/514/40
f 238/515/56 200/516/56 198/517/56 240/518/56
f 237/519/38 240/520/38 198/521/38 199/522/38
f 138/274/42 137/273/42 204/368/42 201/367/42
f 138/523/40 201/363/40 203/366/40 140/524/40
f 163/374/38 162/373/38 202/268/38 203/267/38
f 164/376/57 204/263/57 202/266/57 162/377/57
f 156/344/58 206/375/58 208/378/58 154/345/58
f 155/342/38 154/341/38 208/372/38 205/371/38
f 161/364/40 207/335/40 205/338/40 163/365/40
f 161/370/42 164/369/42 206/332/42 207/331/42
f 153/336/40 209/359/40 211/362/40 155/337/40
f 153/334/42 156/333/42 212/356/42 209/355/42
f 158/348/59 212/343/59 210/346/59 160/349/59
f 157/354/38 160/353/38 210/340/38 211/339/38
f 147/310/38 146/309/38 216/352/38 213/351/38
f 148/312/60 214/347/60 216/350/60 146/313/60
f 159/358/42 158/357/42 214/304/42 215/303/42
f 159/360/40 215/299/40 213/302/40 157/361/40
f 145/300/40 217/383/40 219/386/40 147/301/40
f 145/306/42 148/305/42 220/380/42 217/379/42
f 168/388/61 220/311/61 218/314/61 166/389/61
f 167/394/38 166/393/38 218/308/38 219/307/38
f 149/322/38 152/321/38 224/392/38 221/391/38
f 150/316/62 222/387/62 224/390/62 152/317/62
f 165/382/42 168/381/42 222/328/42 223/327/42
f 165/384/40 223/323/40 221/326/40 167/385/40
f 151/330/42 150/329/42 228/408/42 225/407/42
f 151/324/40 225/403/40 227/406/40 149/325/40
f 169/398/38 172/397/38 226/320/38 227/319/38
f 170/400/63 228/315/63 226/318/63 172/401/63
f 144/296/64 230/399/64 232/402/64 142/297/64
f 143/294/38 142/293/38 232/396/38 229/395/38
f 171/404/40 231/287/40 229/290/40 169/405/40
f 171/410/42 170/409/42 230/284/42 231/283/42
f 141/288/40 233/511/40 235/514/40 143/289/40
f 141/286/42 144/285/42 236/508/42 233/507/42
f 200/516/65 236/295/65 234/298/65 198/517/65
f 199/522/38 198/521/38 234/292/38 235/291/38
f 179/442/38 178/441/38 240/520/38 237/519/38
f 180/436/66 238/515/66 240/518/66 178/437/66
f 197/510/42 200/509/42 238/432/42 239/431/42
f 197/512/40 239/427/40 237/430/40 199/513/40
f 177/434/42 180/433/42 244/504/42 241/503/42
f 177/428/40 241/499/40 243/502/40 179/429/40
f 193/494/38 196/493/38 242/440/38 243/439/38
f 194/496/67 244/435/67 242/438/67 196/497/67
f 174/412/68 246/495/68 248/498/68 176/413/68
f 173/418/38 176/417/38 248/492/38 245/491/38
f 195/500/40 247/423/40 245/426/40 193/501/40
f 195/506/42 194/505/42 246/420/42 247/419/42
f 175/422/42 174/421/42 252/464/42 249/463/42
f 175/424/40 249/459/40 251/462/40 173/425/40
f 187/470/38 186/469/38 250/416/38 251/415/38
f 188/472/69 252/411/69 250/414/69 186/473/69
f 182/448/70 254/471/70 256/474/70 184/449/70
f 181/446/38 184/445/38 256/468/38 253/467/38
f 185/460/40 255/455/40 253/458/40 187/461/40
f 185/466/42 188/465/42 254/452/42 255/451/42
f 183/456/40 257/487/40 259/490/40 181/457/40
f 183/454/42 182/453/42 260/484/42 257/483/42
f 190/476/71 260/447/71 258/450/71 192/477/71
f 189/482/38 192/481/38 258/444/38 259/443/38
f 136/277/38 135/280/38 264/480/38 261/479/38
f 133/279/72 262/475/72 264/478/72 135/280/72
f 191/486/42 190/485/42 262/282/42 263/281/42
f 191/488/40 263/275/40 261/278/40 189/489/40
o Cube.002
v -64.000000 2.527762 -0.500000
v -64.000000 -0.082940 -0.500000
v -64.000000 2.527762 0.500000
v -64.000000 -0.082940 0.500000
v -192.000000 2.527762 -0.500000
v -192.000000 -0.082940 -0.500000
v -192.000000 2.527762 0.500000
v -192.000000 -0.082940 0.500000
v -128.000000 -0.082940 -0.500000
v -128.000000 8.604940 0.500000
v -128.000000 -0.082940 0.500000
v -128.000000 8.604940 -0.500000
v -160.000000 -0.082940 -0.500000
v -160.000000 9.917060 0.500000
v -160.000000 -0.082940 0.500000
v -160.000000 9.917060 -0.500000
v -144.000000 -0.082940 0.500000
v -144.000000 5.911646 -0.500000
v -144.000000 -0.082940 -0.500000
v -144.000000 5.911646 0.500000
v -176.000000 -0.082940 -0.500000
v -176.000000 2.527762 0.500000
v -176.000000 -0.082940 0.500000
v -176.000000 2.527762 -0.500000
v -168.000000 -0.082940 0.500000
v -168.000000 3.563645 -0.500000
v -168.000000 -0.082940 -0.500000
v -168.000000 3.563645 0.500000
v -184.000000 -0.082940 -0.500000
v -184.000000 3.218351 0.500000
v -184.000000 -0.082940 0.500000
v -184.000000 3.218351 -0.500000
v -152.000000 -0.082940 -0.500000
v -152.000000 9.709883 0.500000
v -152.000000 -0.082940 0.500000
v -152.000000 9.709883 -0.500000
v -136.000000 -0.082940 0.500000
v -136.000000 3.011174 -0.500000
v -136.000000 -0.082940 -0.500000
v -136.000000 3.011174 0.500000
v -96.000000 -0.082940 0.500000
v -96.000000 5.221057 -0.500000
v -96.000000 -0.082940 -0.500000
v -96.000000 5.221057 0.500000
v -112.000000 -0.082940 -0.500000
v -112.000000 8.259647 0.500000
v -112.000000 -0.082940 0.500000
v -112.000000 8.259647 -0.500000
v -80.000000 -0.082940 0.500000
v -80.000000 3.977998 -0.500000
v -80.000000 -0.082940 -0.500000
v -80.000000 3.977998 0.500000
v -88.000000 -0.082940 -0.500000
v -88.000000 5.773529 0.500000
v -88.000000 -0.082940 0.500000
v -88.000000 5.773529 -0.500000
v -72.000000 -0.082940 0.500000
v -72.000000 3.701763 -0.500000
v -72.000000 -0.082940 -0.500000
v -72.000000 3.701763 0.500000
v -103.925232 -0.082940 0.500000
v -103.925232 3.977998 -0.500000
v -103.925232 -0.082940 -0.500000
v -103.925232 3.977998 0.500000
v -120.000000 -0.082940 -0.500000
v -120.000000 3.632704 0.500000
v -120.000000 -0.082940 0.500000
v -120.000000 3.632704 -0.500000
v -187.925934 -0.082940 -0.500000
v -187.925934 7.361882 0.500000
v -187.925934 -0.082940 0.500000
v -187.925934 7.361882 -0.500000
v -179.925934 -0.082940 0.500000
v -179.925934 5.980705 -0.500000
v -179.925934 -0.082940 -0.500000
v -179.925934 5.980705 0.500000
v -172.000000 -0.082940 -0.500000
v -172.000000 1.768115 0.500000
v -172.000000 -0.082940 0.500000
v -172.000000 1.768115 -0.500000
v -163.925934 -0.082940 0.500000
v -163.925934 8.052471 -0.500000
v -163.925934 -0.082940 -0.500000
v -163.925934 8.052471 0.500000
v -156.000000 -0.082940 -0.500000
v -156.000000 6.395059 0.500000
v -156.000000 -0.082940 0.500000
v -156.000000 6.395059 -0.500000
v -148.000000 -0.082940 0.500000
v -148.000000 3.839880 -0.500000
v -148.000000 -0.082940 -0.500000
v -148.000000 3.839880 0.500000
v -140.000000 -0.082940 -0.500000
v -140.000000 4.323293 0.500000
v -140.000000 -0.082940 0.500000
v -140.000000 4.323293 -0.500000
v -132.000000 -0.082940 0.500000
v -132.000000 5.221057 -0.500000
v -132.000000 -0.082940 -0.500000
v -132.000000 5.221057 0.500000
v -124.000000 -0.082940 -0.500000
v -124.000000 5.980705 0.500000
v -124.000000 -0.082940 0.500000
v -124.000000 5.980705 -0.500000
v -116.000000 -0.082940 0.500000
v -116.000000 6.256941 -0.500000
v -116.000000 -0.082940 -0.500000
v -116.000000 6.256941 0.500000
v -107.962616 -0.082940 -0.500000
v -107.962616 7.292823 0.500000
v -107.962616 -0.082940 0.500000
v -107.962616 7.292823 -0.500000
v -99.962616 -0.082940 0.500000
v -99.962616 3.287410 -0.500000
v -99.962616 -0.082940 -0.500000
v -99.962616 3.287410 0.500000
v -92.000000 -0.082940 -0.500000
v -92.000000 7.430941 0.500000
v -92.000000 -0.082940 0.500000
v -92.000000 7.430941 -0.500000
v -84.000000 -0.082940 0.500000
v -84.000000 2.942116 -0.500000
v -84.000000 -0.082940 -0.500000
v -84.000000 2.942116 0.500000
v -76.000000 -0.082940 -0.500000
v -76.000000 5.221057 0.500000
v -76.000000 -0.082940 0.500000
v -76.000000 5.221057 -0.500000
v -68.000000 -0.082940 0.500000
v -68.000000 2.596821 -0.500000
v -68.000000 -0.082940 -0.500000
v -68.000000 2.596821 0.500000
vn -0.7647 0.6444 -0.0000
vn -0.0000 -0.0000 1.0000
vn -1.0000 -0.0000 -0.0000
vn -0.0000 -1.0000 -0.0000
vn 1.0000 -0.0000 -0.0000
vn -0.0000 -0.0000 -1.0000
vn 0.5485 0.8361 -0.0000
vn 0.6608 0.7505 -0.0000
vn 0.3691 0.9294 -0.0000
vn 0.1866 0.9824 -0.0000
vn -0.7405 0.6721 -0.0000
vn -0.5612 0.8277 -0.0000
vn 0.8264 0.5631 -0.0000
vn -0.4836 0.8753 -0.0000
vn 0.2329 0.9725 -0.0000
vn -0.2968 0.9550 -0.0000
vn 0.5778 0.8162 -0.0000
vn 0.2663 0.9639 -0.0000
vn 0.1717 0.9852 -0.0000
vn -0.5485 0.8361 -0.0000
vn 0.7259 0.6878 -0.0000
vn 0.6604 0.7509 -0.0000
vn -0.4095 0.9123 -0.0000
vn -0.4290 0.9033 -0.0000
vn -0.6381 0.7700 -0.0000
vn -0.4599 0.8880 -0.0000
vn 0.3117 0.9502 -0.0000
vn -0.6459 0.7635 -0.0000
vn 0.5062 0.8624 -0.0000
vn -0.4477 0.8942 -0.0000
vn 0.6346 0.7729 -0.0000
vn -0.4385 0.8987 -0.0000
vn 0.3828 0.9238 -0.0000
vn -0.2507 0.9681 -0.0000
vn 0.3551 0.9348 -0.0000
vn 0.0173 0.9999 -0.0000
vt 0.867043 0.500000
vt 0.875000 0.500000
vt 0.875000 0.750000
vt 0.867043 0.750000
vt 0.375000 0.992043
vt 0.625000 0.992043
vt 0.625000 1.000000
vt 0.375000 1.000000
vt 0.375000 0.000000
vt 0.625000 0.000000
vt 0.625000 0.250000
vt 0.375000 0.250000
vt 0.367188 0.500000
vt 0.375000 0.500000
vt 0.375000 0.750000
vt 0.367188 0.750000
vt 0.625000 0.500000
vt 0.625000 0.750000
vt 0.375000 0.492188
vt 0.625000 0.492188
vt 0.375000 0.367188
vt 0.625000 0.367188
vt 0.625000 0.375000
vt 0.375000 0.375000
vt 0.242188 0.500000
vt 0.250000 0.500000
vt 0.250000 0.750000
vt 0.242188 0.750000
vt 0.375000 0.867188
vt 0.625000 0.867188
vt 0.625000 0.875000
vt 0.375000 0.875000
vt 0.742188 0.500000
vt 0.750000 0.500000
vt 0.750000 0.750000
vt 0.742188 0.750000
vt 0.179832 0.500000
vt 0.187500 0.500000
vt 0.187500 0.750000
vt 0.179832 0.750000
vt 0.375000 0.304832
vt 0.625000 0.304832
vt 0.625000 0.312500
vt 0.375000 0.312500
vt 0.375000 0.929688
vt 0.625000 0.929688
vt 0.625000 0.937500
vt 0.375000 0.937500
vt 0.804688 0.500000
vt 0.812500 0.500000
vt 0.812500 0.750000
vt 0.804688 0.750000
vt 0.773438 0.500000
vt 0.781250 0.500000
vt 0.781250 0.750000
vt 0.773438 0.750000
vt 0.375000 0.898438
vt 0.625000 0.898438
vt 0.625000 0.906250
vt 0.375000 0.906250
vt 0.210938 0.500000
vt 0.218750 0.500000
vt 0.218750 0.750000
vt 0.210938 0.750000
vt 0.375000 0.335938
vt 0.625000 0.335938
vt 0.625000 0.343750
vt 0.375000 0.343750
vt 0.375000 0.273582
vt 0.625000 0.273582
vt 0.625000 0.281250
vt 0.375000 0.281250
vt 0.148582 0.500000
vt 0.156250 0.500000
vt 0.156250 0.750000
vt 0.148582 0.750000
vt 0.375000 0.960938
vt 0.625000 0.960938
vt 0.625000 0.968750
vt 0.375000 0.968750
vt 0.835938 0.500000
vt 0.843750 0.500000
vt 0.843750 0.750000
vt 0.835938 0.750000
vt 0.820168 0.500000
vt 0.828125 0.500000
vt 0.828125 0.750000
vt 0.820168 0.750000
vt 0.375000 0.945168
vt 0.625000 0.945168
vt 0.625000 0.953125
vt 0.375000 0.953125
vt 0.375000 0.289062
vt 0.625000 0.289062
vt 0.625000 0.296875
vt 0.375000 0.296875
vt 0.164062 0.500000
vt 0.171875 0.500000
vt 0.171875 0.750000
vt 0.164062 0.750000
vt 0.132957 0.500000
vt 0.140625 0.500000
vt 0.140625 0.750000
vt 0.132957 0.750000
vt 0.375000 0.257957
vt 0.625000 0.257957
vt 0.625000 0.265625
vt 0.375000 0.265625
vt 0.375000 0.976418
vt 0.625000 0.976418
vt 0.625000 0.984375
vt 0.375000 0.984375
vt 0.851418 0.500000
vt 0.859375 0.500000
vt 0.859375 0.750000
vt 0.851418 0.750000
vt 0.375000 0.320312
vt 0.625000 0.320312
vt 0.625000 0.328125
vt 0.375000 0.328125
vt 0.195312 0.500000
vt 0.203125 0.500000
vt 0.203125 0.750000
vt 0.195312 0.750000
vt 0.789062 0.500000
vt 0.796875 0.500000
vt 0.796875 0.750000
vt 0.789062 0.750000
vt 0.375000 0.914062
vt 0.625000 0.914062
vt 0.625000 0.921875
vt 0.375000 0.921875
vt 0.375000 0.882812
vt 0.625000 0.882812
vt 0.625000 0.890625
vt 0.375000 0.890625
vt 0.757812 0.500000
vt 0.765625 0.500000
vt 0.765625 0.750000
vt 0.757812 0.750000
vt 0.226562 0.500000
vt 0.234375 0.500000
vt 0.234375 0.750000
vt 0.226562 0.750000
vt 0.375000 0.351562
vt 0.625000 0.351562
vt 0.625000 0.359375
vt 0.375000 0.359375
vt 0.679688 0.500000
vt 0.687500 0.500000
vt 0.687500 0.750000
vt 0.679688 0.750000
vt 0.375000 0.804688
vt 0.625000 0.804688
vt 0.625000 0.812500
vt 0.375000 0.812500
vt 0.375000 0.429761
vt 0.625000 0.429761
vt 0.625000 0.437500
vt 0.375000 0.437500
vt 0.304761 0.500000
vt 0.312500 0.500000
vt 0.312500 0.750000
vt 0.304761 0.750000
vt 0.273438 0.500000
vt 0.281250 0.500000
vt 0.281250 0.750000
vt 0.273438 0.750000
vt 0.375000 0.398438
vt 0.625000 0.398438
vt 0.625000 0.406250
vt 0.375000 0.406250
vt 0.710864 0.500000
vt 0.718750 0.500000
vt 0.718750 0.750000
vt 0.710864 0.750000
vt 0.375000 0.835864
vt 0.625000 0.835864
vt 0.625000 0.843750
vt 0.375000 0.843750
vt 0.375000 0.773438
vt 0.625000 0.773438
vt 0.625000 0.781250
vt 0.375000 0.781250
vt 0.648438 0.500000
vt 0.656250 0.500000
vt 0.656250 0.750000
vt 0.648438 0.750000
vt 0.375000 0.460938
vt 0.625000 0.460938
vt 0.625000 0.468750
vt 0.375000 0.468750
vt 0.335938 0.500000
vt 0.343750 0.500000
vt 0.343750 0.750000
vt 0.335938 0.750000
vt 0.320312 0.500000
vt 0.328125 0.500000
vt 0.328125 0.750000
vt 0.320312 0.750000
vt 0.375000 0.445312
vt 0.625000 0.445312
vt 0.625000 0.453125
vt 0.375000 0.453125
vt 0.375000 0.789062
vt 0.625000 0.789062
vt 0.625000 0.796875
vt 0.375000 0.796875
vt 0.664062 0.500000
vt 0.671875 0.500000
vt 0.671875 0.750000
vt 0.664062 0.750000
vt 0.632812 0.500000
vt 0.640625 0.500000
vt 0.640625 0.750000
vt 0.632812 0.750000
vt 0.375000 0.757812
vt 0.625000 0.757812
vt 0.625000 0.765625
vt 0.375000 0.765625
vt 0.375000 0.476562
vt 0.625000 0.476562
vt 0.625000 0.484375
vt 0.375000 0.484375
vt 0.351562 0.500000
vt 0.359375 0.500000
vt 0.359375 0.750000
vt 0.351562 0.750000
vt 0.375000 0.820239
vt 0.625000 0.820239
vt 0.625000 0.827979
vt 0.375000 0.827979
vt 0.695239 0.500000
vt 0.702979 0.500000
vt 0.702979 0.750000
vt 0.695239 0.750000
vt 0.289136 0.500000
vt 0.297021 0.500000
vt 0.297021 0.750000
vt 0.289136 0.750000
vt 0.375000 0.414136
vt 0.625000 0.414136
vt 0.625000 0.422021
vt 0.375000 0.422021
vt 0.375000 0.382812
vt 0.625000 0.382812
vt 0.625000 0.390625
vt 0.375000 0.390625
vt 0.257812 0.500000
vt 0.265625 0.500000
vt 0.265625 0.750000
vt 0.257812 0.750000
vt 0.726562 0.500000
vt 0.734375 0.500000
vt 0.734375 0.750000
vt 0.726562 0.750000
vt 0.375000 0.851562
vt 0.625000 0.851562
vt 0.625000 0.859375
vt 0.375000 0.859375
vt 0.125000 0.500000
vt 0.125000 0.750000
s 0
usemtl Material
f 336/525/73 269/526/73 271/527/73 334/528/73
f 335/529/74 334/530/74 271/531/74 272/532/74
f 272/533/75 271/534/75 269/535/75 270/536/75
f 395/537/76 266/538/76 268/539/76 393/540/76
f 266/538/77 265/541/77 267/542/77 268/539/77
f 395/543/78 394/544/78 265/541/78 266/538/78
f 363/545/78 362/546/78 276/547/78 273/548/78
f 363/549/76 273/550/76 275/551/76 361/552/76
f 367/553/74 366/554/74 274/555/74 275/556/74
f 368/557/79 276/558/79 274/559/79 366/560/79
f 347/561/76 277/562/76 279/563/76 345/564/76
f 347/565/78 346/566/78 280/567/78 277/568/78
f 351/569/74 350/570/74 278/571/74 279/572/74
f 352/573/80 280/574/80 278/575/80 350/576/80
f 360/577/81 282/578/81 284/579/81 358/580/81
f 359/581/74 358/582/74 284/583/74 281/584/74
f 355/585/76 283/586/76 281/587/76 353/588/76
f 355/589/78 354/590/78 282/591/78 283/592/78
f 339/593/78 338/594/78 288/595/78 285/596/78
f 339/597/76 285/598/76 287/599/76 337/600/76
f 343/601/74 342/602/74 286/603/74 287/604/74
f 344/605/82 288/606/82 286/607/82 342/608/82
f 346/609/83 290/610/83 292/611/83 348/612/83
f 345/613/74 348/614/74 292/615/74 289/616/74
f 341/617/78 344/618/78 290/619/78 291/620/78
f 341/621/76 291/622/76 289/623/76 343/624/76
f 333/625/76 293/626/76 295/627/76 335/628/76
f 333/629/78 336/630/78 296/631/78 293/632/78
f 337/633/74 340/634/74 294/635/74 295/636/74
f 338/637/84 296/638/84 294/639/84 340/640/84
f 349/641/78 352/642/78 300/643/78 297/644/78
f 349/645/76 297/646/76 299/647/76 351/648/76
f 354/649/85 300/650/85 298/651/85 356/652/85
f 353/653/74 356/654/74 298/655/74 299/656/74
f 361/657/74 364/658/74 304/659/74 301/660/74
f 362/661/86 302/662/86 304/663/86 364/664/86
f 357/665/76 303/666/76 301/667/76 359/668/76
f 357/669/78 360/670/78 302/671/78 303/672/78
f 384/673/86 306/674/86 308/675/86 382/676/86
f 383/677/74 382/678/74 308/679/74 305/680/74
f 379/681/78 378/682/78 306/683/78 307/684/78
f 379/685/76 307/686/76 305/687/76 377/688/76
f 371/689/76 309/690/76 311/691/76 369/692/76
f 371/693/78 370/694/78 312/695/78 309/696/78
f 376/697/87 312/698/87 310/699/87 374/700/87
f 375/701/74 374/702/74 310/703/74 311/704/74
f 391/705/74 390/706/74 316/707/74 313/708/74
f 392/709/88 314/710/88 316/711/88 390/712/88
f 387/713/78 386/714/78 314/715/78 315/716/78
f 387/717/76 315/718/76 313/719/76 385/720/76
f 381/721/76 317/722/76 319/723/76 383/724/76
f 381/725/78 384/726/78 320/727/78 317/728/78
f 385/729/74 388/730/74 318/731/74 319/732/74
f 386/733/89 320/734/89 318/735/89 388/736/89
f 394/737/90 322/738/90 324/739/90 396/740/90
f 393/741/74 396/742/74 324/743/74 321/744/74
f 389/745/78 392/746/78 322/747/78 323/748/78
f 389/749/76 323/750/76 321/751/76 391/752/76
f 377/753/74 380/754/74 328/755/74 325/756/74
f 378/757/91 326/758/91 328/759/91 380/760/91
f 373/761/76 327/762/76 325/763/76 375/764/76
f 373/765/78 376/766/78 326/767/78 327/768/78
f 365/769/78 368/770/78 332/771/78 329/772/78
f 365/773/76 329/774/76 331/775/76 367/776/76
f 370/777/92 332/778/92 330/779/92 372/780/92
f 369/781/74 372/782/74 330/783/74 331/784/74
f 270/536/78 269/535/78 336/630/78 333/629/78
f 270/785/76 333/625/76 335/628/76 272/786/76
f 295/636/74 294/635/74 334/530/74 335/529/74
f 296/638/93 336/525/93 334/528/93 294/639/93
f 288/606/94 338/637/94 340/640/94 286/607/94
f 287/604/74 286/603/74 340/634/74 337/633/74
f 293/626/76 339/597/76 337/600/76 295/627/76
f 293/632/78 296/631/78 338/594/78 339/593/78
f 285/598/76 341/621/76 343/624/76 287/599/76
f 285/596/78 288/595/78 344/618/78 341/617/78
f 290/610/95 344/605/95 342/608/95 292/611/95
f 289/616/74 292/615/74 342/602/74 343/601/74
f 279/572/74 278/571/74 348/614/74 345/613/74
f 280/574/96 346/609/96 348/612/96 278/575/96
f 291/620/78 290/619/78 346/566/78 347/565/78
f 291/622/76 347/561/76 345/564/76 289/623/76
f 277/562/76 349/645/76 351/648/76 279/563/76
f 277/568/78 280/567/78 352/642/78 349/641/78
f 300/650/97 352/573/97 350/576/97 298/651/97
f 299/656/74 298/655/74 350/570/74 351/569/74
f 281/584/74 284/583/74 356/654/74 353/653/74
f 282/578/98 354/649/98 356/652/98 284/579/98
f 297/644/78 300/643/78 354/590/78 355/589/78
f 297/646/76 355/585/76 353/588/76 299/647/76
f 283/592/78 282/591/78 360/670/78 357/669/78
f 283/586/76 357/665/76 359/668/76 281/587/76
f 301/660/74 304/659/74 358/582/74 359/581/74
f 302/662/99 360/577/99 358/580/99 304/663/99
f 276/558/100 362/661/100 364/664/100 274/559/100
f 275/556/74 274/555/74 364/658/74 361/657/74
f 303/666/76 363/549/76 361/552/76 301/667/76
f 303/672/78 302/671/78 362/546/78 363/545/78
f 273/550/76 365/773/76 367/776/76 275/551/76
f 273/548/78 276/547/78 368/770/78 365/769/78
f 332/778/101 368/557/101 366/560/101 330/779/101
f 331/784/74 330/783/74 366/554/74 367/553/74
f 311/704/74 310/703/74 372/782/74 369/781/74
f 312/698/102 370/777/102 372/780/102 310/699/102
f 329/772/78 332/771/78 370/694/78 371/693/78
f 329/774/76 371/689/76 369/692/76 331/775/76
f 309/696/78 312/695/78 376/766/78 373/765/78
f 309/690/76 373/761/76 375/764/76 311/691/76
f 325/756/74 328/755/74 374/702/74 375/701/74
f 326/758/103 376/697/103 374/700/103 328/759/103
f 306/674/104 378/757/104 380/760/104 308/675/104
f 305/680/74 308/679/74 380/754/74 377/753/74
f 327/762/76 379/685/76 377/688/76 325/763/76
f 327/768/78 326/767/78 378/682/78 379/681/78
f 307/684/78 306/683/78 384/726/78 381/725/78
f 307/686/76 381/721/76 383/724/76 305/687/76
f 319/732/74 318/731/74 382/678/74 383/677/74
f 320/734/105 384/673/105 382/676/105 318/735/105
f 314/710/106 386/733/106 388/736/106 316/711/106
f 313/708/74 316/707/74 388/730/74 385/729/74
f 317/722/76 387/717/76 385/720/76 319/723/76
f 317/728/78 320/727/78 386/714/78 387/713/78
f 315/718/76 389/749/76 391/752/76 313/719/76
f 315/716/78 314/715/78 392/746/78 389/745/78
f 322/738/107 392/709/107 390/712/107 324/739/107
f 321/744/74 324/743/74 390/706/74 391/705/74
f 268/539/74 267/542/74 396/742/74 393/741/74
f 265/541/108 394/737/108 396/740/108 267/542/108
f 323/748/78 322/747/78 394/544/78 395/543/78
f 323/750/76 395/537/76 393/540/76 321/751/76
o Cube.003
v -192.000000 2.527762 -0.500000
v -192.000000 -0.082940 -0.500000
v -192.000000 2.527762 0.500000
v -192.000000 -0.082940 0.500000
v -320.000000 2.527762 -0.500000
v -320.000000 -0.082940 -0.500000
v -320.000000 2.527762 0.500000
v -320.000000 -0.082940 0.500000
v -256.000000 -0.082940 -0.500000
v -256.000000 8.604940 0.500000
v -256.000000 -0.082940 0.500000
v -256.000000 8.604940 -0.500000
v -288.000000 -0.082940 -0.500000
v -288.000000 9.917060 0.500000
v -288.000000 -0.082940 0.500000
v -288.000000 9.917060 -0.500000
v -272.000000 -0.082940 0.500000
v -272.000000 5.911646 -0.500000
v -272.000000 -0.082940 -0.500000
v -272.000000 5.911646 0.500000
v -304.000000 -0.082940 -0.500000
v -304.000000 2.527762 0.500000
v -304.000000 -0.082940 0.500000
v -304.000000 2.527762 -0.500000
v -296.000000 -0.082940 0.500000
v -296.000000 3.563645 -0.500000
v -296.000000 -0.082940 -0.500000
v -296.000000 3.563645 0.500000
v -312.000000 -0.082940 -0.500000
v -312.000000 3.218351 0.500000
v -312.000000 -0.082940 0.500000
v -312.000000 3.218351 -0.500000
v -280.000000 -0.082940 -0.500000
v -280.000000 9.709883 0.500000
v -280.000000 -0.082940 0.500000
v -280.000000 9.709883 -0.500000
v -264.000000 -0.082940 0.500000
v -264.000000 3.011174 -0.500000
v -264.000000 -0.082940 -0.500000
v -264.000000 3.011174 0.500000
v -224.000000 -0.082940 0.500000
v -224.000000 5.221057 -0.500000
v -224.000000 -0.082940 -0.500000
v -224.000000 5.221057 0.500000
v -240.000000 -0.082940 -0.500000
v -240.000000 8.259647 0.500000
v -240.000000 -0.082940 0.500000
v -240.000000 8.259647 -0.500000
v -208.000000 -0.082940 0.500000
v -208.000000 3.977998 -0.500000
v -208.000000 -0.082940 -0.500000
v -208.000000 3.977998 0.500000
v -216.000000 -0.082940 -0.500000
v -216.000000 5.773529 0.500000
v -216.000000 -0.082940 0.500000
v -216.000000 5.773529 -0.500000
v -200.000000 -0.082940 0.500000
v -200.000000 3.701763 -0.500000
v -200.000000 -0.082940 -0.500000
v -200.000000 3.701763 0.500000
v -231.925232 -0.082940 0.500000
v -231.925232 3.977998 -0.500000
v -231.925232 -0.082940 -0.500000
v -231.925232 3.977998 0.500000
v -248.000000 -0.082940 -0.500000
v -248.000000 3.632704 0.500000
v -248.000000 -0.082940 0.500000
v -248.000000 3.632704 -0.500000
v -315.925934 -0.082940 -0.500000
v -315.925934 7.361882 0.500000
v -315.925934 -0.082940 0.500000
v -315.925934 7.361882 -0.500000
v -307.925934 -0.082940 0.500000
v -307.925934 5.980705 -0.500000
v -307.925934 -0.082940 -0.500000
v -307.925934 5.980705 0.500000
v -300.000000 -0.082940 -0.500000
v -300.000000 1.768115 0.500000
v -300.000000 -0.082940 0.500000
v -300.000000 1.768115 -0.500000
v -291.925934 -0.082940 0.500000
v -291.925934 8.052471 -0.500000
v -291.925934 -0.082940 -0.500000
v -291.925934 8.052471 0.500000
v -284.000000 -0.082940 -0.500000
v -284.000000 6.395059 0.500000
v -284.000000 -0.082940 0.500000
v -284.000000 6.395059 -0.500000
v -276.000000 -0.082940 0.500000
v -276.000000 3.839880 -0.500000
v -276.000000 -0.082940 -0.500000
v -276.000000 3.839880 0.500000
v -268.000000 -0.082940 -0.500000
v -268.000000 4.323293 0.500000
v -268.000000 -0.082940 0.500000
v -268.000000 4.323293 -0.500000
v -260.000000 -0.082940 0.500000
v -260.000000 5.221057 -0.500000
v -260.000000 -0.082940 -0.500000
v -260.000000 5.221057 0.500000
v -252.000000 -0.082940 -0.500000
v -252.000000 5.980705 0.500000
v -252.000000 -0.082940 0.500000
v -252.000000 5.980705 -0.500000
v -244.000000 -0.082940 0.500000
v -244.000000 6.256941 -0.500000
v -244.000000 -0.082940 -0.500000
v -244.000000 6.256941 0.500000
v -235.962616 -0.082940 -0.500000
v -235.962616 7.292823 0.500000
v -235.962616 -0.082940 0.500000
v -235.962616 7.292823 -0.500000
v -227.962616 -0.082940 0.500000
v -227.962616 3.287410 -0.500000
v -227.962616 -0.082940 -0.500000
v -227.962616 3.287410 0.500000
v -220.000000 -0.082940 -0.500000
v -220.000000 7.430941 0.500000
v -220.000000 -0.082940 0.500000
v -220.000000 7.430941 -0.500000
v -212.000000 -0.082940 0.500000
v -212.000000 2.942116 -0.500000
v -212.000000 -0.082940 -0.500000
v -212.000000 2.942116 0.500000
v -204.000000 -0.082940 -0.500000
v -204.000000 5.221057 0.500000
v -204.000000 -0.082940 0.500000
v -204.000000 5.221057 -0.500000
v -196.000000 -0.082940 0.500000
v -196.000000 2.596821 -0.500000
v -196.000000 -0.082940 -0.500000
v -196.000000 2.596821 0.500000
vn -0.7647 0.6444 -0.0000
vn -0.0000 -0.0000 1.0000
vn -1.0000 -0.0000 -0.0000
vn -0.0000 -1.0000 -0.0000
vn 1.0000 -0.0000 -0.0000
vn -0.0000 -0.0000 -1.0000
vn 0.5485 0.8361 -0.0000
vn 0.6608 0.7505 -0.0000
vn 0.3691 0.9294 -0.0000
vn 0.1866 0.9824 -0.0000
vn -0.7405 0.6721 -0.0000
vn -0.5612 0.8277 -0.0000
vn 0.8264 0.5631 -0.0000
vn -0.4836 0.8753 -0.0000
vn 0.2329 0.9725 -0.0000
vn -0.2968 0.9550 -0.0000
vn 0.5778 0.8162 -0.0000
vn 0.2663 0.9639 -0.0000
vn 0.1717 0.9852 -0.0000
vn -0.5485 0.8361 -0.0000
vn 0.7259 0.6878 -0.0000
vn 0.6604 0.7509 -0.0000
vn -0.4095 0.9123 -0.0000
vn -0.4290 0.9033 -0.0000
vn -0.6381 0.7700 -0.0000
vn -0.4599 0.8880 -0.0000
vn 0.3117 0.9502 -0.0000
vn -0.6459 0.7635 -0.0000
vn 0.5062 0.8624 -0.0000
vn -0.4477 0.8942 -0.0000
vn 0.6346 0.7729 -0.0000
vn -0.4385 0.8987 -0.0000
vn 0.3828 0.9238 -0.0000
vn -0.2507 0.9681 -0.0000
vn 0.3551 0.9348 -0.0000
vn 0.0173 0.9999 -0.0000
vt 0.867043 0.500000
vt 0.875000 0.500000
vt 0.875000 0.750000
vt 0.867043 0.750000
vt 0.375000 0.992043
vt 0.625000 0.992043
vt 0.625000 1.000000
vt 0.375000 1.000000
vt 0.375000 0.000000
vt 0.625000 0.000000
vt 0.625000 0.250000
vt 0.375000 0.250000
vt 0.367188 0.500000
vt 0.375000 0.500000
vt 0.375000 0.750000
vt 0.367188 0.750000
vt 0.625000 0.500000
vt 0.625000 0.750000
vt 0.375000 0.492188
vt 0.625000 0.492188
vt 0.375000 0.367188
vt 0.625000 0.367188
vt 0.625000 0.375000
vt 0.375000 0.375000
vt 0.242188 0.500000
vt 0.250000 0.500000
vt 0.250000 0.750000
vt 0.242188 0.750000
vt 0.375000 0.867188
vt 0.625000 0.867188
vt 0.625000 0.875000
vt 0.375000 0.875000
vt 0.742188 0.500000
vt 0.750000 0.500000
vt 0.750000 0.750000
vt 0.742188 0.750000
vt 0.179832 0.500000
vt 0.187500 0.500000
vt 0.187500 0.750000
vt 0.179832 0.750000
vt 0.375000 0.304832
vt 0.625000 0.304832
vt 0.625000 0.312500
vt 0.375000 0.312500
vt 0.375000 0.929688
vt 0.625000 0.929688
vt 0.625000 0.937500
vt 0.375000 0.937500
vt 0.804688 0.500000
vt 0.812500 0.500000
vt 0.812500 0.750000
vt 0.804688 0.750000
vt 0.773438 0.500000
vt 0.781250 0.500000
vt 0.781250 0.750000
vt 0.773438 0.750000
vt 0.375000 0.898438
vt 0.625000 0.898438
vt 0.625000 0.906250
vt 0.375000 0.906250
vt 0.210938 0.500000
vt 0.218750 0.500000
vt 0.218750 0.750000
vt 0.210938 0.750000
vt 0.375000 0.335938
vt 0.625000 0.335938
vt 0.625000 0.343750
vt 0.375000 0.343750
vt 0.375000 0.273582
vt 0.625000 0.273582
vt 0.625000 0.281250
vt 0.375000 0.281250
vt 0.148582 0.500000
vt 0.156250 0.500000
vt 0.156250 0.750000
vt 0.148582 0.750000
vt 0.375000 0.960938
vt 0.625000 0.960938
vt 0.625000 0.968750
vt 0.375000 0.968750
vt 0.835938 0.500000
vt 0.843750 0.500000
vt 0.843750 0.750000
vt 0.835938 0.750000
vt 0.820168 0.500000
vt 0.828125 0.500000
vt 0.828125 0.750000
vt 0.820168 0.750000
vt 0.375000 0.945168
vt 0.625000 0.945168
vt 0.625000 0.953125
vt 0.375000 0.953125
vt 0.375000 0.289062
vt 0.625000 0.289062
vt 0.625000 0.296875
vt 0.375000 0.296875
vt 0.164062 0.500000
vt 0.171875 0.500000
vt 0.171875 0.750000
vt 0.164062 0.750000
vt 0.132957 0.500000
vt 0.140625 0.500000
vt 0.140625 0.750000
vt 0.132957 0.750000
vt 0.375000 0.257957
vt 0.625000 0.257957
vt 0.625000 0.265625
vt 0.375000 0.265625
vt 0.375000 0.976418
vt 0.625000 0.976418
vt 0.625000 0.984375
vt 0.375000 0.984375
vt 0.851418 0.500000
vt 0.859375 0.500000
vt 0.859375 0.750000
vt 0.851418 0.750000
vt 0.375000 0.320312
vt 0.625000 0.320312
vt 0.625000 0.328125
vt 0.375000 0.328125
vt 0.195312 0.500000
vt 0.203125 0.500000
vt 0.203125 0.750000
vt 0.195312 0.750000
vt 0.789062 0.500000
vt 0.796875 0.500000
vt 0.796875 0.750000
vt 0.789062 0.750000
vt 0.375000 0.914062
vt 0.625000 0.914062
vt 0.625000 0.921875
vt 0.375000 0.921875
vt 0.375000 0.882812
vt 0.625000 0.882812
vt 0.625000 0.890625
vt 0.375000 0.890625
vt 0.757812 0.500000
vt 0.765625 0.500000
vt 0.765625 0.750000
vt 0.757812 0.750000
vt 0.226562 0.500000
vt 0.234375 0.500000
vt 0.234375 0.750000
vt 0.226562 0.750000
vt 0.375000 0.351562
vt 0.625000 0.351562
vt 0.625000 0.359375
vt 0.375000 0.359375
vt 0.679688 0.500000
vt 0.687500 0.500000
vt 0.687500 0.750000
vt 0.679688 0.750000
vt 0.375000 0.804688
vt 0.625000 0.804688
vt 0.625000 0.812500
vt 0.375000 0.812500
vt 0.375000 0.429761
vt 0.625000 0.429761
vt 0.625000 0.437500
vt 0.375000 0.437500
vt 0.304761 0.500000
vt 0.312500 0.500000
vt 0.312500 0.750000
vt 0.304761 0.750000
vt 0.273438 0.500000
vt 0.281250 0.500000
vt 0.281250 0.750000
vt 0.273438 0.750000
vt 0.375000 0.398438
vt 0.625000 0.398438
vt 0.625000 0.406250
vt 0.375000 0.406250
vt 0.710864 0.500000
vt 0.718750 0.500000
vt 0.718750 0.750000
vt 0.710864 0.750000
vt 0.375000 0.835864
vt 0.625000 0.835864
vt 0.625000 0.843750
vt 0.375000 0.843750
vt 0.375000 0.773438
vt 0.625000 0.773438
vt 0.625000 0.781250
vt 0.375000 0.781250
vt 0.648438 0.500000
vt 0.656250 0.500000
vt 0.656250 0.750000
vt 0.648438 0.750000
vt 0.375000 0.460938
vt 0.625000 0.460938
vt 0.625000 0.468750
vt 0.375000 0.468750
vt 0.335938 0.500000
vt 0.343750 0.500000
vt 0.343750 0.750000
vt 0.335938 0.750000
vt 0.320312 0.500000
vt 0.328125 0.500000
vt 0.328125 0.750000
vt 0.320312 0.750000
vt 0.375000 0.445312
vt 0.625000 0.445312
vt 0.625000 0.453125
vt 0.375000 0.453125
vt 0.375000 0.789062
vt 0.625000 0.789062
vt 0.625000 0.796875
vt 0.375000 0.796875
vt 0.664062 0.500000
vt 0.671875 0.500000
vt 0.671875 0.750000
vt 0.664062 0.750000
vt 0.632812 0.500000
vt 0.640625 0.500000
vt 0.640625 0.750000
vt 0.632812 0.750000
vt 0.375000 0.757812
vt 0.625000 0.757812
vt 0.625000 0.765625
vt 0.375000 0.765625
vt 0.375000 0.476562
vt 0.625000 0.476562
vt 0.625000 0.484375
vt 0.375000 0.484375
vt 0.351562 0.500000
vt 0.359375 0.500000
vt 0.359375 0.750000
vt 0.351562 0.750000
vt 0.375000 0.820239
vt 0.625000 0.820239
vt 0.625000 0.827979
vt 0.375000 0.827979
vt 0.695239 0.500000
vt 0.702979 0.500000
vt 0.702979 0.750000
vt 0.695239 0.750000
vt 0.289136 0.500000
vt 0.297021 0.500000
vt 0.297021 0.750000
vt 0.289136 0.750000
vt 0.375000 0.414136
vt 0.625000 0.414136
vt 0.625000 0.422021
vt 0.375000 0.422021
vt 0.375000 0.382812
vt 0.625000 0.382812
vt 0.625000 0.390625
vt 0.375000 0.390625
vt 0.257812 0.500000
vt 0.265625 0.500000
vt 0.265625 0.750000
vt 0.257812 0.750000
vt 0.726562 0.500000
vt 0.734375 0.500000
vt 0.734375 0.750000
vt 0.726562 0.750000
vt 0.375000 0.851562
vt 0.625000 0.851562
vt 0.625000 0.859375
vt 0.375000 0.859375
vt 0.125000 0.500000
vt 0.125000 0.750000
s 0
usemtl Material
f 468/787/109 401/788/109 403/789/109 466/790/109
f 467/791/110 466/792/110 403/793/110 404/794/110
f 404/795/111 403/796/111 401/797/111 402/798/111
f 527/799/112 398/800/112 400/801/112 525/802/112
f 398/800/113 397/803/113 399/804/113 400/801/113
f 527/805/114 526/806/114 397/803/114 398/800/114
f 495/807/114 494/808/114 408/809/114 405/810/114
f 495/811/112 405/812/112 407/813/112 493/814/112
f 499/815/110 498/816/110 406/817/110 407/818/110
f 500/819/115 408/820/115 406/821/115 498/822/115
f 479/823/112 409/824/112 411/825/112 477/826/112
f 479/827/114 478/828/114 412/829/114 409/830/114
f 483/831/110 482/832/110 410/833/110 411/834/110
f 484/835/116 412/836/116 410/837/116 482/838/116
f 492/839/117 414/840/117 416/841/117 490/842/117
f 491/843/110 490/844/110 416/845/110 413/846/110
f 487/847/112 415/848/112 413/849/112 485/850/112
f 487/851/114 486/852/114 414/853/114 415/854/114
f 471/855/114 470/856/114 420/857/114 417/858/114
f 471/859/112 417/860/112 419/861/112 469/862/112
f 475/863/110 474/864/110 418/865/110 419/866/110
f 476/867/118 420/868/118 418/869/118 474/870/118
f 478/871/119 422/872/119 424/873/119 480/874/119
f 477/875/110 480/876/110 424/877/110 421/878/110
f 473/879/114 476/880/114 422/881/114 423/882/114
f 473/883/112 423/884/112 421/885/112 475/886/112
f 465/887/112 425/888/112 427/889/112 467/890/112
f 465/891/114 468/892/114 428/893/114 425/894/114
f 469/895/110 472/896/110 426/897/110 427/898/110
f 470/899/120 428/900/120 426/901/120 472/902/120
f 481/903/114 484/904/114 432/905/114 429/906/114
f 481/907/112 429/908/112 431/909/112 483/910/112
f 486/911/121 432/912/121 430/913/121 488/914/121
f 485/915/110 488/916/110 430/917/110 431/918/110
f 493/919/110 496/920/110 436/921/110 433/922/110
f 494/923/122 434/924/122 436/925/122 496/926/122
f 489/927/112 435/928/112 433/929/112 491/930/112
f 489/931/114 492/932/114 434/933/114 435/934/114
f 516/935/122 438/936/122 440/937/122 514/938/122
f 515/939/110 514/940/110 440/941/110 437/942/110
f 511/943/114 510/944/114 438/945/114 439/946/114
f 511/947/112 439/948/112 437/949/112 509/950/112
f 503/951/112 441/952/112 443/953/112 501/954/112
f 503/955/114 502/956/114 444/957/114 441/958/114
f 508/959/123 444/960/123 442/961/123 506/962/123
f 507/963/110 506/964/110 442/965/110 443/966/110
f 523/967/110 522/968/110 448/969/110 445/970/110
f 524/971/124 446/972/124 448/973/124 522/974/124
f 519/975/114 518/976/114 446/977/114 447/978/114
f 519/979/112 447/980/112 445/981/112 517/982/112
f 513/983/112 449/984/112 451/985/112 515/986/112
f 513/987/114 516/988/114 452/989/114 449/990/114
f 517/991/110 520/992/110 450/993/110 451/994/110
f 518/995/125 452/996/125 450/997/125 520/998/125
f 526/999/126 454/1000/126 456/1001/126 528/1002/126
f 525/1003/110 528/1004/110 456/1005/110 453/1006/110
f 521/1007/114 524/1008/114 454/1009/114 455/1010/114
f 521/1011/112 455/1012/112 453/1013/112 523/1014/112
f 509/1015/110 512/1016/110 460/1017/110 457/1018/110
f 510/1019/127 458/1020/127 460/1021/127 512/1022/127
f 505/1023/112 459/1024/112 457/1025/112 507/1026/112
f 505/1027/114 508/1028/114 458/1029/114 459/1030/114
f 497/1031/114 500/1032/114 464/1033/114 461/1034/114
f 497/1035/112 461/1036/112 463/1037/112 499/1038/112
f 502/1039/128 464/1040/128 462/1041/128 504/1042/128
f 501/1043/110 504/1044/110 462/1045/110 463/1046/110
f 402/798/114 401/797/114 468/892/114 465/891/114
f 402/1047/112 465/887/112 467/890/112 404/1048/112
f 427/898/110 426/897/110 466/792/110 467/791/110
f 428/900/129 468/787/129 466/790/129 426/901/129
f 420/868/130 470/899/130 472/902/130 418/869/130
f 419/866/110 418/865/110 472/896/110 469/895/110
f 425/888/112 471/859/112 469/862/112 427/889/112
f 425/894/114 428/893/114 470/856/114 471/855/114
f 417/860/112 473/883/112 475/886/112 419/861/112
f 417/858/114 420/857/114 476/880/114 473/879/114
f 422/872/131 476/867/131 474/870/131 424/873/131
f 421/878/110 424/877/110 474/864/110 475/863/110
f 411/834/110 410/833/110 480/876/110 477/875/110
f 412/836/132 478/871/132 480/874/132 410/837/132
f 423/882/114 422/881/114 478/828/114 479/827/114
f 423/884/112 479/823/112 477/826/112 421/885/112
f 409/824/112 481/907/112 483/910/112 411/825/112
f 409/830/114 412/829/114 484/904/114 481/903/114
f 432/912/133 484/835/133 482/838/133 430/913/133
f 431/918/110 430/917/110 482/832/110 483/831/110
f 413/846/110 416/845/110 488/916/110 485/915/110
f 414/840/134 486/911/134 488/914/134 416/841/134
f 429/906/114 432/905/114 486/852/114 487/851/114
f 429/908/112 487/847/112 485/850/112 431/909/112
f 415/854/114 414/853/114 492/932/114 489/931/114
f 415/848/112 489/927/112 491/930/112 413/849/112
f 433/922/110 436/921/110 490/844/110 491/843/110
f 434/924/135 492/839/135 490/842/135 436/925/135
f 408/820/136 494/923/136 496/926/136 406/821/136
f 407/818/110 406/817/110 496/920/110 493/919/110
f 435/928/112 495/811/112 493/814/112 433/929/112
f 435/934/114 434/933/114 494/808/114 495/807/114
f 405/812/112 497/1035/112 499/1038/112 407/813/112
f 405/810/114 408/809/114 500/1032/114 497/1031/114
f 464/1040/137 500/819/137 498/822/137 462/1041/137
f 463/1046/110 462/1045/110 498/816/110 499/815/110
f 443/966/110 442/965/110 504/1044/110 501/1043/110
f 444/960/138 502/1039/138 504/1042/138 442/961/138
f 461/1034/114 464/1033/114 502/956/114 503/955/114
f 461/1036/112 503/951/112 501/954/112 463/1037/112
f 441/958/114 444/957/114 508/1028/114 505/1027/114
f 441/952/112 505/1023/112 507/1026/112 443/953/112
f 457/1018/110 460/1017/110 506/964/110 507/963/110
f 458/1020/139 508/959/139 506/962/139 460/1021/139
f 438/936/140 510/1019/140 512/1022/140 440/937/140
f 437/942/110 440/941/110 512/1016/110 509/1015/110
f 459/1024/112 511/947/112 509/950/112 457/1025/112
f 459/1030/114 458/1029/114 510/944/114 511/943/114
f 439/946/114 438/945/114 516/988/114 513/987/114
f 439/948/112 513/983/112 515/986/112 437/949/112
f 451/994/110 450/993/110 514/940/110 515/939/110
f 452/996/141 516/935/141 514/938/141 450/997/141
f 446/972/142 518/995/142 520/998/142 448/973/142
f 445/970/110 448/969/110 520/992/110 517/991/110
f 449/984/112 519/979/112 517/982/112 451/985/112
f 449/990/114 452/989/114 518/976/114 519/975/114
f 447/980/112 521/1011/112 523/1014/112 445/981/112
f 447/978/114 446/977/114 524/1008/114 521/1007/114
f 454/1000/143 524/971/143 522/974/143 456/1001/143
f 453/1006/110 456/1005/110 522/968/110 523/967/110
f 400/801/110 399/804/110 528/1004/110 525/1003/110
f 397/803/144 526/999/144 528/1002/144 399/804/144
f 455/1010/114 454/1009/114 526/806/114 527/805/114
f 455/1012/112 527/799/112 525/802/112 453/1013/112
o Cube.004
v 320.000000 2.527762 -0.500000
v 320.000000 -0.082940 -0.500000
v 320.000000 2.527762 0.500000
v 320.000000 -0.082940 0.500000
v 192.000000 2.527762 -0.500000
v 192.000000 -0.082940 -0.500000
v 192.000000 2.527762 0.500000
v 192.000000 -0.082940 0.500000
v 256.000000 -0.082940 -0.500000
v 256.000000 8.604940 0.500000
v 256.000000 -0.082940 0.500000
v 256.000000 8.604940 -0.500000
v 224.000000 -0.082940 -0.500000
v 224.000000 9.917060 0.500000
v 224.000000 -0.082940 0.500000
v 224.000000 9.917060 -0.500000
v 240.000000 -0.082940 0.500000
v 240.000000 5.911646 -0.500000
v 240.000000 -0.082940 -0.500000
v 240.000000 5.911646 0.500000
v 208.000000 -0.082940 -0.500000
v 208.000000 2.527762 0.500000
v 208.000000 -0.082940 0.500000
v 208.000000 2.527762 -0.500000
v 216.000000 -0.082940 0.500000
v 216.000000 3.563645 -0.500000
v 216.000000 -0.082940 -0.500000
v 216.000000 3.563645 0.500000
v 200.000000 -0.082940 -0.500000
v 200.000000 3.218351 0.500000
v 200.000000 -0.082940 0.500000
v 200.000000 3.218351 -0.500000
v 232.000000 -0.082940 -0.500000
v 232.000000 9.709883 0.500000
v 232.000000 -0.082940 0.500000
v 232.000000 9.709883 -0.500000
v 248.000000 -0.082940 0.500000
v 248.000000 3.011174 -0.500000
v 248.000000 -0.082940 -0.500000
v 248.000000 3.011174 0.500000
v 288.000000 -0.082940 0.500000
v 288.000000 5.221057 -0.500000
v 288.000000 -0.082940 -0.500000
v 288.000000 5.221057 0.500000
v 272.000000 -0.082940 -0.500000
v 272.000000 8.259647 0.500000
v 272.000000 -0.082940 0.500000
v 272.000000 8.259647 -0.500000
v 304.000000 -0.082940 0.500000
v 304.000000 3.977998 -0.500000
v 304.000000 -0.082940 -0.500000
v 304.000000 3.977998 0.500000
v 296.000000 -0.082940 -0.500000
v 296.000000 5.773529 0.500000
v 296.000000 -0.082940 0.500000
v 296.000000 5.773529 -0.500000
v 312.000000 -0.082940 0.500000
v 312.000000 3.701763 -0.500000
v 312.000000 -0.082940 -0.500000
v 312.000000 3.701763 0.500000
v 280.074768 -0.082940 0.500000
v 280.074768 3.977998 -0.500000
v 280.074768 -0.082940 -0.500000
v 280.074768 3.977998 0.500000
v 264.000000 -0.082940 -0.500000
v 264.000000 3.632704 0.500000
v 264.000000 -0.082940 0.500000
v 264.000000 3.632704 -0.500000
v 196.074066 -0.082940 -0.500000
v 196.074066 7.361882 0.500000
v 196.074066 -0.082940 0.500000
v 196.074066 7.361882 -0.500000
v 204.074066 -0.082940 0.500000
v 204.074066 5.980705 -0.500000
v 204.074066 -0.082940 -0.500000
v 204.074066 5.980705 0.500000
v 212.000000 -0.082940 -0.500000
v 212.000000 1.768115 0.500000
v 212.000000 -0.082940 0.500000
v 212.000000 1.768115 -0.500000
v 220.074066 -0.082940 0.500000
v 220.074066 8.052471 -0.500000
v 220.074066 -0.082940 -0.500000
v 220.074066 8.052471 0.500000
v 228.000000 -0.082940 -0.500000
v 228.000000 6.395059 0.500000
v 228.000000 -0.082940 0.500000
v 228.000000 6.395059 -0.500000
v 236.000000 -0.082940 0.500000
v 236.000000 3.839880 -0.500000
v 236.000000 -0.082940 -0.500000
v 236.000000 3.839880 0.500000
v 244.000000 -0.082940 -0.500000
v 244.000000 4.323293 0.500000
v 244.000000 -0.082940 0.500000
v 244.000000 4.323293 -0.500000
v 252.000000 -0.082940 0.500000
v 252.000000 5.221057 -0.500000
v 252.000000 -0.082940 -0.500000
v 252.000000 5.221057 0.500000
v 260.000000 -0.082940 -0.500000
v 260.000000 5.980705 0.500000
v 260.000000 -0.082940 0.500000
v 260.000000 5.980705 -0.500000
v 268.000000 -0.082940 0.500000
v 268.000000 6.256941 -0.500000
v 268.000000 -0.082940 -0.500000
v 268.000000 6.256941 0.500000
v 276.037384 -0.082940 -0.500000
v 276.037384 7.292823 0.500000
v 276.037384 -0.082940 0.500000
v 276.037384 7.292823 -0.500000
v 284.037384 -0.082940 0.500000
v 284.037384 3.287410 -0.500000
v 284.037384 -0.082940 -0.500000
v 284.037384 3.287410 0.500000
v 292.000000 -0.082940 -0.500000
v 292.000000 7.430941 0.500000
v 292.000000 -0.082940 0.500000
v 292.000000 7.430941 -0.500000
v 300.000000 -0.082940 0.500000
v 300.000000 2.942116 -0.500000
v 300.000000 -0.082940 -0.500000
v 300.000000 2.942116 0.500000
v 308.000000 -0.082940 -0.500000
v 308.000000 5.221057 0.500000
v 308.000000 -0.082940 0.500000
v 308.000000 5.221057 -0.500000
v 316.000000 -0.082940 0.500000
v 316.000000 2.596821 -0.500000
v 316.000000 -0.082940 -0.500000
v 316.000000 2.596821 0.500000
vn -0.7647 0.6444 -0.0000
vn -0.0000 -0.0000 1.0000
vn -1.0000 -0.0000 -0.0000
vn -0.0000 -1.0000 -0.0000
vn 1.0000 -0.0000 -0.0000
vn -0.0000 -0.0000 -1.0000
vn 0.5485 0.8361 -0.0000
vn 0.6608 0.7505 -0.0000
vn 0.3691 0.9294 -0.0000
vn 0.1866 0.9824 -0.0000
vn -0.7405 0.6721 -0.0000
vn -0.5612 0.8277 -0.0000
vn 0.8264 0.5631 -0.0000
vn -0.4836 0.8753 -0.0000
vn 0.2329 0.9725 -0.0000
vn -0.2968 0.9550 -0.0000
vn 0.5778 0.8162 -0.0000
vn 0.2663 0.9639 -0.0000
vn 0.1717 0.9852 -0.0000
vn -0.5485 0.8361 -0.0000
vn 0.7259 0.6878 -0.0000
vn 0.6604 0.7509 -0.0000
vn -0.4095 0.9123 -0.0000
vn -0.4290 0.9033 -0.0000
vn -0.6381 0.7700 -0.0000
vn -0.4599 0.8880 -0.0000
vn 0.3117 0.9502 -0.0000
vn -0.6459 0.7635 -0.0000
vn 0.5062 0.8624 -0.0000
vn -0.4477 0.8942 -0.0000
vn 0.6346 0.7729 -0.0000
vn -0.4385 0.8987 -0.0000
vn 0.3828 0.9238 -0.0000
vn -0.2507 0.9681 -0.0000
vn 0.3551 0.9348 -0.0000
vn 0.0173 0.9999 -0.0000
vt 0.867043 0.500000
vt 0.875000 0.500000
vt 0.875000 0.750000
vt 0.867043 0.750000
vt 0.375000 0.992043
vt 0.625000 0.992043
vt 0.625000 1.000000
vt 0.375000 1.000000
vt 0.375000 0.000000
vt 0.625000 0.000000
vt 0.625000 0.250000
vt 0.375000 0.250000
vt 0.367188 0.500000
vt 0.375000 0.500000
vt 0.375000 0.750000
vt 0.367188 0.750000
vt 0.625000 0.500000
vt 0.625000 0.750000
vt 0.375000 0.492188
vt 0.625000 0.492188
vt 0.375000 0.367188
vt 0.625000 0.367188
vt 0.625000 0.375000
vt 0.375000 0.375000
vt 0.242188 0.500000
vt 0.250000 0.500000
vt 0.250000 0.750000
vt 0.242188 0.750000
vt 0.375000 0.867188
vt 0.625000 0.867188
vt 0.625000 0.875000
vt 0.375000 0.875000
vt 0.742188 0.500000
vt 0.750000 0.500000
vt 0.750000 0.750000
vt 0.742188 0.750000
vt 0.179832 0.500000
vt 0.187500 0.500000
vt 0.187500 0.750000
vt 0.179832 0.750000
vt 0.375000 0.304832
vt 0.625000 0.304832
vt 0.625000 0.312500
vt 0.375000 0.312500
vt 0.375000 0.929688
vt 0.625000 0.929688
vt 0.625000 0.937500
vt 0.375000 0.937500
vt 0.804688 0.500000
vt 0.812500 0.500000
vt 0.812500 0.750000
vt 0.804688 0.750000
vt 0.773438 0.500000
vt 0.781250 0.500000
vt 0.781250 0.750000
vt 0.773438 0.750000
vt 0.375000 0.898438
vt 0.625000 0.898438
vt 0.625000 0.906250
vt 0.375000 0.906250
vt 0.210938 0.500000
vt 0.218750 0.500000
vt 0.218750 0.750000
vt 0.210938 0.750000
vt 0.375000 0.335938
vt 0.625000 0.335938
vt 0.625000 0.343750
vt 0.375000 0.343750
vt 0.375000 0.273582
vt 0.625000 0.273582
vt 0.625000 0.281250
vt 0.375000 0.281250
vt 0.148582 0.500000
vt 0.156250 0.500000
vt 0.156250 0.750000
vt 0.148582 0.750000
vt 0.375000 0.960938
vt 0.625000 0.960938
vt 0.625000 0.968750
vt 0.375000 0.968750
vt 0.835938 0.500000
vt 0.843750 0.500000
vt 0.843750 0.750000
vt 0.835938 0.750000
vt 0.820168 0.500000
vt 0.828125 0.500000
vt 0.828125 0.750000
vt 0.820168 0.750000
vt 0.375000 0.945168
vt 0.625000 0.945168
vt 0.625000 0.953125
vt 0.375000 0.953125
vt 0.375000 0.289062
vt 0.625000 0.289062
vt 0.625000 0.296875
vt 0.375000 0.296875
vt 0.164062 0.500000
vt 0.171875 0.500000
vt 0.171875 0.750000
vt 0.164062 0.750000
vt 0.132957 0.500000
vt 0.140625 0.500000
vt 0.140625 0.750000
vt 0.132957 0.750000
vt 0.375000 0.257957
vt 0.625000 0.257957
vt 0.625000 0.265625
vt 0.375000 0.265625
vt 0.375000 0.976418
vt 0.625000 0.976418
vt 0.625000 0.984375
vt 0.375000 0.984375
vt 0.851418 0.500000
vt 0.859375 0.500000
vt 0.859375 0.750000
vt 0.851418 0.750000
vt 0.375000 0.320312
vt 0.625000 0.320312
vt 0.625000 0.328125
vt 0.375000 0.328125
vt 0.195312 0.500000
vt 0.203125 0.500000
vt 0.203125 0.750000
vt 0.195312 0.750000
vt 0.789062 0.500000
vt 0.796875 0.500000
vt 0.796875 0.750000
vt 0.789062 0.750000
vt 0.375000 0.914062
vt 0.625000 0.914062
vt 0.625000 0.921875
vt 0.375000 0.921875
vt 0.375000 0.882812
vt 0.625000 0.882812
vt 0.625000 0.890625
vt 0.375000 0.890625
vt 0.757812 0.500000
vt 0.765625 0.500000
vt 0.765625 0.750000
vt 0.757812 0.750000
vt 0.226562 0.500000
vt 0.234375 0.500000
vt 0.234375 0.750000
vt 0.226562 0.750000
vt 0.375000 0.351562
vt 0.625000 0.351562
vt 0.625000 0.359375
vt 0.375000 0.359375
vt 0.679688 0.500000
vt 0.687500 0.500000
vt 0.687500 0.750000
vt 0.679688 0.750000
vt 0.375000 0.804688
vt 0.625000 0.804688
vt 0.625000 0.812500
vt 0.375000 0.812500
vt 0.375000 0.429761
vt 0.625000 0.429761
vt 0.625000 0.437500
vt 0.375000 0.437500
vt 0.304761 0.500000
vt 0.312500 0.500000
vt 0.312500 0.750000
vt 0.304761 0.750000
vt 0.273438 0.500000
vt 0.281250 0.500000
vt 0.281250 0.750000
vt 0.273438 0.750000
vt 0.375000 0.398438
vt 0.625000 0.398438
vt 0.625000 0.406250
vt 0.375000 0.406250
vt 0.710864 0.500000
vt 0.718750 0.500000
vt 0.718750 0.750000
vt 0.710864 0.750000
vt 0.375000 0.835864
vt 0.625000 0.835864
vt 0.625000 0.843750
vt 0.375000 0.843750
vt 0.375000 0.773438
vt 0.625000 0.773438
vt 0.625000 0.781250
vt 0.375000 0.781250
vt 0.648438 0.500000
vt 0.656250 0.500000
vt 0.656250 0.750000
vt 0.648438 0.750000
vt 0.375000 0.460938
vt 0.625000 0.460938
vt 0.625000 0.468750
vt 0.375000 0.468750
vt 0.335938 0.500000
vt 0.343750 0.500000
vt 0.343750 0.750000
vt 0.335938 0.750000
vt 0.320312 0.500000
vt 0.328125 0.500000
vt 0.328125 0.750000
vt 0.320312 0.750000
vt 0.375000 0.445312
vt 0.625000 0.445312
vt 0.625000 0.453125
vt 0.375000 0.453125
vt 0.375000 0.789062
vt 0.625000 0.789062
vt 0.625000 0.796875
vt 0.375000 0.796875
vt 0.664062 0.500000
vt 0.671875 0.500000
vt 0.671875 0.750000
vt 0.664062 0.750000
vt 0.632812 0.500000
vt 0.640625 0.500000
vt 0.640625 0.750000
vt 0.632812 0.750000
vt 0.375000 0.757812
vt 0.625000 0.757812
vt 0.625000 0.765625
vt 0.375000 0.765625
vt 0.375000 0.476562
vt 0.625000 0.476562
vt 0.625000 0.484375
vt 0.375000 0.484375
vt 0.351562 0.500000
vt 0.359375 0.500000
vt 0.359375 0.750000
vt 0.351562 0.750000
vt 0.375000 0.820239
vt 0.625000 0.820239
vt 0.625000 0.827979
vt 0.375000 0.827979
vt 0.695239 0.500000
vt 0.702979 0.500000
vt 0.702979 0.750000
vt 0.695239 0.750000
vt 0.289136 0.500000
vt 0.297021 0.500000
vt 0.297021 0.750000
vt 0.289136 0.750000
vt 0.375000 0.414136
vt 0.625000 0.414136
vt 0.625000 0.422021
vt 0.375000 0.422021
vt 0.375000 0.382812
vt 0.625000 0.382812
vt 0.625000 0.390625
vt 0.375000 0.390625
vt 0.257812 0.500000
vt 0.265625 0.500000
vt 0.265625 0.750000
vt 0.257812 0.750000
vt 0.726562 0.500000
vt 0.734375 0.500000
vt 0.734375 0.750000
vt 0.726562 0.750000
vt 0.375000 0.851562
vt 0.625000 0.851562
vt 0.625000 0.859375
vt 0.375000 0.859375
vt 0.125000 0.500000
vt 0.125000 0.750000
s 0
usemtl Material
f 600/1049/145 533/1050/145 535/1051/145 598/1052/145
f 599/1053/146 598/1054/146 535/1055/146 536/1056/146
f 536/1057/147 535/1058/147 533/1059/147 534/1060/147
f 659/1061/148 530/1062/148 532/1063/148 657/1064/148
f 530/1062/149 529/1065/149 531/1066/149 532/1063/149
f 659/1067/150 658/1068/150 529/1065/150 530/1062/150
f 627/1069/150 626/1070/150 540/1071/150 537/1072/150
f 627/1073/148 537/1074/148 539/1075/148 625/1076/148
f 631/1077/146 630/1078/146 538/1079/146 539/1080/146
f 632/1081/151 540/1082/151 538/1083/151 630/1084/151
f 611/1085/148 541/1086/148 543/1087/148 609/1088/148
f 611/1089/150 610/1090/150 544/1091/150 541/1092/150
f 615/1093/146 614/1094/146 542/1095/146 543/1096/146
f 616/1097/152 544/1098/152 542/1099/152 614/1100/152
f 624/1101/153 546/1102/153 548/1103/153 622/1104/153
f 623/1105/146 622/1106/146 548/1107/146 545/1108/146
f 619/1109/148 547/1110/148 545/1111/148 617/1112/148
f 619/1113/150 618/1114/150 546/1115/150 547/1116/150
f 603/1117/150 602/1118/150 552/1119/150 549/1120/150
f 603/1121/148 549/1122/148 551/1123/148 601/1124/148
f 607/1125/146 606/1126/146 550/1127/146 551/1128/146
f 608/1129/154 552/1130/154 550/1131/154 606/1132/154
f 610/1133/155 554/1134/155 556/1135/155 612/1136/155
f 609/1137/146 612/1138/146 556/1139/146 553/1140/146
f 605/1141/150 608/1142/150 554/1143/150 555/1144/150
f 605/1145/148 555/1146/148 553/1147/148 607/1148/148
f 597/1149/148 557/1150/148 559/1151/148 599/1152/148
f 597/1153/150 600/1154/150 560/1155/150 557/1156/150
f 601/1157/146 604/1158/146 558/1159/146 559/1160/146
f 602/1161/156 560/1162/156 558/1163/156 604/1164/156
f 613/1165/150 616/1166/150 564/1167/150 561/1168/150
f 613/1169/148 561/1170/148 563/1171/148 615/1172/148
f 618/1173/157 564/1174/157 562/1175/157 620/1176/157
f 617/1177/146 620/1178/146 562/1179/146 563/1180/146
f 625/1181/146 628/1182/146 568/1183/146 565/1184/146
f 626/1185/158 566/1186/158 568/1187/158 628/1188/158
f 621/1189/148 567/1190/148 565/1191/148 623/1192/148
f 621/1193/150 624/1194/150 566/1195/150 567/1196/150
f 648/1197/158 570/1198/158 572/1199/158 646/1200/158
f 647/1201/146 646/1202/146 572/1203/146 569/1204/146
f 643/1205/150 642/1206/150 570/1207/150 571/1208/150
f 643/1209/148 571/1210/148 569/1211/148 641/1212/148
f 635/1213/148 573/1214/148 575/1215/148 633/1216/148
f 635/1217/150 634/1218/150 576/1219/150 573/1220/150
f 640/1221/159 576/1222/159 574/1223/159 638/1224/159
f 639/1225/146 638/1226/146 574/1227/146 575/1228/146
f 655/1229/146 654/1230/146 580/1231/146 577/1232/146
f 656/1233/160 578/1234/160 580/1235/160 654/1236/160
f 651/1237/150 650/1238/150 578/1239/150 579/1240/150
f 651/1241/148 579/1242/148 577/1243/148 649/1244/148
f 645/1245/148 581/1246/148 583/1247/148 647/1248/148
f 645/1249/150 648/1250/150 584/1251/150 581/1252/150
f 649/1253/146 652/1254/146 582/1255/146 583/1256/146
f 650/1257/161 584/1258/161 582/1259/161 652/1260/161
f 658/1261/162 586/1262/162 588/1263/162 660/1264/162
f 657/1265/146 660/1266/146 588/1267/146 585/1268/146
f 653/1269/150 656/1270/150 586/1271/150 587/1272/150
f 653/1273/148 587/1274/148 585/1275/148 655/1276/148
f 641/1277/146 644/1278/146 592/1279/146 589/1280/146
f 642/1281/163 590/1282/163 592/1283/163 644/1284/163
f 637/1285/148 591/1286/148 589/1287/148 639/1288/148
f 637/1289/150 640/1290/150 590/1291/150 591/1292/150
f 629/1293/150 632/1294/150 596/1295/150 593/1296/150
f 629/1297/148 593/1298/148 595/1299/148 631/1300/148
f 634/1301/164 596/1302/164 594/1303/164 636/1304/164
f 633/1305/146 636/1306/146 594/1307/146 595/1308/146
f 534/1060/150 533/1059/150 600/1154/150 597/1153/150
f 534/1309/148 597/1149/148 599/1152/148 536/1310/148
f 559/1160/146 558/1159/146 598/1054/146 599/1053/146
f 560/1162/165 600/1049/165 598/1052/165 558/1163/165
f 552/1130/166 602/1161/166 604/1164/166 550/1131/166
f 551/1128/146 550/1127/146 604/1158/146 601/1157/146
f 557/1150/148 603/1121/148 601/1124/148 559/1151/148
f 557/1156/150 560/1155/150 602/1118/150 603/1117/150
f 549/1122/148 605/1145/148 607/1148/148 551/1123/148
f 549/1120/150 552/1119/150 608/1142/150 605/1141/150
f 554/1134/167 608/1129/167 606/1132/167 556/1135/167
f 553/1140/146 556/1139/146 606/1126/146 607/1125/146
f 543/1096/146 542/1095/146 612/1138/146 609/1137/146
f 544/1098/168 610/1133/168 612/1136/168 542/1099/168
f 555/1144/150 554/1143/150 610/1090/150 611/1089/150
f 555/1146/148 611/1085/148 609/1088/148 553/1147/148
f 541/1086/148 613/1169/148 615/1172/148 543/1087/148
f 541/1092/150 544/1091/150 616/1166/150 613/1165/150
f 564/1174/169 616/1097/169 614/1100/169 562/1175/169
f 563/1180/146 562/1179/146 614/1094/146 615/1093/146
f 545/1108/146 548/1107/146 620/1178/146 617/1177/146
f 546/1102/170 618/1173/170 620/1176/170 548/1103/170
f 561/1168/150 564/1167/150 618/1114/150 619/1113/150
f 561/1170/148 619/1109/148 617/1112/148 563/1171/148
f 547/1116/150 546/1115/150 624/1194/150 621/1193/150
f 547/1110/148 621/1189/148 623/1192/148 545/1111/148
f 565/1184/146 568/1183/146 622/1106/146 623/1105/146
f 566/1186/171 624/1101/171 622/1104/171 568/1187/171
f 540/1082/172 626/1185/172 628/1188/172 538/1083/172
f 539/1080/146 538/1079/146 628/1182/146 625/1181/146
f 567/1190/148 627/1073/148 625/1076/148 565/1191/148
f 567/1196/150 566/1195/150 626/1070/150 627/1069/150
f 537/1074/148 629/1297/148 631/1300/148 539/1075/148
f 537/1072/150 540/1071/150 632/1294/150 629/1293/150
f 596/1302/173 632/1081/173 630/1084/173 594/1303/173
f 595/1308/146 594/1307/146 630/1078/146 631/1077/146
f 575/1228/146 574/1227/146 636/1306/146 633/1305/146
f 576/1222/174 634/1301/174 636/1304/174 574/1223/174
f 593/1296/150 596/1295/150 634/1218/150 635/1217/150
f 593/1298/148 635/1213/148 633/1216/148 595/1299/148
f 573/1220/150 576/1219/150 640/1290/150 637/1289/150
f 573/1214/148 637/1285/148 639/1288/148 575/1215/148
f 589/1280/146 592/1279/146 638/1226/146 639/1225/146
f 590/1282/175 640/1221/175 638/1224/175 592/1283/175
f 570/1198/176 642/1281/176 644/1284/176 572/1199/176
f 569/1204/146 572/1203/146 644/1278/146 641/1277/146
f 591/1286/148 643/1209/148 641/1212/148 589/1287/148
f 591/1292/150 590/1291/150 642/1206/150 643/1205/150
f 571/1208/150 570/1207/150 648/1250/150 645/1249/150
f 571/1210/148 645/1245/148 647/1248/148 569/1211/148
f 583/1256/146 582/1255/146 646/1202/146 647/1201/146
f 584/1258/177 648/1197/177 646/1200/177 582/1259/177
f 578/1234/178 650/1257/178 652/1260/178 580/1235/178
f 577/1232/146 580/1231/146 652/1254/146 649/1253/146
f 581/1246/148 651/1241/148 649/1244/148 583/1247/148
f 581/1252/150 584/1251/150 650/1238/150 651/1237/150
f 579/1242/148 653/1273/148 655/1276/148 577/1243/148
f 579/1240/150 578/1239/150 656/1270/150 653/1269/150
f 586/1262/179 656/1233/179 654/1236/179 588/1263/179
f 585/1268/146 588/1267/146 654/1230/146 655/1229/146
f 532/1063/146 531/1066/146 660/1266/146 657/1265/146
f 529/1065/180 658/1261/180 660/1264/180 531/1066/180
f 587/1272/150 586/1271/150 658/1068/150 659/1067/150
f 587/1274/148 659/1061/148 657/1064/148 585/1275/148
