# Blender 5.1.1
# www.blender.org
mtllib data/invader_ship.mtl
o Cube
v 0.000000 -4.000000 -0.500000
v 0.000000 4.000000 0.500000
v 0.000000 -4.000000 0.500000
v 0.000000 4.000000 -0.500000
v -4.000000 -4.000000 -0.500000
v -4.000000 -4.000000 0.500000
v -6.000000 -4.000000 -0.500000
v -6.000000 -4.000000 0.500000
v -2.000000 -4.000000 0.500000
v -2.000000 -4.000000 -0.500000
v 4.000000 -4.000000 0.500000
v 4.000000 -4.000000 -0.500000
v 2.000000 -4.000000 -0.500000
v 2.000000 -4.000000 0.500000
v 6.000000 -4.000000 0.500000
v 6.000000 -4.000000 -0.500000
v 0.000000 0.000000 -0.500000
v 0.000000 0.000000 0.500000
v -4.000000 0.000000 -0.500000
v -4.000000 0.000000 0.500000
v -6.000000 0.000000 -0.500000
v -6.000000 0.000000 0.500000
v -2.000000 0.000000 0.500000
v -2.000000 0.000000 -0.500000
v 4.000000 0.000000 0.500000
v 4.000000 0.000000 -0.500000
v 2.000000 0.000000 -0.500000
v 2.000000 0.000000 0.500000
v 6.000000 0.000000 0.500000
v 6.000000 0.000000 -0.500000
v 0.000000 2.000000 -0.500000
v 0.000000 2.000000 0.500000
v 2.000000 2.000000 -0.500000
v 2.000000 2.000000 0.500000
v 0.000000 -2.000000 -0.500000
v 0.000000 -2.000000 0.500000
v -4.000000 -2.000000 -0.500000
v -4.000000 -2.000000 0.500000
v -6.000000 -2.000000 -0.500000
v -6.000000 -2.000000 0.500000
v -2.000000 -2.000000 0.500000
v -2.000000 -2.000000 -0.500000
v 4.000000 -2.000000 0.500000
v 4.000000 -2.000000 -0.500000
v 2.000000 -2.000000 -0.500000
v 2.000000 -2.000000 0.500000
v 6.000000 -2.000000 0.500000
v 6.000000 -2.000000 -0.500000
v 0.000000 3.000000 -0.500000
v 0.000000 3.000000 0.500000
v 2.000000 3.000000 -0.500000
v 2.000000 3.000000 0.500000
v 0.000000 1.000000 -0.500000
v 0.000000 1.000000 0.500000
v -4.000000 1.000000 -0.500000
v -4.000000 1.000000 0.500000
v -2.000000 1.000000 0.500000
v -2.000000 1.000000 -0.500000
v 4.000000 1.000000 0.500000
v 4.000000 1.000000 -0.500000
v 2.000000 1.000000 -0.500000
v 2.000000 1.000000 0.500000
v 6.000000 1.000000 0.500000
v 6.000000 1.000000 -0.500000
v 0.000000 -1.000000 -0.500000
v 0.000000 -1.000000 0.500000
v -4.000000 -1.000000 -0.500000
v -4.000000 -1.000000 0.500000
v -6.000000 -1.000000 -0.500000
v -6.000000 -1.000000 0.500000
v -2.000000 -1.000000 0.500000
v -2.000000 -1.000000 -0.500000
v 4.000000 -1.000000 0.500000
v 4.000000 -1.000000 -0.500000
v 2.000000 -1.000000 -0.500000
v 2.000000 -1.000000 0.500000
v 6.000000 -1.000000 0.500000
v 6.000000 -1.000000 -0.500000
v 0.000000 -3.000000 -0.500000
v 0.000000 -3.000000 0.500000
v -4.000000 -3.000000 -0.500000
v -4.000000 -3.000000 0.500000
v -6.000000 -3.000000 -0.500000
v -6.000000 -3.000000 0.500000
v -2.000000 -3.000000 0.500000
v -2.000000 -3.000000 -0.500000
v 4.000000 -3.000000 0.500000
v 4.000000 -3.000000 -0.500000
v 2.000000 -3.000000 -0.500000
v 2.000000 -3.000000 0.500000
v 6.000000 -3.000000 0.500000
v 6.000000 -3.000000 -0.500000
v -5.000000 -4.000000 0.500000
v -5.000000 -4.000000 -0.500000
v -5.000000 0.000000 0.500000
v -5.000000 0.000000 -0.500000
v -5.000000 -2.000000 -0.500000
v -5.000000 -2.000000 0.500000
v -5.000000 1.000000 -0.500000
v -5.000000 1.000000 0.500000
v -5.000000 -1.000000 -0.500000
v -5.000000 -1.000000 0.500000
v -5.000000 -3.000000 0.500000
v -5.000000 -3.000000 -0.500000
v -3.000000 -4.000000 -0.500000
v -3.000000 -4.000000 0.500000
v -3.000000 0.000000 -0.500000
v -3.000000 0.000000 0.500000
v -3.000000 -2.000000 0.500000
v -3.000000 -2.000000 -0.500000
v -3.000000 1.000000 0.500000
v -3.000000 1.000000 -0.500000
v -3.000000 -1.000000 0.500000
v -3.000000 -1.000000 -0.500000
v -3.000000 -3.000000 -0.500000
v -3.000000 -3.000000 0.500000
v -1.000000 -4.000000 0.500000
v -1.000000 -4.000000 -0.500000
v -1.000000 0.000000 0.500000
v -1.000000 0.000000 -0.500000
v -1.000000 2.000000 0.500000
v -1.000000 2.000000 -0.500000
v -1.000000 -2.000000 -0.500000
v -1.000000 -2.000000 0.500000
v -1.000000 3.000000 0.500000
v -1.000000 3.000000 -0.500000
v -1.000000 1.000000 -0.500000
v -1.000000 1.000000 0.500000
v -1.000000 -1.000000 -0.500000
v -1.000000 -1.000000 0.500000
v -1.000000 -3.000000 0.500000
v -1.000000 -3.000000 -0.500000
v 1.000000 -4.000000 -0.500000
v 1.000000 4.000000 0.500000
v 1.000000 -4.000000 0.500000
v 1.000000 4.000000 -0.500000
v 1.000000 0.000000 -0.500000
v 1.000000 0.000000 0.500000
v 1.000000 2.000000 -0.500000
v 1.000000 2.000000 0.500000
v 1.000000 -2.000000 0.500000
v 1.000000 -2.000000 -0.500000
v 1.000000 3.000000 -0.500000
v 1.000000 3.000000 0.500000
v 1.000000 1.000000 0.500000
v 1.000000 1.000000 -0.500000
v 1.000000 -1.000000 0.500000
v 1.000000 -1.000000 -0.500000
v 1.000000 -3.000000 -0.500000
v 1.000000 -3.000000 0.500000
v 3.000000 -4.000000 0.500000
v 3.000000 -4.000000 -0.500000
v 3.000000 0.000000 0.500000
v 3.000000 0.000000 -0.500000
v 3.000000 -2.000000 -0.500000
v 3.000000 -2.000000 0.500000
v 3.000000 1.000000 -0.500000
v 3.000000 1.000000 0.500000
v 3.000000 -1.000000 -0.500000
v 3.000000 -1.000000 0.500000
v 3.000000 -3.000000 0.500000
v 3.000000 -3.000000 -0.500000
v 5.000000 -4.000000 -0.500000
v 5.000000 -4.000000 0.500000
v 5.000000 0.000000 -0.500000
v 5.000000 0.000000 0.500000
v 5.000000 -2.000000 0.500000
v 5.000000 -2.000000 -0.500000
v 5.000000 1.000000 0.500000
v 5.000000 1.000000 -0.500000
v 5.000000 -1.000000 0.500000
v 5.000000 -1.000000 -0.500000
v 5.000000 -3.000000 -0.500000
v 5.000000 -3.000000 0.500000
v 7.000000 -4.000000 0.500000
v 7.000000 -4.000000 -0.500000
v 7.000000 0.000000 0.500000
v 7.000000 0.000000 -0.500000
v 7.000000 -2.000000 -0.500000
v 7.000000 -2.000000 0.500000
v 7.000000 -1.000000 -0.500000
v 7.000000 -1.000000 0.500000
v 7.000000 -3.000000 0.500000
v 7.000000 -3.000000 -0.500000
vn -0.0000 1.0000 -0.0000
vn -0.0000 -1.0000 -0.0000
vn -0.0000 -0.0000 1.0000
vn -0.0000 -0.0000 -1.0000
vn 1.0000 -0.0000 -0.0000
vn -1.0000 -0.0000 -0.0000
vt 0.531250 0.890625
vt 0.531250 0.359375
vt 0.531250 0.343750
vt 0.531250 0.906250
vt 0.234375 0.500000
vt 0.250000 0.500000
vt 0.250000 0.750000
vt 0.234375 0.750000
vt 0.593750 0.859375
vt 0.625000 0.859375
vt 0.625000 0.875000
vt 0.593750 0.875000
vt 0.734375 0.500000
vt 0.750000 0.500000
vt 0.750000 0.750000
vt 0.734375 0.750000
vt 0.171875 0.500000
vt 0.187500 0.500000
vt 0.187500 0.750000
vt 0.171875 0.750000
vt 0.203125 0.500000
vt 0.218750 0.500000
vt 0.218750 0.750000
vt 0.203125 0.750000
vt 0.296875 0.500000
vt 0.312500 0.500000
vt 0.312500 0.750000
vt 0.296875 0.750000
vt 0.265625 0.500000
vt 0.281250 0.500000
vt 0.281250 0.750000
vt 0.265625 0.750000
vt 0.328125 0.500000
vt 0.343750 0.500000
vt 0.343750 0.750000
vt 0.328125 0.750000
vt 0.468750 0.453125
vt 0.500000 0.453125
vt 0.500000 0.468750
vt 0.468750 0.468750
vt 0.468750 0.765625
vt 0.500000 0.765625
vt 0.500000 0.781250
vt 0.468750 0.781250
vt 0.468750 0.828125
vt 0.500000 0.828125
vt 0.500000 0.843750
vt 0.468750 0.843750
vt 0.468750 0.390625
vt 0.500000 0.390625
vt 0.500000 0.406250
vt 0.468750 0.406250
vt 0.468750 0.421875
vt 0.500000 0.421875
vt 0.500000 0.437500
vt 0.468750 0.437500
vt 0.468750 0.796875
vt 0.500000 0.796875
vt 0.500000 0.812500
vt 0.468750 0.812500
vt 0.468750 0.328125
vt 0.500000 0.328125
vt 0.500000 0.343750
vt 0.468750 0.343750
vt 0.468750 0.890625
vt 0.500000 0.890625
vt 0.500000 0.906250
vt 0.468750 0.906250
vt 0.468750 0.953125
vt 0.500000 0.953125
vt 0.500000 0.968750
vt 0.468750 0.968750
vt 0.406250 0.765625
vt 0.375000 0.765625
vt 0.359375 0.500000
vt 0.406250 0.484375
vt 0.468750 0.921875
vt 0.500000 0.921875
vt 0.500000 0.937500
vt 0.468750 0.937500
vt 0.468750 0.296875
vt 0.500000 0.296875
vt 0.500000 0.312500
vt 0.468750 0.312500
vt 0.468750 0.859375
vt 0.500000 0.859375
vt 0.500000 0.875000
vt 0.468750 0.875000
vt 0.468750 0.359375
vt 0.500000 0.359375
vt 0.500000 0.375000
vt 0.468750 0.375000
vt 0.531250 0.390625
vt 0.562500 0.390625
vt 0.562500 0.406250
vt 0.531250 0.406250
vt 0.531250 0.859375
vt 0.562500 0.859375
vt 0.562500 0.875000
vt 0.531250 0.875000
vt 0.562500 0.359375
vt 0.562500 0.375000
vt 0.531250 0.375000
vt 0.437500 0.484375
vt 0.437500 0.765625
vt 0.468750 0.484375
vt 0.531250 0.328125
vt 0.531250 0.921875
vt 0.531250 0.312500
vt 0.531250 0.937500
vt 0.406250 0.359375
vt 0.437500 0.359375
vt 0.437500 0.375000
vt 0.406250 0.375000
vt 0.406250 0.859375
vt 0.437500 0.859375
vt 0.437500 0.875000
vt 0.406250 0.875000
vt 0.406250 0.296875
vt 0.437500 0.296875
vt 0.437500 0.312500
vt 0.406250 0.312500
vt 0.406250 0.921875
vt 0.437500 0.921875
vt 0.437500 0.937500
vt 0.406250 0.937500
vt 0.500000 0.484375
vt 0.406250 0.953125
vt 0.437500 0.953125
vt 0.437500 0.968750
vt 0.406250 0.968750
vt 0.406250 0.890625
vt 0.437500 0.890625
vt 0.437500 0.906250
vt 0.406250 0.906250
vt 0.406250 0.328125
vt 0.437500 0.328125
vt 0.437500 0.343750
vt 0.406250 0.343750
vt 0.406250 0.796875
vt 0.437500 0.796875
vt 0.437500 0.812500
vt 0.406250 0.812500
vt 0.406250 0.421875
vt 0.437500 0.421875
vt 0.437500 0.437500
vt 0.406250 0.437500
vt 0.406250 0.390625
vt 0.437500 0.390625
vt 0.437500 0.406250
vt 0.406250 0.406250
vt 0.406250 0.828125
vt 0.437500 0.828125
vt 0.437500 0.843750
vt 0.406250 0.843750
vt 0.437500 0.781250
vt 0.406250 0.781250
vt 0.406250 0.453125
vt 0.437500 0.453125
vt 0.437500 0.468750
vt 0.406250 0.468750
vt 0.593750 0.390625
vt 0.593750 0.406250
vt 0.593750 0.359375
vt 0.593750 0.375000
vt 0.531250 0.296875
vt 0.531250 0.796875
vt 0.531250 0.812500
vt 0.531250 0.421875
vt 0.531250 0.437500
vt 0.531250 0.828125
vt 0.531250 0.843750
vt 0.531250 0.453125
vt 0.531250 0.468750
vt 0.531250 0.781250
vt 0.531250 0.953125
vt 0.375000 0.453125
vt 0.375000 0.468750
vt 0.375000 0.781250
vt 0.375000 0.828125
vt 0.375000 0.843750
vt 0.375000 0.390625
vt 0.375000 0.406250
vt 0.375000 0.421875
vt 0.375000 0.437500
vt 0.375000 0.796875
vt 0.375000 0.812500
vt 0.375000 0.328125
vt 0.375000 0.343750
vt 0.375000 0.890625
vt 0.375000 0.906250
vt 0.375000 0.953125
vt 0.375000 0.968750
vt 0.375000 0.921875
vt 0.375000 0.937500
vt 0.375000 0.296875
vt 0.375000 0.312500
vt 0.375000 0.859375
vt 0.375000 0.875000
vt 0.375000 0.359375
vt 0.375000 0.375000
vt 0.500000 0.281250
vt 0.468750 0.281250
vt 0.562500 0.843750
vt 0.593750 0.843750
vt 0.625000 0.375000
vt 0.593750 0.890625
vt 0.562500 0.890625
vt 0.375000 0.281250
vt 0.406250 0.281250
vt 0.437500 0.281250
vt 0.156250 0.500000
vt 0.156250 0.750000
vt 0.625000 0.390625
vt 0.375000 0.484375
vt 0.359375 0.750000
s 0
usemtl Material
f 128/1/1 127/2/1 58/3/1 57/4/1
f 118/5/2 1/6/2 3/7/2 117/8/2
f 144/9/3 134/10/3 2/11/3 50/12/3
f 136/13/1 4/14/1 2/15/1 134/16/1
f 94/17/2 5/18/2 6/19/2 93/20/2
f 105/21/2 10/22/2 9/23/2 106/24/2
f 152/25/2 12/26/2 11/27/2 151/28/2
f 133/29/2 13/30/2 14/31/2 135/32/2
f 163/33/2 16/34/2 15/35/2 164/36/2
f 172/37/4 165/38/4 30/39/4 78/40/4
f 182/41/3 177/42/3 29/43/3 77/44/3
f 160/45/3 153/46/3 28/47/3 76/48/3
f 148/49/4 137/50/4 27/51/4 75/52/4
f 159/53/4 154/54/4 26/55/4 74/56/4
f 171/57/3 166/58/3 25/59/3 73/60/3
f 114/61/4 107/62/4 24/63/4 72/64/4
f 130/65/3 119/66/3 23/67/3 71/68/3
f 102/69/3 95/70/3 22/71/3 70/72/3
f 183/73/5 175/74/5 176/75/5 184/76/5
f 113/77/3 108/78/3 20/79/3 68/80/3
f 101/81/4 96/82/4 19/83/4 67/84/4
f 147/85/3 138/86/3 18/87/3 66/88/3
f 129/89/4 120/90/4 17/91/4 65/92/4
f 146/93/4 139/94/4 33/95/4 61/96/4
f 145/97/3 140/98/3 32/99/3 54/100/3
f 127/2/4 122/101/4 31/102/4 53/103/4
f 184/76/5 179/104/5 180/105/5 183/73/5
f 180/105/5 179/104/5 181/106/5 182/41/5
f 112/107/1 111/108/1 57/4/1 58/3/1
f 111/108/1 112/107/1 55/109/1 56/110/1
f 132/111/4 123/112/4 35/113/4 79/114/4
f 150/115/3 141/116/3 36/117/3 80/118/3
f 104/119/4 97/120/4 37/121/4 81/122/4
f 116/123/3 109/124/3 38/125/3 82/126/3
f 181/106/5 178/127/5 177/42/5 182/41/5
f 103/128/3 98/129/3 40/130/3 84/131/3
f 131/132/3 124/133/3 41/134/3 85/135/3
f 115/136/4 110/137/4 42/138/4 86/139/4
f 174/140/3 167/141/3 43/142/3 87/143/3
f 162/144/4 155/145/4 44/146/4 88/147/4
f 149/148/4 142/149/4 45/150/4 89/151/4
f 161/152/3 156/153/3 46/154/3 90/155/3
f 183/73/3 180/105/3 47/156/3 91/157/3
f 173/158/4 168/159/4 48/160/4 92/161/4
f 139/94/4 143/162/4 51/163/4 33/95/4
f 140/98/3 144/9/3 50/12/3 32/99/3
f 122/101/4 126/164/4 49/165/4 31/102/4
f 120/90/4 127/2/4 53/103/4 17/91/4
f 138/86/3 145/97/3 54/100/3 18/87/3
f 96/82/4 99/166/4 55/109/4 19/83/4
f 108/78/3 111/108/3 56/110/3 20/79/3
f 119/66/3 128/1/3 57/4/3 23/67/3
f 107/62/4 112/107/4 58/3/4 24/63/4
f 166/58/3 169/167/3 59/168/3 25/59/3
f 154/54/4 157/169/4 60/170/4 26/55/4
f 137/50/4 146/93/4 61/96/4 27/51/4
f 153/46/3 158/171/3 62/172/3 28/47/3
f 165/38/4 170/173/4 64/174/4 30/39/4
f 177/42/1 178/127/1 30/39/1 29/43/1
f 29/43/5 30/39/5 64/174/5 63/175/5
f 99/166/1 100/176/1 56/110/1 55/109/1
f 99/166/6 96/82/6 95/70/6 100/176/6
f 123/112/4 129/89/4 65/92/4 35/113/4
f 141/116/3 147/85/3 66/88/3 36/117/3
f 97/120/4 101/81/4 67/84/4 37/121/4
f 109/124/3 113/77/3 68/80/3 38/125/3
f 170/173/1 169/167/1 63/175/1 64/174/1
f 98/129/3 102/69/3 70/72/3 40/130/3
f 124/133/3 130/65/3 71/68/3 41/134/3
f 110/137/4 114/61/4 72/64/4 42/138/4
f 167/141/3 171/57/3 73/60/3 43/142/3
f 155/145/4 159/53/4 74/56/4 44/146/4
f 142/149/4 148/49/4 75/52/4 45/150/4
f 156/153/3 160/45/3 76/48/3 46/154/3
f 180/105/3 182/41/3 77/44/3 47/156/3
f 168/159/4 172/37/4 78/40/4 48/160/4
f 163/177/4 173/158/4 92/161/4 16/178/4
f 175/74/3 183/73/3 91/157/3 15/179/3
f 151/180/3 161/152/3 90/155/3 14/181/3
f 133/182/4 149/148/4 89/151/4 13/183/4
f 152/184/4 162/144/4 88/147/4 12/185/4
f 164/186/3 174/140/3 87/143/3 11/187/3
f 105/188/4 115/136/4 86/139/4 10/189/4
f 117/190/3 131/132/3 85/135/3 9/191/3
f 93/192/3 103/128/3 84/131/3 8/193/3
f 169/167/1 170/173/1 60/170/1 59/168/1
f 106/194/3 116/123/3 82/126/3 6/195/3
f 94/196/4 104/119/4 81/122/4 5/197/4
f 135/198/3 150/115/3 80/118/3 3/199/3
f 118/200/4 132/111/4 79/114/4 1/201/4
f 95/70/1 96/82/1 21/202/1 22/71/1
f 69/203/6 70/72/6 22/71/6 21/202/6
f 158/171/1 59/168/1 60/170/1 157/169/1
f 158/171/1 157/169/1 61/96/1 62/172/1
f 62/172/5 61/96/5 33/95/5 34/204/5
f 34/204/5 33/95/5 51/163/5 52/205/5
f 52/205/1 51/163/1 143/162/1 144/9/1
f 144/9/5 143/162/5 136/13/5 134/10/5
f 2/11/6 4/206/6 49/165/6 50/12/6
f 50/12/1 49/165/1 126/164/1 125/207/1
f 125/207/6 126/164/6 122/101/6 121/208/6
f 122/101/6 127/2/6 128/1/6 121/208/6
f 7/209/4 83/210/4 104/119/4 94/196/4
f 6/195/3 82/126/3 103/128/3 93/192/3
f 38/125/3 68/80/3 102/69/3 98/129/3
f 39/211/4 69/203/4 101/81/4 97/120/4
f 20/79/3 56/110/3 100/176/3 95/70/3
f 82/126/3 38/125/3 98/129/3 103/128/3
f 83/210/4 39/211/4 97/120/4 104/119/4
f 69/203/4 21/202/4 96/82/4 101/81/4
f 68/80/3 20/79/3 95/70/3 102/69/3
f 7/212/2 94/17/2 93/20/2 8/213/2
f 9/191/3 85/135/3 116/123/3 106/194/3
f 5/197/4 81/122/4 115/136/4 105/188/4
f 37/121/4 67/84/4 114/61/4 110/137/4
f 41/134/3 71/68/3 113/77/3 109/124/3
f 19/83/4 55/109/4 112/107/4 107/62/4
f 23/67/3 57/4/3 111/108/3 108/78/3
f 81/122/4 37/121/4 110/137/4 115/136/4
f 85/135/3 41/134/3 109/124/3 116/123/3
f 71/68/3 23/67/3 108/78/3 113/77/3
f 67/84/4 19/83/4 107/62/4 114/61/4
f 5/18/2 105/21/2 106/24/2 6/19/2
f 10/189/4 86/139/4 132/111/4 118/200/4
f 3/199/3 80/118/3 131/132/3 117/190/3
f 36/117/3 66/88/3 130/65/3 124/133/3
f 42/138/4 72/64/4 129/89/4 123/112/4
f 18/87/3 54/100/3 128/1/3 119/66/3
f 24/63/4 58/3/4 127/2/4 120/90/4
f 32/99/3 50/12/3 125/207/3 121/208/3
f 80/118/3 36/117/3 124/133/3 131/132/3
f 86/139/4 42/138/4 123/112/4 132/111/4
f 54/100/3 32/99/3 121/208/3 128/1/3
f 72/64/4 24/63/4 120/90/4 129/89/4
f 66/88/3 18/87/3 119/66/3 130/65/3
f 10/22/2 118/5/2 117/8/2 9/23/2
f 14/181/3 90/155/3 150/115/3 135/198/3
f 1/201/4 79/114/4 149/148/4 133/182/4
f 35/113/4 65/92/4 148/49/4 142/149/4
f 46/154/3 76/48/3 147/85/3 141/116/3
f 17/91/4 53/103/4 146/93/4 137/50/4
f 28/47/3 62/172/3 145/97/3 138/86/3
f 34/204/3 52/205/3 144/9/3 140/98/3
f 31/102/4 49/165/4 143/162/4 139/94/4
f 79/114/4 35/113/4 142/149/4 149/148/4
f 90/155/3 46/154/3 141/116/3 150/115/3
f 62/172/3 34/204/3 140/98/3 145/97/3
f 53/103/4 31/102/4 139/94/4 146/93/4
f 76/48/3 28/47/3 138/86/3 147/85/3
f 65/92/4 17/91/4 137/50/4 148/49/4
f 49/165/4 4/206/4 136/214/4 143/162/4
f 1/6/2 133/29/2 135/32/2 3/7/2
f 13/183/4 89/151/4 162/144/4 152/184/4
f 11/187/3 87/143/3 161/152/3 151/180/3
f 43/142/3 73/60/3 160/45/3 156/153/3
f 45/150/4 75/52/4 159/53/4 155/145/4
f 25/59/3 59/168/3 158/171/3 153/46/3
f 27/51/4 61/96/4 157/169/4 154/54/4
f 87/143/3 43/142/3 156/153/3 161/152/3
f 89/151/4 45/150/4 155/145/4 162/144/4
f 75/52/4 27/51/4 154/54/4 159/53/4
f 73/60/3 25/59/3 153/46/3 160/45/3
f 13/30/2 152/25/2 151/28/2 14/31/2
f 15/179/3 91/157/3 174/140/3 164/186/3
f 12/185/4 88/147/4 173/158/4 163/177/4
f 44/146/4 74/56/4 172/37/4 168/159/4
f 47/156/3 77/44/3 171/57/3 167/141/3
f 26/55/4 60/170/4 170/173/4 165/38/4
f 29/43/3 63/175/3 169/167/3 166/58/3
f 88/147/4 44/146/4 168/159/4 173/158/4
f 91/157/3 47/156/3 167/141/3 174/140/3
f 77/44/3 29/43/3 166/58/3 171/57/3
f 74/56/4 26/55/4 165/38/4 172/37/4
f 12/26/2 163/33/2 164/36/2 11/27/2
f 16/178/4 92/161/4 184/76/4 176/215/4
f 39/211/6 40/130/6 70/72/6 69/203/6
f 83/210/6 84/131/6 40/130/6 39/211/6
f 48/160/4 78/40/4 181/106/4 179/104/4
f 7/212/6 8/213/6 84/131/6 83/210/6
f 92/161/4 48/160/4 179/104/4 184/76/4
f 78/40/4 30/39/4 178/127/4 181/106/4
f 16/34/2 176/75/2 175/216/2 15/35/2
