# Blender 5.1.1
# www.blender.org
mtllib data/invader1.mtl
o Body
v -3.571296 0.000000 -0.500000
v -3.571296 0.000000 0.500000
v -1.571296 0.000000 0.500000
v -1.571296 0.000000 -0.500000
v -3.571296 2.000000 -0.500000
v -3.571296 2.000000 0.500000
v -1.571296 2.000000 0.500000
v -1.571296 2.000000 -0.500000
v -3.571296 -2.000000 -0.500000
v -3.571296 -2.000000 0.500000
v -1.571296 -2.000000 0.500000
v -1.571296 -2.000000 -0.500000
v -3.571296 -1.014706 -0.500000
v -3.571296 -1.014706 0.500000
v -1.571296 -1.014706 0.500000
v -1.571296 -1.014706 -0.500000
v -3.571296 0.985294 -0.500000
v -3.571296 0.985294 0.500000
v -1.571296 0.985294 0.500000
v -1.571296 0.985294 -0.500000
v -2.571296 0.000000 -0.500000
v -2.571296 0.000000 0.500000
v -2.571296 2.000000 -0.500000
v -2.571296 2.000000 0.500000
v -2.571296 -2.000000 0.500000
v -2.571296 -2.000000 -0.500000
v -2.571296 -1.014706 0.500000
v -2.571296 -1.014706 -0.500000
v -2.571296 0.985294 0.500000
v -2.571296 0.985294 -0.500000
v -0.571296 0.000000 0.500000
v -0.571296 0.000000 -0.500000
v -0.571296 2.000000 0.500000
v -0.571296 2.000000 -0.500000
v -0.571296 -2.000000 -0.500000
v -0.571296 -2.000000 0.500000
v -0.571296 -1.014706 -0.500000
v -0.571296 -1.014706 0.500000
v -0.571296 0.985294 -0.500000
v -0.571296 0.985294 0.500000
v 3.571296 0.000000 -0.500000
v 3.571296 0.000000 0.500000
v 1.571296 0.000000 0.500000
v 1.571296 0.000000 -0.500000
v 3.571296 2.000000 -0.500000
v 3.571296 2.000000 0.500000
v 1.571296 2.000000 0.500000
v 1.571296 2.000000 -0.500000
v 3.571296 -2.000000 -0.500000
v 3.571296 -2.000000 0.500000
v 1.571296 -2.000000 0.500000
v 1.571296 -2.000000 -0.500000
v 3.571296 -1.014706 -0.500000
v 3.571296 -1.014706 0.500000
v 1.571296 -1.014706 0.500000
v 1.571296 -1.014706 -0.500000
v 3.571296 0.985294 -0.500000
v 3.571296 0.985294 0.500000
v 1.571296 0.985294 0.500000
v 1.571296 0.985294 -0.500000
v 2.571296 0.000000 -0.500000
v 2.571296 0.000000 0.500000
v 2.571296 2.000000 -0.500000
v 2.571296 2.000000 0.500000
v 2.571296 -2.000000 0.500000
v 2.571296 -2.000000 -0.500000
v 2.571296 -1.014706 0.500000
v 2.571296 -1.014706 -0.500000
v 2.571296 0.985294 0.500000
v 2.571296 0.985294 -0.500000
v 0.571296 0.000000 0.500000
v 0.571296 0.000000 -0.500000
v 0.571296 2.000000 0.500000
v 0.571296 2.000000 -0.500000
v 0.571296 -2.000000 -0.500000
v 0.571296 -2.000000 0.500000
v 0.571296 -1.014706 -0.500000
v 0.571296 -1.014706 0.500000
v 0.571296 0.985294 -0.500000
v 0.571296 0.985294 0.500000
vn -0.0000 -0.0000 -1.0000
vn -0.0000 -0.0000 1.0000
vn -0.0000 -1.0000 -0.0000
vn -0.0000 1.0000 -0.0000
vn -1.0000 -0.0000 -0.0000
vn 1.0000 -0.0000 -0.0000
vt 0.468290 0.328125
vt 0.500000 0.328125
vt 0.500000 0.343750
vt 0.468290 0.343750
vt 0.468290 0.890625
vt 0.500000 0.890625
vt 0.500000 0.906250
vt 0.468290 0.906250
vt 0.468290 0.921875
vt 0.500000 0.921875
vt 0.500000 0.937500
vt 0.468290 0.937500
vt 0.530790 0.359375
vt 0.562500 0.359375
vt 0.530790 0.328125
vt 0.562500 0.328125
vt 0.562500 0.343750
vt 0.530790 0.343750
vt 0.530790 0.890625
vt 0.562500 0.890625
vt 0.562500 0.906250
vt 0.530790 0.906250
vt 0.530790 0.921875
vt 0.562500 0.921875
vt 0.562500 0.937500
vt 0.530790 0.937500
vt 0.437500 0.359375
vt 0.437500 0.890625
vt 0.468290 0.359375
vt 0.500000 0.359375
vt 0.437500 0.921875
vt 0.437500 0.937500
vt 0.437500 0.906250
vt 0.437500 0.328125
vt 0.437500 0.343750
vt 0.500000 0.312500
vt 0.530790 0.312500
vt 0.437500 0.312500
vt 0.468290 0.312500
vt 0.562500 0.312500
s 0
usemtl Material
f 28/1/1 21/2/1 4/3/1 16/4/1
f 38/5/2 31/6/2 3/7/2 15/8/2
f 27/9/2 22/10/2 2/11/2 14/12/2
f 79/13/1 39/13/1 34/14/1 74/14/1
f 30/15/1 23/16/1 8/17/1 20/18/1
f 40/19/2 33/20/2 7/21/2 19/22/2
f 29/23/2 24/24/2 6/25/2 18/26/2
f 75/27/3 76/28/3 36/28/3 35/27/3
f 77/29/1 37/29/1 32/30/1 72/30/1
f 25/31/2 27/9/2 14/12/2 10/32/2
f 36/28/2 38/5/2 15/8/2 11/33/2
f 26/34/1 28/1/1 16/4/1 12/35/1
f 75/27/1 35/27/1 37/29/1 77/29/1
f 22/10/2 29/23/2 18/26/2 2/11/2
f 31/6/2 40/19/2 19/22/2 3/7/2
f 1/36/1 17/37/1 30/15/1 21/2/1
f 9/38/1 13/39/1 28/1/1 26/34/1
f 11/33/2 15/8/2 27/9/2 25/31/2
f 19/22/2 7/21/2 24/24/2 29/23/2
f 17/37/1 5/40/1 23/16/1 30/15/1
f 15/8/2 3/7/2 22/10/2 27/9/2
f 13/39/1 1/36/1 21/2/1 28/1/1
f 36/28/2 76/28/2 78/5/2 38/5/2
f 4/3/1 20/18/1 39/13/1 32/30/1
f 38/5/2 78/5/2 71/6/2 31/6/2
f 12/35/1 16/4/1 37/29/1 35/27/1
f 20/18/1 8/17/1 34/14/1 39/13/1
f 72/30/1 32/30/1 39/13/1 79/13/1
f 16/4/1 4/3/1 32/30/1 37/29/1
f 40/19/2 80/19/2 73/20/2 33/20/2
f 33/20/4 34/14/4 8/17/4 7/21/4
f 24/24/4 23/16/4 5/40/4 6/25/4
f 17/37/5 18/26/5 6/25/5 5/40/5
f 74/14/4 34/14/4 33/20/4 73/20/4
f 36/28/3 11/33/3 12/35/3 35/27/3
f 26/34/3 12/35/3 11/33/3 25/31/3
f 21/2/4 22/10/4 3/7/4 4/3/4
f 3/7/5 19/22/5 20/18/5 4/3/5
f 30/15/3 20/18/3 19/22/3 29/23/3
f 21/2/6 30/15/6 29/23/6 22/10/6
f 68/1/1 56/4/1 44/3/1 61/2/1
f 78/5/2 55/8/2 43/7/2 71/6/2
f 67/9/2 54/12/2 42/11/2 62/10/2
f 70/15/1 60/18/1 48/17/1 63/16/1
f 80/19/2 59/22/2 47/21/2 73/20/2
f 69/23/2 58/26/2 46/25/2 64/24/2
f 65/31/2 50/32/2 54/12/2 67/9/2
f 76/28/2 51/33/2 55/8/2 78/5/2
f 66/34/1 52/35/1 56/4/1 68/1/1
f 62/10/2 42/11/2 58/26/2 69/23/2
f 71/6/2 43/7/2 59/22/2 80/19/2
f 41/36/1 61/2/1 70/15/1 57/37/1
f 49/38/1 66/34/1 68/1/1 53/39/1
f 51/33/2 65/31/2 67/9/2 55/8/2
f 59/22/2 69/23/2 64/24/2 47/21/2
f 57/37/1 70/15/1 63/16/1 45/40/1
f 55/8/2 67/9/2 62/10/2 43/7/2
f 53/39/1 68/1/1 61/2/1 41/36/1
f 44/3/1 72/30/1 79/13/1 60/18/1
f 52/35/1 75/27/1 77/29/1 56/4/1
f 60/18/1 79/13/1 74/14/1 48/17/1
f 56/4/1 77/29/1 72/30/1 44/3/1
f 73/20/4 47/21/4 48/17/4 74/14/4
f 64/24/4 46/25/4 45/40/4 63/16/4
f 57/37/6 45/40/6 46/25/6 58/26/6
f 76/28/3 75/27/3 52/35/3 51/33/3
f 66/34/3 65/31/3 51/33/3 52/35/3
f 61/2/4 44/3/4 43/7/4 62/10/4
f 43/7/6 44/3/6 60/18/6 59/22/6
f 70/15/3 69/23/3 59/22/3 60/18/3
f 61/2/5 62/10/5 69/23/5 70/15/5
f 31/6/2 71/6/2 80/19/2 40/19/2
o Arm1
v -3.571296 0.000000 -0.500000
v -3.571296 0.000000 0.500000
v -5.556803 0.000000 -0.500000
v -5.556803 0.000000 0.500000
v -5.556803 2.000000 -0.500000
v -5.556803 2.000000 0.500000
v -3.571296 -2.000000 -0.500000
v -3.571296 -2.000000 0.500000
v -3.571296 -1.014706 -0.500000
v -3.571296 -1.014706 0.500000
v -5.556803 -1.014706 -0.500000
v -5.556803 -1.014706 0.500000
v -3.571296 0.985294 -0.500000
v -3.571296 0.985294 0.500000
v -5.556803 0.985294 -0.500000
v -5.556803 0.985294 0.500000
v -5.556803 3.000000 -0.500000
v -5.556803 3.000000 0.500000
v -4.564049 0.000000 0.500000
v -4.564049 0.000000 -0.500000
v -4.564049 2.000000 0.500000
v -4.564049 2.000000 -0.500000
v -4.564049 -2.000000 -0.500000
v -4.564049 -2.000000 0.500000
v -4.564049 -1.014706 -0.500000
v -4.564049 -1.014706 0.500000
v -4.564049 0.985294 -0.500000
v -4.564049 0.985294 0.500000
v -4.564049 3.000000 0.500000
v -4.564049 3.000000 -0.500000
vn -0.0000 -0.0000 1.0000
vn -0.0000 -0.0000 -1.0000
vn -0.0000 1.0000 -0.0000
vn -1.0000 -0.0000 -0.0000
vn -0.0000 -1.0000 -0.0000
vn 1.0000 -0.0000 -0.0000
vt 0.468290 0.953012
vt 0.500000 0.953012
vt 0.500000 0.968524
vt 0.468290 0.968524
vt 0.468290 0.296988
vt 0.500000 0.296988
vt 0.500000 0.312500
vt 0.468290 0.312500
vt 0.530790 0.953012
vt 0.562500 0.953012
vt 0.562500 0.968524
vt 0.530790 0.968524
vt 0.437500 0.296988
vt 0.437500 0.312500
vt 0.530790 0.296988
vt 0.530790 0.312500
vt 0.593750 0.953012
vt 0.593750 0.968524
vt 0.562500 0.281476
vt 0.593750 0.281476
vt 0.593750 0.296988
vt 0.562500 0.296988
vt 0.500000 0.937500
vt 0.530790 0.937500
vt 0.500000 0.281476
vt 0.530790 0.281476
vt 0.437500 0.937500
vt 0.468290 0.937500
vt 0.437500 0.953012
vt 0.468290 0.281476
s 0
usemtl Material
f 106/41/7 99/42/7 84/43/7 92/44/7
f 105/45/8 100/46/8 81/47/8 89/48/8
f 108/49/7 101/50/7 86/51/7 96/52/7
f 103/53/8 105/45/8 89/48/8 87/54/8
f 100/46/8 107/55/8 93/56/8 81/47/8
f 99/42/7 108/49/7 96/52/7 84/43/7
f 101/50/7 109/57/7 98/58/7 86/51/7
f 85/59/8 97/60/8 110/61/8 102/62/8
f 82/63/7 94/64/7 108/49/7 99/42/7
f 83/65/8 95/66/8 107/55/8 100/46/8
f 88/67/7 90/68/7 106/41/7 104/69/7
f 95/66/8 85/59/8 102/62/8 107/55/8
f 91/70/8 83/65/8 100/46/8 105/45/8
f 90/68/7 82/63/7 99/42/7 106/41/7
f 107/55/9 108/49/9 94/64/9 93/56/9
f 109/57/9 110/61/9 97/60/9 98/58/9
f 85/59/10 86/51/10 98/58/10 97/60/10
f 95/66/10 96/52/10 86/51/10 85/59/10
f 83/65/10 84/43/10 96/52/10 95/66/10
f 91/70/10 92/44/10 84/43/10 83/65/10
f 106/41/11 92/44/11 91/70/11 105/45/11
f 104/69/10 106/41/10 105/45/10 103/53/10
f 103/53/11 87/54/11 88/67/11 104/69/11
f 102/62/12 110/61/12 109/57/12 101/50/12
f 107/55/12 102/62/12 101/50/12 108/49/12
f 81/47/12 93/56/12 94/64/12 82/63/12
f 89/48/12 81/47/12 82/63/12 90/68/12
f 87/54/12 89/48/12 90/68/12 88/67/12
o Arm2
v 3.571296 0.000000 -0.500000
v 3.571296 0.000000 0.500000
v 5.556803 0.000000 -0.500000
v 5.556803 0.000000 0.500000
v 5.556803 2.000000 -0.500000
v 5.556803 2.000000 0.500000
v 3.571296 -2.000000 -0.500000
v 3.571296 -2.000000 0.500000
v 3.571296 -1.014706 -0.500000
v 3.571296 -1.014706 0.500000
v 5.556803 -1.014706 -0.500000
v 5.556803 -1.014706 0.500000
v 3.571296 0.985294 -0.500000
v 3.571296 0.985294 0.500000
v 5.556803 0.985294 -0.500000
v 5.556803 0.985294 0.500000
v 5.556803 3.000000 -0.500000
v 5.556803 3.000000 0.500000
v 4.564049 0.000000 0.500000
v 4.564049 0.000000 -0.500000
v 4.564049 2.000000 0.500000
v 4.564049 2.000000 -0.500000
v 4.564049 -2.000000 -0.500000
v 4.564049 -2.000000 0.500000
v 4.564049 -1.014706 -0.500000
v 4.564049 -1.014706 0.500000
v 4.564049 0.985294 -0.500000
v 4.564049 0.985294 0.500000
v 4.564049 3.000000 0.500000
v 4.564049 3.000000 -0.500000
vn -0.0000 -0.0000 1.0000
vn -0.0000 -0.0000 -1.0000
vn -0.0000 1.0000 -0.0000
vn 1.0000 -0.0000 -0.0000
vn -0.0000 -1.0000 -0.0000
vn -1.0000 -0.0000 -0.0000
vt 0.468290 0.953012
vt 0.468290 0.968524
vt 0.500000 0.968524
vt 0.500000 0.953012
vt 0.468290 0.296988
vt 0.468290 0.312500
vt 0.500000 0.312500
vt 0.500000 0.296988
vt 0.530790 0.953012
vt 0.530790 0.968524
vt 0.562500 0.968524
vt 0.562500 0.953012
vt 0.437500 0.296988
vt 0.437500 0.312500
vt 0.530790 0.312500
vt 0.530790 0.296988
vt 0.593750 0.968524
vt 0.593750 0.953012
vt 0.562500 0.281476
vt 0.562500 0.296988
vt 0.593750 0.296988
vt 0.593750 0.281476
vt 0.500000 0.937500
vt 0.530790 0.937500
vt 0.500000 0.281476
vt 0.530790 0.281476
vt 0.437500 0.937500
vt 0.437500 0.953012
vt 0.468290 0.937500
vt 0.468290 0.281476
s 0
usemtl Material
f 136/71/13 122/72/13 114/73/13 129/74/13
f 135/75/14 119/76/14 111/77/14 130/78/14
f 138/79/13 126/80/13 116/81/13 131/82/13
f 133/83/14 117/84/14 119/76/14 135/75/14
f 130/78/14 111/77/14 123/85/14 137/86/14
f 129/74/13 114/73/13 126/80/13 138/79/13
f 131/82/13 116/81/13 128/87/13 139/88/13
f 115/89/14 132/90/14 140/91/14 127/92/14
f 112/93/13 129/74/13 138/79/13 124/94/13
f 113/95/14 130/78/14 137/86/14 125/96/14
f 118/97/13 134/98/13 136/71/13 120/99/13
f 125/96/14 137/86/14 132/90/14 115/89/14
f 121/100/14 135/75/14 130/78/14 113/95/14
f 120/99/13 136/71/13 129/74/13 112/93/13
f 137/86/15 123/85/15 124/94/15 138/79/15
f 139/88/15 128/87/15 127/92/15 140/91/15
f 115/89/16 127/92/16 128/87/16 116/81/16
f 125/96/16 115/89/16 116/81/16 126/80/16
f 113/95/16 125/96/16 126/80/16 114/73/16
f 121/100/16 113/95/16 114/73/16 122/72/16
f 136/71/17 135/75/17 121/100/17 122/72/17
f 134/98/16 133/83/16 135/75/16 136/71/16
f 133/83/17 134/98/17 118/97/17 117/84/17
f 132/90/18 131/82/18 139/88/18 140/91/18
f 137/86/18 138/79/18 131/82/18 132/90/18
f 111/77/18 112/93/18 124/94/18 123/85/18
f 119/76/18 120/99/18 112/93/18 111/77/18
f 117/84/18 118/97/18 120/99/18 119/76/18
o Leg1
v -3.571296 -4.000000 -0.500000
v -3.571296 -4.000000 0.500000
v -3.571296 -2.000000 0.500000
v -3.571296 -3.000000 -0.500000
v -3.571296 -3.000000 0.500000
v -4.564049 -4.000000 0.500000
v -4.564049 -4.000000 -0.500000
v -4.564049 -3.000000 0.500000
v -4.564049 -3.000000 -0.500000
v -2.571296 -2.000000 0.500000
v -2.571296 -3.000000 0.500000
v -2.571296 -2.000000 -0.500000
v -2.571296 -3.000000 -0.500000
v -3.571296 -2.000000 -0.500000
v -3.571296 -3.000000 -0.500000
vn -0.0000 -1.0000 -0.0000
vn -0.0000 -0.0000 1.0000
vn -0.0000 -0.0000 -1.0000
vn -1.0000 -0.0000 -0.0000
vn -0.0000 1.0000 -0.0000
vn 1.0000 -0.0000 -0.0000
vt 0.171988 0.500000
vt 0.187500 0.500000
vt 0.187500 0.750000
vt 0.171988 0.750000
vt 0.406250 0.921875
vt 0.437500 0.921875
vt 0.437500 0.937500
vt 0.406250 0.937500
vt 0.375000 0.296988
vt 0.406250 0.296988
vt 0.406250 0.312500
vt 0.375000 0.312500
vt 0.375000 0.937500
vt 0.406250 0.953012
vt 0.375000 0.953012
s 0
usemtl Material
f 147/101/19 141/102/19 142/103/19 146/104/19
f 151/105/20 150/106/20 143/107/20 145/108/20
f 147/109/21 149/110/21 144/111/21 141/112/21
f 142/113/20 145/108/20 148/114/20 146/115/20
f 147/101/22 146/104/22 148/114/22 149/110/22
f 149/110/23 148/114/23 145/108/23 144/111/23
f 142/113/24 141/112/24 144/111/24 145/108/24
f 150/106/24 151/105/24 153/105/24 152/106/24
f 145/108/22 143/107/22 154/107/22 155/108/22
f 153/105/21 155/108/21 154/107/21 152/106/21
f 145/108/19 144/111/19 153/105/19 151/105/19
f 143/107/23 150/106/23 152/106/23 154/107/23
o Leg2
v 3.571296 -4.000000 -0.500000
v 3.571296 -4.000000 0.500000
v 3.571296 -2.000000 0.500000
v 3.571296 -3.000000 -0.500000
v 3.571296 -3.000000 0.500000
v 4.564049 -4.000000 0.500000
v 4.564049 -4.000000 -0.500000
v 4.564049 -3.000000 0.500000
v 4.564049 -3.000000 -0.500000
v 2.571296 -2.000000 0.500000
v 2.571296 -3.000000 0.500000
v 2.571296 -2.000000 -0.500000
v 2.571296 -3.000000 -0.500000
v 3.571296 -2.000000 -0.500000
v 3.571296 -3.000000 -0.500000
vn -0.0000 -1.0000 -0.0000
vn -0.0000 -0.0000 1.0000
vn -0.0000 -0.0000 -1.0000
vn 1.0000 -0.0000 -0.0000
vn -0.0000 1.0000 -0.0000
vn -1.0000 -0.0000 -0.0000
vt 0.171988 0.500000
vt 0.171988 0.750000
vt 0.187500 0.750000
vt 0.187500 0.500000
vt 0.406250 0.921875
vt 0.406250 0.937500
vt 0.437500 0.937500
vt 0.437500 0.921875
vt 0.375000 0.296988
vt 0.375000 0.312500
vt 0.406250 0.312500
vt 0.406250 0.296988
vt 0.375000 0.937500
vt 0.375000 0.953012
vt 0.406250 0.953012
s 0
usemtl Material
f 162/116/25 161/117/25 157/118/25 156/119/25
f 166/120/26 160/121/26 158/122/26 165/123/26
f 162/124/27 156/125/27 159/126/27 164/127/27
f 157/128/26 161/129/26 163/130/26 160/121/26
f 162/116/28 164/127/28 163/130/28 161/117/28
f 164/127/29 159/126/29 160/121/29 163/130/29
f 157/128/30 160/121/30 159/126/30 156/125/30
f 165/123/30 167/123/30 168/120/30 166/120/30
f 160/121/28 170/121/28 169/122/28 158/122/28
f 168/120/27 167/123/27 169/122/27 170/121/27
f 160/121/25 166/120/25 168/120/25 159/126/25
f 158/122/29 169/122/29 167/123/29 165/123/29
o Antenna1
v -3.571296 4.000000 0.500000
v -3.571296 4.000000 -0.500000
v -1.571296 2.000000 0.500000
v -1.571296 2.000000 -0.500000
v -3.571296 3.000000 -0.500000
v -3.571296 3.000000 0.500000
v -1.571296 3.000000 0.500000
v -1.571296 3.000000 -0.500000
v -2.571296 4.000000 0.500000
v -2.571296 4.000000 -0.500000
v -2.571296 2.000000 -0.500000
v -2.571296 2.000000 0.500000
v -2.571296 3.000000 -0.500000
v -2.571296 3.000000 0.500000
vn -0.0000 -0.0000 1.0000
vn -0.0000 1.0000 -0.0000
vn -0.0000 -0.0000 -1.0000
vn -1.0000 -0.0000 -0.0000
vn 1.0000 -0.0000 -0.0000
vn -0.0000 -1.0000 -0.0000
vt 0.593750 0.921875
vt 0.625000 0.921875
vt 0.625000 0.937500
vt 0.593750 0.937500
vt 0.796875 0.500000
vt 0.812500 0.500000
vt 0.812500 0.750000
vt 0.796875 0.750000
vt 0.562500 0.328125
vt 0.593750 0.328125
vt 0.593750 0.343750
vt 0.562500 0.343750
vt 0.562500 0.906250
vt 0.593750 0.906250
vt 0.562500 0.921875
vt 0.593750 0.312500
vt 0.625000 0.312500
vt 0.625000 0.328125
s 0
usemtl Material
f 184/131/31 179/132/31 171/133/31 176/134/31
f 180/135/32 172/136/32 171/137/32 179/138/32
f 181/139/33 183/140/33 178/141/33 174/142/33
f 173/143/31 177/144/31 184/131/31 182/145/31
f 175/146/33 172/147/33 180/148/33 183/140/33
f 183/140/32 184/131/32 177/144/32 178/141/32
f 171/133/34 172/147/34 175/146/34 176/134/34
f 182/145/34 184/131/34 183/140/34 181/139/34
f 173/143/35 174/142/35 178/141/35 177/144/35
f 180/135/35 179/138/35 184/131/35 183/140/35
f 176/134/36 175/146/36 183/140/36 184/131/36
f 181/139/36 174/142/36 173/143/36 182/145/36
o Antenna2
v 3.571296 4.000000 0.500000
v 3.571296 4.000000 -0.500000
v 1.571296 2.000000 0.500000
v 1.571296 2.000000 -0.500000
v 3.571296 3.000000 -0.500000
v 3.571296 3.000000 0.500000
v 1.571296 3.000000 0.500000
v 1.571296 3.000000 -0.500000
v 2.571296 4.000000 0.500000
v 2.571296 4.000000 -0.500000
v 2.571296 2.000000 -0.500000
v 2.571296 2.000000 0.500000
v 2.571296 3.000000 -0.500000
v 2.571296 3.000000 0.500000
vn -0.0000 -0.0000 1.0000
vn -0.0000 1.0000 -0.0000
vn -0.0000 -0.0000 -1.0000
vn 1.0000 -0.0000 -0.0000
vn -1.0000 -0.0000 -0.0000
vn -0.0000 -1.0000 -0.0000
vt 0.593750 0.921875
vt 0.593750 0.937500
vt 0.625000 0.937500
vt 0.625000 0.921875
vt 0.796875 0.500000
vt 0.796875 0.750000
vt 0.812500 0.750000
vt 0.812500 0.500000
vt 0.562500 0.328125
vt 0.562500 0.343750
vt 0.593750 0.343750
vt 0.593750 0.328125
vt 0.562500 0.906250
vt 0.562500 0.921875
vt 0.593750 0.906250
vt 0.593750 0.312500
vt 0.625000 0.328125
vt 0.625000 0.312500
s 0
usemtl Material
f 198/149/37 190/150/37 185/151/37 193/152/37
f 194/153/38 193/154/38 185/155/38 186/156/38
f 195/157/39 188/158/39 192/159/39 197/160/39
f 187/161/37 196/162/37 198/149/37 191/163/37
f 189/164/39 197/160/39 194/165/39 186/166/39
f 197/160/38 192/159/38 191/163/38 198/149/38
f 185/151/40 190/150/40 189/164/40 186/166/40
f 196/162/40 195/157/40 197/160/40 198/149/40
f 187/161/41 191/163/41 192/159/41 188/158/41
f 194/153/41 197/160/41 198/149/41 193/154/41
f 190/150/42 198/149/42 197/160/42 189/164/42
f 195/157/42 196/162/42 187/161/42 188/158/42
