# Blender 5.1.1
# www.blender.org
mtllib data/invader_base_4.mtl
o Cube
v 8.000000 -8.000000 -0.500000
v 8.000000 -8.000000 0.500000
v -8.000000 -8.000000 -0.500000
v -8.000000 -8.000000 0.500000
v 0.000000 8.000000 0.500000
v 0.000000 8.000000 -0.500000
v -4.000000 -8.000000 -0.500000
v -4.000000 -8.000000 0.500000
v -6.000000 -8.000000 -0.500000
v -6.000000 -8.000000 0.500000
v 4.000000 -8.000000 0.500000
v 4.000000 -8.000000 -0.500000
v 2.000000 8.000000 0.500000
v 2.000000 8.000000 -0.500000
v 6.000000 -8.000000 0.500000
v 6.000000 -8.000000 -0.500000
v 8.000000 0.000000 -0.500000
v -8.000000 0.000000 0.500000
v 8.000000 0.000000 0.500000
v -8.000000 0.000000 -0.500000
v -4.000000 0.000000 -0.500000
v -4.000000 0.000000 0.500000
v -2.000000 0.000000 0.500000
v -2.000000 0.000000 -0.500000
v -6.000000 0.000000 -0.500000
v -6.000000 0.000000 0.500000
v 2.000000 0.000000 -0.500000
v 2.000000 0.000000 0.500000
v 6.000000 0.000000 0.500000
v 6.000000 0.000000 -0.500000
v 0.000000 4.000000 -0.500000
v 0.000000 4.000000 0.500000
v -4.000000 4.000000 -0.500000
v -4.000000 4.000000 0.500000
v -2.000000 4.000000 0.500000
v -2.000000 4.000000 -0.500000
v -6.000000 4.000000 -0.500000
v -6.000000 4.000000 0.500000
v 4.000000 4.000000 0.500000
v 4.000000 4.000000 -0.500000
v 2.000000 4.000000 -0.500000
v 2.000000 4.000000 0.500000
v 6.000000 4.000000 0.500000
v 6.000000 4.000000 -0.500000
v 0.000000 5.985402 -0.500000
v 0.000000 5.985402 0.500000
v -4.000000 5.985402 -0.500000
v -4.000000 5.985402 0.500000
v -2.000000 5.985402 0.500000
v -2.000000 5.985402 -0.500000
v 4.000000 5.985402 0.500000
v 4.000000 5.985402 -0.500000
v 2.000000 5.985402 -0.500000
v 2.000000 5.985402 0.500000
v -8.000000 2.000000 -0.500000
v 0.000000 2.000000 -0.500000
v 0.000000 2.000000 0.500000
v -4.000000 2.000000 -0.500000
v -4.000000 2.000000 0.500000
v -2.000000 2.000000 0.500000
v -2.000000 2.000000 -0.500000
v -6.000000 2.000000 -0.500000
v -6.000000 2.000000 0.500000
v 4.000000 2.000000 0.500000
v 4.000000 2.000000 -0.500000
v 6.000000 2.000000 0.500000
v 6.000000 2.000000 -0.500000
v -8.000000 2.000000 0.500000
v 8.000000 -4.000000 -0.500000
v 8.000000 -4.000000 0.500000
v -4.000000 -4.000000 -0.500000
v -4.000000 -4.000000 0.500000
v -6.000000 -4.000000 -0.500000
v -6.000000 -4.000000 0.500000
v 4.000000 -4.000000 0.500000
v 4.000000 -4.000000 -0.500000
v 6.000000 -4.000000 0.500000
v 6.000000 -4.000000 -0.500000
v -8.000000 -2.000000 0.500000
v 8.000000 -2.000000 -0.500000
v 8.000000 -2.000000 0.500000
v -8.000000 -2.000000 -0.500000
v -4.000000 -2.000000 -0.500000
v -4.000000 -2.000000 0.500000
v -2.000000 -2.000000 0.500000
v -2.000000 -2.000000 -0.500000
v -6.000000 -2.000000 -0.500000
v -6.000000 -2.000000 0.500000
v 4.000000 -2.000000 0.500000
v 4.000000 -2.000000 -0.500000
v 2.000000 -2.000000 -0.500000
v 2.000000 -2.000000 0.500000
v -7.000000 -8.000000 -0.500000
v -7.000000 -8.000000 0.500000
v -7.000000 0.000000 -0.500000
v -7.000000 0.000000 0.500000
v -7.000000 2.000000 0.500000
v -7.000000 2.000000 -0.500000
v -7.000000 -4.000000 0.500000
v -7.000000 -4.000000 -0.500000
v -7.000000 -2.000000 0.500000
v -7.000000 -2.000000 -0.500000
v -5.014493 -8.000000 0.500000
v -5.014493 -8.000000 -0.500000
v -5.014493 0.000000 0.500000
v -5.014493 0.000000 -0.500000
v -5.014493 4.000000 0.500000
v -5.014493 4.000000 -0.500000
v -5.014493 5.985402 0.500000
v -5.014493 5.985402 -0.500000
v -5.014493 2.000000 -0.500000
v -5.014493 2.000000 0.500000
v -5.014493 -4.000000 -0.500000
v -5.014493 -4.000000 0.500000
v -3.000000 -8.000000 -0.500000
v -3.000000 -8.000000 0.500000
v -3.000000 0.000000 -0.500000
v -3.000000 0.000000 0.500000
v -3.000000 4.000000 -0.500000
v -3.000000 4.000000 0.500000
v -3.000000 5.985402 -0.500000
v -3.000000 5.985402 0.500000
v -3.000000 2.000000 0.500000
v -3.000000 2.000000 -0.500000
v -3.000000 -4.000000 0.500000
v -3.000000 -4.000000 -0.500000
v -3.000000 -2.000000 0.500000
v -3.000000 -2.000000 -0.500000
v -1.000000 8.000000 -0.500000
v -1.000000 8.000000 0.500000
v -1.000000 0.000000 0.500000
v -1.000000 0.000000 -0.500000
v -1.000000 4.000000 0.500000
v -1.000000 4.000000 -0.500000
v 1.000000 8.000000 0.500000
v 1.000000 8.000000 -0.500000
v 1.000000 5.985402 -0.500000
v 1.000000 5.985402 0.500000
v 1.000000 2.000000 0.500000
v 1.000000 2.000000 -0.500000
v 1.000000 -2.000000 0.500000
v 1.000000 -2.000000 -0.500000
v 3.000000 -8.000000 0.500000
v 3.000000 -8.000000 -0.500000
v 3.000000 0.000000 0.500000
v 3.000000 0.000000 -0.500000
v 3.000000 4.000000 0.500000
v 3.000000 4.000000 -0.500000
v 3.000000 5.985402 0.500000
v 3.000000 5.985402 -0.500000
v 3.000000 2.000000 -0.500000
v 3.000000 2.000000 0.500000
v 3.000000 -4.000000 -0.500000
v 3.000000 -4.000000 0.500000
v 3.000000 -2.000000 -0.500000
v 3.000000 -2.000000 0.500000
v 5.000000 -8.000000 -0.500000
v 5.000000 -8.000000 0.500000
v 5.000000 0.000000 -0.500000
v 5.000000 0.000000 0.500000
v 5.000000 4.000000 -0.500000
v 5.000000 4.000000 0.500000
v 5.000000 5.985402 -0.500000
v 5.000000 5.985402 0.500000
v 5.000000 2.000000 0.500000
v 5.000000 2.000000 -0.500000
v 5.000000 -4.000000 0.500000
v 5.000000 -4.000000 -0.500000
v 7.000000 -8.000000 0.500000
v 7.000000 -8.000000 -0.500000
v 7.000000 0.000000 0.500000
v 7.000000 0.000000 -0.500000
v 7.000000 2.000000 -0.500000
v 7.000000 2.000000 0.500000
v 7.000000 -4.000000 -0.500000
v 7.000000 -4.000000 0.500000
v 7.000000 -2.000000 -0.500000
v 7.000000 -2.000000 0.500000
v -4.000000 4.992701 -0.500000
v -4.000000 4.992701 0.500000
v -2.000000 4.992701 0.500000
v -2.000000 4.992701 -0.500000
v -6.000000 4.992701 -0.500000
v -6.000000 4.992701 0.500000
v 4.000000 4.992701 0.500000
v 4.000000 4.992701 -0.500000
v 2.000000 4.992701 -0.500000
v 2.000000 4.992701 0.500000
v 6.000000 4.992701 0.500000
v 6.000000 4.992701 -0.500000
v -5.014493 4.992701 -0.500000
v -5.014493 4.992701 0.500000
v -3.000000 4.992701 0.500000
v -3.000000 4.992701 -0.500000
v 3.000000 4.992701 -0.500000
v 3.000000 4.992701 0.500000
v 5.000000 4.992701 0.500000
v 5.000000 4.992701 -0.500000
v 0.000000 2.985294 -0.500000
v 0.000000 2.985294 0.500000
v -4.000000 2.985294 -0.500000
v -4.000000 2.985294 0.500000
v -2.000000 2.985294 0.500000
v -2.000000 2.985294 -0.500000
v -6.000000 2.985294 -0.500000
v -6.000000 2.985294 0.500000
v 4.000000 2.985294 0.500000
v 4.000000 2.985294 -0.500000
v 2.000000 2.985294 -0.500000
v 2.000000 2.985294 0.500000
v 6.000000 2.985294 0.500000
v 6.000000 2.985294 -0.500000
v -7.000000 2.985294 0.500000
v -7.000000 2.985294 -0.500000
v -5.014493 2.985294 -0.500000
v -5.014493 2.985294 0.500000
v -3.000000 2.985294 0.500000
v -3.000000 2.985294 -0.500000
v -1.000000 2.985294 -0.500000
v -1.000000 2.985294 0.500000
v 1.000000 2.985294 0.500000
v 1.000000 2.985294 -0.500000
v 3.000000 2.985294 -0.500000
v 3.000000 2.985294 0.500000
v 5.000000 2.985294 0.500000
v 5.000000 2.985294 -0.500000
v 8.000000 1.000000 -0.500000
v 8.000000 1.000000 0.500000
v -8.000000 1.000000 -0.500000
v -4.000000 1.000000 -0.500000
v -4.000000 1.000000 0.500000
v -2.000000 1.000000 0.500000
v -2.000000 1.000000 -0.500000
v -6.000000 1.000000 -0.500000
v -6.000000 1.000000 0.500000
v 4.000000 1.000000 0.500000
v 4.000000 1.000000 -0.500000
v 6.000000 1.000000 0.500000
v 6.000000 1.000000 -0.500000
v -8.000000 1.000000 0.500000
v -7.000000 1.000000 -0.500000
v -7.000000 1.000000 0.500000
v -5.014493 1.000000 0.500000
v -5.014493 1.000000 -0.500000
v -3.000000 1.000000 -0.500000
v -3.000000 1.000000 0.500000
v 3.000000 1.000000 0.500000
v 3.000000 1.000000 -0.500000
v 5.000000 1.000000 -0.500000
v 5.000000 1.000000 0.500000
v 7.000000 1.000000 0.500000
v 7.000000 1.000000 -0.500000
v -8.000000 -1.000000 0.500000
v 8.000000 -1.000000 -0.500000
v 8.000000 -1.000000 0.500000
v -8.000000 -1.000000 -0.500000
v -4.000000 -1.000000 -0.500000
v -4.000000 -1.000000 0.500000
v -2.000000 -1.000000 0.500000
v -2.000000 -1.000000 -0.500000
v -6.000000 -1.000000 -0.500000
v -6.000000 -1.000000 0.500000
v 4.000000 -1.000000 0.500000
v 4.000000 -1.000000 -0.500000
v 2.000000 -1.000000 -0.500000
v 2.000000 -1.000000 0.500000
v 6.000000 -1.000000 0.500000
v 6.000000 -1.000000 -0.500000
v -7.000000 -1.000000 0.500000
v -7.000000 -1.000000 -0.500000
v -5.014493 -1.000000 -0.500000
v -5.014493 -1.000000 0.500000
v -3.000000 -1.000000 0.500000
v -3.000000 -1.000000 -0.500000
v -1.000000 -1.000000 -0.500000
v -1.000000 -1.000000 0.500000
v 1.000000 -1.000000 0.500000
v 1.000000 -1.000000 -0.500000
v 3.000000 -1.000000 -0.500000
v 3.000000 -1.000000 0.500000
v 7.000000 -1.000000 -0.500000
v 7.000000 -1.000000 0.500000
v 8.000000 -3.000000 -0.500000
v 8.000000 -3.000000 0.500000
v -8.000000 -3.000000 -0.500000
v -4.000000 -3.000000 -0.500000
v -4.000000 -3.000000 0.500000
v -2.000000 -3.000000 0.500000
v -2.000000 -3.000000 -0.500000
v 4.000000 -3.000000 0.500000
v 4.000000 -3.000000 -0.500000
v 2.000000 -3.000000 -0.500000
v 2.000000 -3.000000 0.500000
v 6.000000 -3.000000 0.500000
v 6.000000 -3.000000 -0.500000
v -8.000000 -3.000000 0.500000
v -7.000000 -3.000000 -0.500000
v -7.000000 -3.000000 0.500000
v -5.014493 -3.000000 0.500000
v -5.014493 -3.000000 -0.500000
v -3.000000 -3.000000 -0.500000
v -3.000000 -3.000000 0.500000
v 3.000000 -3.000000 0.500000
v 3.000000 -3.000000 -0.500000
v 7.000000 -3.000000 0.500000
v 7.000000 -3.000000 -0.500000
v -4.000000 -5.014706 -0.500000
v -4.000000 -5.014706 0.500000
v -6.000000 -5.014706 -0.500000
v -6.000000 -5.014706 0.500000
v 6.000000 -5.014706 0.500000
v 6.000000 -5.014706 -0.500000
v -7.000000 -5.014706 -0.500000
v -7.000000 -5.014706 0.500000
v -3.000000 -5.014706 -0.500000
v -3.000000 -5.014706 0.500000
v 5.000000 -5.014706 -0.500000
v 5.000000 -5.014706 0.500000
v 8.000000 -7.000000 -0.500000
v 8.000000 -7.000000 0.500000
v -8.000000 -7.000000 -0.500000
v -4.000000 -7.000000 -0.500000
v -4.000000 -7.000000 0.500000
v -6.000000 -7.000000 -0.500000
v -6.000000 -7.000000 0.500000
v 4.000000 -7.000000 0.500000
v 4.000000 -7.000000 -0.500000
v 6.000000 -7.000000 0.500000
v 6.000000 -7.000000 -0.500000
v -8.000000 -7.000000 0.500000
v -7.000000 -7.000000 0.500000
v -7.000000 -7.000000 -0.500000
v -5.014493 -7.000000 -0.500000
v -5.014493 -7.000000 0.500000
v -3.000000 -7.000000 0.500000
v -3.000000 -7.000000 -0.500000
v 3.000000 -7.000000 -0.500000
v 3.000000 -7.000000 0.500000
v 5.000000 -7.000000 0.500000
v 5.000000 -7.000000 -0.500000
v 7.000000 -7.000000 -0.500000
v 7.000000 -7.000000 0.500000
v 0.000000 6.978102 -0.500000
v 0.000000 6.978102 0.500000
v -4.000000 6.978102 -0.500000
v -4.000000 6.978102 0.500000
v 2.000000 6.978102 -0.500000
v 2.000000 6.978102 0.500000
v -3.000000 6.978102 -0.500000
v -3.000000 6.978102 0.500000
v -1.000000 6.978102 0.500000
v -1.000000 6.978102 -0.500000
v 1.000000 6.978102 -0.500000
v 1.000000 6.978102 0.500000
vn -0.0000 -0.0000 -1.0000
vn -0.0000 -1.0000 -0.0000
vn -0.0000 1.0000 -0.0000
vn -0.0000 -0.0000 1.0000
vn -1.0000 -0.0000 -0.0000
vn 1.0000 -0.0000 -0.0000
vt 0.609033 0.359375
vt 0.625000 0.359375
vt 0.625000 0.375000
vt 0.609033 0.375000
vt 0.484375 0.968750
vt 0.484375 0.281250
vt 0.484375 0.296649
vt 0.484375 0.953351
vt 0.546645 0.453125
vt 0.546645 0.796875
vt 0.546645 0.781250
vt 0.546645 0.468750
vt 0.484375 0.312500
vt 0.484375 0.328125
vt 0.484375 0.921875
vt 0.484375 0.937500
vt 0.468750 0.437500
vt 0.468750 0.812500
vt 0.468750 0.828125
vt 0.468750 0.421875
vt 0.609033 0.390625
vt 0.625000 0.390625
vt 0.625000 0.406250
vt 0.609033 0.406250
vt 0.484375 0.765625
vt 0.500000 0.765625
vt 0.500000 0.781250
vt 0.484375 0.781250
vt 0.484375 0.828125
vt 0.500000 0.828125
vt 0.500000 0.843750
vt 0.484375 0.843750
vt 0.500000 0.953351
vt 0.500000 0.968750
vt 0.484375 0.890625
vt 0.500000 0.890625
vt 0.500000 0.906250
vt 0.484375 0.906250
vt 0.500000 0.921875
vt 0.500000 0.937500
vt 0.531250 0.906250
vt 0.531250 0.343750
vt 0.531250 0.328125
vt 0.531250 0.921875
vt 0.531250 0.953351
vt 0.531250 0.296649
vt 0.531250 0.281250
vt 0.531250 0.968750
vt 0.484375 0.000000
vt 0.500000 0.000000
vt 0.500000 0.250000
vt 0.484375 0.250000
vt 0.484375 0.984375
vt 0.500000 0.984375
vt 0.500000 1.000000
vt 0.484375 1.000000
vt 0.546645 0.828125
vt 0.562500 0.828125
vt 0.562500 0.843750
vt 0.546645 0.843750
vt 0.546645 0.328125
vt 0.562500 0.328125
vt 0.562500 0.343750
vt 0.546645 0.343750
vt 0.546645 0.296649
vt 0.562500 0.296649
vt 0.562500 0.312500
vt 0.546645 0.312500
vt 0.546645 0.359375
vt 0.562500 0.359375
vt 0.562500 0.375000
vt 0.546645 0.375000
vt 0.578011 0.828125
vt 0.593522 0.828125
vt 0.593522 0.843750
vt 0.578011 0.843750
vt 0.578011 0.796875
vt 0.593522 0.796875
vt 0.593522 0.812500
vt 0.578011 0.812500
vt 0.578011 0.328125
vt 0.593522 0.328125
vt 0.593522 0.343750
vt 0.578011 0.343750
vt 0.578011 0.296649
vt 0.593522 0.296649
vt 0.593522 0.312500
vt 0.578011 0.312500
vt 0.515625 0.984375
vt 0.531250 0.984375
vt 0.531250 1.000000
vt 0.515625 1.000000
vt 0.515625 0.000000
vt 0.531250 0.000000
vt 0.531250 0.250000
vt 0.515625 0.250000
vt 0.515625 0.328125
vt 0.515625 0.343750
vt 0.515625 0.953351
vt 0.515625 0.968750
vt 0.515625 0.796875
vt 0.531250 0.796875
vt 0.531250 0.812500
vt 0.515625 0.812500
vt 0.515625 0.765625
vt 0.531250 0.765625
vt 0.531250 0.781250
vt 0.515625 0.781250
vt 0.578011 0.953351
vt 0.578011 0.281250
vt 0.578011 0.968750
vt 0.421645 0.921875
vt 0.437500 0.921875
vt 0.437500 0.937500
vt 0.421645 0.937500
vt 0.421645 0.265625
vt 0.437500 0.265625
vt 0.437500 0.281250
vt 0.421645 0.281250
vt 0.500000 0.359375
vt 0.500000 0.343750
vt 0.421645 0.453125
vt 0.437500 0.453125
vt 0.437500 0.468750
vt 0.421645 0.468750
vt 0.453125 0.984375
vt 0.468750 0.984375
vt 0.468750 1.000000
vt 0.453125 1.000000
vt 0.453125 0.000000
vt 0.468750 0.000000
vt 0.468750 0.250000
vt 0.453125 0.250000
vt 0.593522 0.953351
vt 0.453125 0.921875
vt 0.468750 0.921875
vt 0.468750 0.937500
vt 0.453125 0.937500
vt 0.546645 0.968750
vt 0.546645 0.281250
vt 0.546645 0.265625
vt 0.546645 0.984375
vt 0.500000 0.281250
vt 0.500000 0.265625
vt 0.453125 0.828125
vt 0.468750 0.843750
vt 0.453125 0.843750
vt 0.437500 0.781250
vt 0.437500 0.796875
vt 0.515625 0.281250
vt 0.468750 0.265625
vt 0.453125 0.265625
vt 0.421645 0.968750
vt 0.437500 0.968750
vt 0.437500 0.984375
vt 0.421645 0.984375
vt 0.531250 0.265625
vt 0.515625 0.265625
vt 0.484375 0.265625
vt 0.453125 0.406250
vt 0.453125 0.421875
vt 0.546645 0.921875
vt 0.515625 0.296649
vt 0.578011 0.937500
vt 0.593522 0.937500
vt 0.000000 0.000000
vt 0.546645 0.937500
vt 0.562500 0.937500
vt 0.562500 0.953351
vt 0.546645 0.953351
vt 0.500000 0.296649
vt 0.531250 0.484375
vt 0.515625 0.484375
vt 0.468750 0.390625
vt 0.468750 0.406250
vt 0.468750 0.859375
vt 0.453125 0.312500
vt 0.468750 0.312500
vt 0.468750 0.328125
vt 0.453125 0.328125
vt 0.453125 0.906250
vt 0.468750 0.906250
vt 0.421645 0.312500
vt 0.437500 0.312500
vt 0.437500 0.328125
vt 0.421645 0.328125
vt 0.515625 0.906250
vt 0.515625 0.921875
vt 0.578011 0.906250
vt 0.593522 0.906250
vt 0.593522 0.921875
vt 0.578011 0.921875
vt 0.546645 0.906250
vt 0.562500 0.906250
vt 0.562500 0.921875
vt 0.500000 0.312500
vt 0.500000 0.328125
vt 0.531250 0.468750
vt 0.546645 0.875000
vt 0.562500 0.875000
vt 0.562500 0.890625
vt 0.546645 0.890625
vt 0.484375 0.343750
vt 0.484375 0.359375
vt 0.609033 0.875000
vt 0.625000 0.875000
vt 0.625000 0.890625
vt 0.609033 0.890625
vt 0.750000 0.500000
vt 0.765625 0.500000
vt 0.765625 0.750000
vt 0.750000 0.750000
vt 0.531250 0.437500
vt 0.546645 0.437500
vt 0.546645 0.812500
vt 0.718750 0.500000
vt 0.734375 0.500000
vt 0.734375 0.750000
vt 0.718750 0.750000
vt 0.609033 0.843750
vt 0.625000 0.843750
vt 0.625000 0.859375
vt 0.609033 0.859375
vt 0.546645 0.859375
vt 0.546645 0.390625
vt 0.578011 0.406250
vt 0.593522 0.406250
vt 0.593522 0.421875
vt 0.578011 0.421875
vt 0.546645 0.406250
vt 0.562500 0.406250
vt 0.562500 0.421875
vt 0.546645 0.421875
vt 0.484375 0.406250
vt 0.500000 0.406250
vt 0.500000 0.421875
vt 0.484375 0.421875
vt 0.468750 0.343750
vt 0.453125 0.343750
vt 0.453125 0.781250
vt 0.453125 0.468750
vt 0.421645 0.781250
vt 0.421645 0.796875
vt 0.515625 0.437500
vt 0.531250 0.453125
vt 0.515625 0.453125
vt 0.578011 0.437500
vt 0.593522 0.437500
vt 0.593522 0.453125
vt 0.578011 0.453125
vt 0.562500 0.968750
vt 0.562500 0.281250
vt 0.515625 0.468750
vt 0.484375 0.468750
vt 0.500000 0.468750
vt 0.500000 0.484375
vt 0.484375 0.484375
vt 0.562500 0.781250
vt 0.578011 0.781250
vt 0.562500 0.796875
vt 0.562500 0.812500
vt 0.562500 0.468750
vt 0.578011 0.468750
vt 0.562500 0.437500
vt 0.562500 0.453125
vt 0.531250 0.828125
vt 0.531250 0.375000
vt 0.531250 0.390625
vt 0.531250 0.312500
vt 0.531250 0.859375
vt 0.531250 0.875000
vt 0.531250 0.937500
vt 0.531250 0.421875
vt 0.500000 0.750000
vt 0.515625 0.750000
vt 0.500000 0.796875
vt 0.515625 0.312500
vt 0.500000 0.453125
vt 0.593522 0.859375
vt 0.593522 0.875000
vt 0.593522 0.375000
vt 0.593522 0.390625
vt 0.515625 0.937500
vt 0.515625 0.500000
vt 0.500000 0.500000
vt 0.468750 0.750000
vt 0.484375 0.750000
vt 0.468750 0.765625
vt 0.484375 0.812500
vt 0.484375 0.859375
vt 0.468750 0.968750
vt 0.468750 0.500000
vt 0.484375 0.500000
vt 0.468750 0.484375
vt 0.468750 0.281250
vt 0.484375 0.437500
vt 0.484375 0.390625
vt 0.453125 0.484375
vt 0.437500 0.484375
vt 0.437500 0.750000
vt 0.453125 0.750000
vt 0.453125 0.765625
vt 0.437500 0.765625
vt 0.437500 0.812500
vt 0.453125 0.812500
vt 0.437500 0.828125
vt 0.453125 0.953351
vt 0.437500 0.953351
vt 0.437500 0.421875
vt 0.453125 0.437500
vt 0.437500 0.437500
vt 0.437500 0.296649
vt 0.453125 0.296649
vt 0.453125 0.500000
vt 0.437500 0.500000
vt 0.609033 0.937500
vt 0.609033 0.312500
vt 0.609033 0.328125
vt 0.609033 0.921875
s 0
usemtl Material
f 352/1/1 129/2/1 6/3/1 343/4/1
f 262/5/2 261/6/2 271/7/2 272/8/2
f 226/9/3 225/10/3 211/11/3 212/12/3
f 257/13/2 274/14/2 273/15/2 258/16/2
f 90/17/2 89/18/2 156/19/2 155/20/2
f 353/21/1 136/22/1 14/23/1 347/24/1
f 282/25/4 171/26/4 29/27/4 267/28/4
f 280/29/4 145/30/4 28/31/4 266/32/4
f 272/8/4 105/33/4 26/34/4 262/5/4
f 276/35/4 131/36/4 23/37/4 259/38/4
f 273/15/4 118/39/4 22/40/4 258/16/4
f 60/41/3 61/42/3 124/43/3 123/44/3
f 112/45/3 111/46/3 62/47/3 63/48/3
f 253/49/5 18/50/5 20/51/5 256/52/5
f 269/53/4 96/54/4 18/55/4 253/56/4
f 224/57/4 147/58/4 42/59/4 210/60/4
f 218/61/1 119/62/1 36/63/1 204/64/1
f 215/65/1 108/66/1 33/67/1 201/68/1
f 219/69/1 134/70/1 31/71/1 199/72/1
f 196/73/4 149/74/4 54/75/4 188/76/4
f 197/77/4 164/78/4 51/79/4 185/80/4
f 194/81/1 121/82/1 50/83/1 182/84/1
f 191/85/1 110/86/1 47/87/1 179/88/1
f 242/89/4 97/90/4 68/91/4 240/92/4
f 240/93/5 68/94/5 55/95/5 229/96/5
f 245/97/1 124/43/1 61/42/1 233/98/1
f 243/99/4 112/45/4 63/48/4 235/100/4
f 250/101/4 165/102/4 64/103/4 236/104/4
f 251/105/4 174/106/4 66/107/4 238/108/4
f 192/109/3 191/85/3 183/110/3 184/111/3
f 316/112/4 125/113/4 72/114/4 308/115/4
f 313/116/1 100/117/1 73/118/1 309/119/1
f 131/36/3 132/120/3 24/121/3 23/37/3
f 317/122/1 168/123/1 78/124/1 312/125/1
f 298/126/4 101/127/4 79/128/4 296/129/4
f 296/130/5 79/131/5 82/132/5 285/133/5
f 191/85/5 192/109/5 109/134/5 110/86/5
f 302/135/4 127/136/4 84/137/4 287/138/4
f 206/139/3 205/140/3 214/141/3 213/142/3
f 25/143/2 26/34/2 96/54/2 95/144/2
f 303/145/4 156/19/4 92/146/4 293/147/4
f 77/148/3 78/124/3 168/123/3 167/149/3
f 63/48/5 62/47/5 234/150/5 235/100/5
f 285/133/1 82/132/1 102/151/1 297/152/1
f 310/153/4 74/154/4 99/155/4 314/156/4
f 229/96/1 55/95/1 98/157/1 241/158/1
f 256/52/1 20/51/1 95/144/1 270/159/1
f 303/145/2 293/147/2 292/160/2 304/161/2
f 99/155/5 100/117/5 313/116/5 314/156/5
f 123/44/6 124/43/6 218/61/6 217/162/6
f 234/150/1 62/47/1 111/46/1 244/163/1
f 180/164/4 48/165/4 109/134/4 192/109/4
f 308/166/5 72/166/5 71/166/5 307/166/5
f 202/167/4 34/168/4 107/169/4 216/170/4
f 261/6/1 25/143/1 106/171/1 271/7/1
f 173/172/6 174/106/6 251/105/6 252/173/6
f 142/174/2 91/175/2 92/146/2 141/176/2
f 286/177/1 83/178/1 128/179/1 301/180/1
f 288/181/4 85/182/4 127/136/4 302/135/4
f 307/183/1 71/184/1 126/185/1 315/186/1
f 232/187/4 60/41/4 123/44/4 246/188/4
f 181/189/4 49/190/4 122/191/4 193/192/4
f 203/193/4 35/194/4 120/195/4 217/162/4
f 257/13/1 21/196/1 117/197/1 274/14/1
f 66/107/6 67/198/6 212/12/6 211/11/6
f 111/46/6 112/45/6 243/99/6 244/163/6
f 200/199/4 32/200/4 133/201/4 220/202/4
f 260/203/1 24/121/1 132/120/1 275/204/1
f 344/205/4 5/206/4 130/207/4 351/208/4
f 6/209/3 129/210/3 130/211/3 5/212/3
f 155/20/6 156/19/6 303/145/6 304/161/6
f 101/127/3 102/151/3 82/132/3 79/131/3
f 35/194/3 36/63/3 119/62/3 120/195/3
f 64/103/6 65/213/6 208/214/6 207/215/6
f 14/216/3 136/217/3 135/218/3 13/219/3
f 348/220/4 13/221/4 135/222/4 354/223/4
f 232/187/6 233/98/6 61/42/6 60/41/6
f 199/72/3 200/199/3 221/224/3 222/225/3
f 292/160/1 91/175/1 155/20/1 304/161/1
f 187/226/1 53/227/1 150/228/1 195/229/1
f 209/230/1 41/231/1 148/232/1 223/233/1
f 265/234/1 27/235/1 146/236/1 279/237/1
f 86/238/6 85/182/6 288/181/6 289/239/6
f 78/124/5 77/148/5 294/240/5 295/241/5
f 311/242/4 77/148/4 167/149/4 318/243/4
f 237/244/1 65/213/1 166/245/1 249/246/1
f 186/247/1 52/248/1 163/249/1 198/250/1
f 315/186/2 316/112/2 308/115/2 307/183/2
f 97/90/5 213/142/5 214/141/5 98/157/5
f 38/251/2 37/252/2 108/66/2 107/169/2
f 239/253/1 67/198/1 173/172/1 252/173/1
f 268/254/1 30/255/1 172/256/1 281/257/1
f 288/181/2 302/135/2 301/180/2 289/239/2
f 43/258/4 189/259/4 197/77/4 162/260/4
f 39/261/4 185/80/4 196/73/4 147/58/4
f 33/67/1 179/88/1 194/81/1 119/62/1
f 37/252/1 183/110/1 191/85/1 108/66/1
f 43/258/6 44/262/6 190/263/6 189/259/6
f 262/5/3 261/6/3 270/159/3 269/53/3
f 120/195/4 193/192/4 180/164/4 34/168/4
f 216/170/5 107/169/5 108/66/5 215/65/5
f 107/169/4 192/109/4 184/111/4 38/251/4
f 148/232/1 195/229/1 186/247/1 40/264/1
f 128/179/1 86/238/1 289/239/1 301/180/1
f 161/265/1 198/250/1 190/263/1 44/262/1
f 66/107/4 211/11/4 225/10/4 165/102/4
f 64/103/4 207/215/4 224/57/4 152/266/4
f 56/267/1 199/72/1 222/225/1 140/268/1
f 58/269/1 201/68/1 218/61/1 124/43/1
f 63/48/4 206/139/4 213/142/4 97/90/4
f 97/90/3 98/157/3 55/95/3 68/94/3
f 139/270/4 221/224/4 200/199/4 57/271/4
f 123/44/4 217/162/4 202/167/4 59/272/4
f 74/154/3 73/118/3 100/117/3 99/155/3
f 98/157/1 214/141/1 205/140/1 62/47/1
f 285/133/2 297/152/2 298/126/2 296/130/2
f 151/273/1 223/233/1 208/214/1 65/213/1
f 166/245/1 226/9/1 212/12/1 67/198/1
f 19/274/4 228/275/4 251/105/4 171/26/4
f 29/27/4 238/108/4 250/101/4 160/276/4
f 65/213/3 64/103/3 165/102/3 166/245/3
f 21/196/1 230/277/1 245/97/1 117/197/1
f 26/34/4 235/100/4 242/89/4 96/54/4
f 159/278/1 249/246/1 239/253/1 30/255/1
f 145/30/3 146/236/3 27/235/3 28/31/3
f 138/279/2 46/280/2 45/281/2 137/282/2
f 95/144/1 241/158/1 234/150/1 25/143/1
f 118/39/4 246/188/4 231/283/4 22/40/4
f 185/80/3 186/247/3 195/229/3 196/73/3
f 172/256/1 252/173/1 227/284/1 17/285/1
f 17/285/6 227/284/6 228/275/6 19/274/6
f 81/286/4 255/287/4 282/25/4 178/288/4
f 89/18/4 263/289/4 280/29/4 156/19/4
f 92/146/4 266/32/4 277/290/4 141/176/4
f 101/127/5 269/53/5 270/159/5 102/151/5
f 88/291/4 262/5/4 269/53/4 101/127/4
f 80/292/6 254/293/6 255/287/6 81/286/6
f 177/294/1 281/257/1 254/293/1 80/292/1
f 95/144/5 96/54/5 242/89/5 241/158/5
f 88/291/6 87/295/6 261/6/6 262/5/6
f 102/151/1 270/159/1 261/6/1 87/295/1
f 155/20/1 279/237/1 264/296/1 90/17/1
f 142/174/1 278/297/1 265/234/1 91/175/1
f 78/124/1 295/241/1 306/298/1 175/299/1
f 70/300/4 284/301/4 305/302/4 176/303/4
f 127/136/3 128/179/3 83/178/3 84/137/3
f 75/304/4 290/305/4 303/145/4 154/306/4
f 48/165/3 47/87/3 110/86/3 109/134/3
f 72/114/4 287/138/4 299/307/4 114/308/4
f 176/303/4 305/302/4 294/240/4 77/148/4
f 310/153/2 314/156/2 313/116/2 309/119/2
f 153/309/1 304/161/1 291/310/1 76/311/1
f 113/312/1 300/313/1 286/177/1 71/184/1
f 175/299/1 306/298/1 283/314/1 69/315/1
f 69/315/6 283/314/6 284/301/6 70/300/6
f 257/13/5 258/16/5 22/40/5 21/196/5
f 21/196/5 22/40/5 231/283/5 230/277/5
f 125/113/6 316/112/6 315/186/6 126/185/6
f 235/100/3 234/150/3 241/158/3 242/89/3
f 141/176/5 277/290/5 278/297/5 142/174/5
f 293/147/5 92/146/5 91/175/5 292/160/5
f 154/306/5 303/145/5 304/161/5 153/309/5
f 47/87/5 48/165/5 346/316/5 345/317/5
f 311/242/2 318/243/2 317/122/2 312/125/2
f 25/143/3 26/34/3 105/33/3 106/171/3
f 45/281/1 343/4/1 353/21/1 137/282/1
f 47/87/1 345/317/1 349/318/1 121/82/1
f 122/191/4 350/319/4 346/316/4 48/165/4
f 13/221/6 348/220/6 347/24/6 14/23/6
f 138/279/4 354/223/4 344/205/4 46/280/4
f 67/198/3 66/107/3 174/106/3 173/172/3
f 114/308/5 299/307/5 300/313/5 113/312/5
f 84/137/5 83/178/5 286/177/5 287/138/5
f 287/138/3 286/177/3 300/313/3 299/307/3
f 71/184/6 286/177/6 287/138/6 72/114/6
f 125/113/3 126/185/3 71/184/3 72/114/3
f 73/118/6 74/154/6 310/153/6 309/119/6
f 102/151/6 101/127/6 298/126/6 297/152/6
f 305/302/3 284/301/3 283/314/3 306/298/3
f 305/302/3 306/298/3 295/241/3 294/240/3
f 312/125/6 78/124/6 77/148/6 311/242/6
f 29/27/6 30/255/6 239/253/6 238/108/6
f 165/102/6 250/101/6 249/246/6 166/245/6
f 39/261/6 40/264/6 186/247/6 185/80/6
f 196/73/6 195/229/6 150/228/6 149/74/6
f 354/223/6 138/279/6 137/282/6 353/21/6
f 5/206/6 344/205/6 343/4/6 6/3/6
f 197/77/6 198/250/6 163/249/6 164/78/6
f 190/263/3 198/250/3 197/77/3 189/259/3
f 164/78/3 163/249/3 52/248/3 51/79/3
f 228/275/3 227/284/3 252/173/3 251/105/3
f 121/82/6 349/318/6 350/319/6 122/191/6
f 121/82/3 122/191/3 49/190/3 50/83/3
f 134/70/3 133/201/3 32/200/3 31/71/3
f 201/68/2 202/167/2 216/170/2 215/65/2
f 203/193/6 204/64/6 36/63/6 35/194/6
f 204/64/3 203/193/3 220/202/3 219/69/3
f 275/204/6 132/120/6 131/36/6 276/35/6
f 117/197/6 245/97/6 246/188/6 118/39/6
f 273/15/6 274/14/6 117/197/6 118/39/6
f 58/269/5 59/272/5 202/167/5 201/68/5
f 128/179/3 127/136/3 85/182/3 86/238/3
f 106/171/6 105/33/6 272/8/6 271/7/6
f 26/34/6 25/143/6 234/150/6 235/100/6
f 98/157/6 97/90/6 242/89/6 241/158/6
f 63/48/6 62/47/6 205/140/6 206/139/6
f 201/68/6 33/67/6 34/168/6 202/167/6
f 201/68/3 202/167/3 217/162/3 218/61/3
f 18/55/3 96/54/3 95/144/3 20/51/3
f 37/252/5 38/251/5 184/111/5 183/110/5
f 171/26/3 172/256/3 30/255/3 29/27/3
f 255/287/3 254/293/3 281/257/3 282/25/3
f 281/257/6 172/256/6 171/26/6 282/25/6
f 75/304/6 76/311/6 291/310/6 290/305/6
f 167/149/5 168/123/5 317/122/5 318/243/5
f 230/277/3 231/283/3 246/188/3 245/97/3
f 155/20/5 156/19/5 280/29/5 279/237/5
f 91/175/3 92/146/3 156/19/3 155/20/3
f 265/234/5 266/32/5 28/31/5 27/235/5
f 266/32/3 265/234/3 278/297/3 277/290/3
f 354/223/2 353/21/2 347/24/2 348/220/2
f 45/281/5 46/280/5 344/205/5 343/4/5
f 343/4/2 344/205/2 351/208/2 352/1/2
f 95/144/6 96/54/6 269/53/6 270/159/6
f 56/267/5 57/271/5 200/199/5 199/72/5
f 199/72/2 200/199/2 220/202/2 219/69/2
f 181/189/6 182/84/6 50/83/6 49/190/6
f 345/317/3 346/316/3 350/319/3 349/318/3
f 120/195/6 119/62/6 194/81/6 193/192/6
f 209/230/5 210/60/5 42/59/5 41/231/5
f 199/72/6 31/71/6 32/200/6 200/199/6
f 151/273/5 152/266/5 224/57/5 223/233/5
f 187/226/5 188/76/5 54/75/5 53/227/5
f 149/74/3 150/228/3 53/227/3 54/75/3
f 108/66/3 107/169/3 34/168/3 33/67/3
f 33/67/5 34/168/5 180/164/5 179/88/5
f 121/82/5 194/81/5 193/192/5 122/191/5
f 179/88/3 180/164/3 193/192/3 194/81/3
f 236/104/5 64/103/5 65/213/5 237/244/5
f 159/278/5 160/276/5 250/101/5 249/246/5
f 238/108/3 239/253/3 249/246/3 250/101/3
f 139/270/6 140/268/6 222/225/6 221/224/6
f 41/231/3 42/59/3 147/58/3 148/232/3
f 207/215/3 208/214/3 223/233/3 224/57/3
f 147/58/6 224/57/6 223/233/6 148/232/6
f 92/146/6 91/175/6 265/234/6 266/32/6
f 89/18/6 90/17/6 264/296/6 263/289/6
f 263/289/3 264/296/3 279/237/3 280/29/3
f 146/236/6 145/30/6 280/29/6 279/237/6
f 290/305/3 291/310/3 304/161/3 303/145/3
f 129/2/5 352/1/5 351/208/5 130/207/5
f 172/256/5 171/26/5 251/105/5 252/173/5
f 177/294/5 178/288/5 282/25/5 281/257/5
f 76/311/2 75/304/2 154/306/2 153/309/2
f 81/286/2 178/288/2 177/294/2 80/292/2
f 267/28/2 268/254/2 281/257/2 282/25/2
f 17/285/2 19/274/2 171/26/2 172/256/2
f 30/255/2 29/27/2 160/276/2 159/278/2
f 236/104/2 237/244/2 249/246/2 250/101/2
f 166/245/2 67/198/2 66/107/2 165/102/2
f 66/107/5 67/198/5 239/253/5 238/108/5
f 65/213/2 64/103/2 152/266/2 151/273/2
f 161/265/2 44/262/2 43/258/2 162/260/2
f 70/300/2 176/303/2 175/299/2 69/315/2
f 176/303/2 77/148/2 78/124/2 175/299/2
f 266/32/2 265/234/2 279/237/2 280/29/2
f 287/138/2 286/177/2 301/180/2 302/135/2
f 87/295/2 88/291/2 101/127/2 102/151/2
f 62/47/2 63/48/2 97/90/2 98/157/2
f 26/34/5 25/143/5 261/6/5 262/5/5
f 123/44/2 59/272/2 58/269/2 124/43/2
f 71/184/2 72/114/2 114/308/2 113/312/2
f 48/165/2 47/87/2 121/82/2 122/191/2
f 179/88/6 47/87/6 48/165/6 180/164/6
f 107/169/6 108/66/6 191/85/6 192/109/6
f 179/88/2 180/164/2 192/109/2 191/85/2
f 34/168/2 33/67/2 119/62/2 120/195/2
f 235/100/2 234/150/2 244/163/2 243/99/2
f 270/159/2 269/53/2 253/49/2 256/52/2
f 204/64/2 203/193/2 217/162/2 218/61/2
f 210/60/2 209/230/2 223/233/2 224/57/2
f 40/264/2 39/261/2 147/58/2 148/232/2
f 185/80/2 186/247/2 198/250/2 197/77/2
f 185/80/5 51/79/5 52/248/5 186/247/5
f 148/232/5 147/58/5 196/73/5 195/229/5
f 220/202/5 133/201/5 134/70/5 219/69/5
f 233/98/2 232/187/2 246/188/2 245/97/2
f 259/38/5 23/37/5 24/121/5 260/203/5
f 260/203/2 275/204/2 276/35/2 259/38/2
f 57/271/2 56/267/2 140/268/2 139/270/2
f 188/76/2 187/226/2 195/229/2 196/73/2
f 161/265/5 162/260/5 197/77/5 198/250/5
f 238/108/2 239/253/2 252/173/2 251/105/2
f 240/93/2 229/96/2 241/158/2 242/89/2
f 217/162/5 120/195/5 119/62/5 218/61/5
f 123/44/5 124/43/5 245/97/5 246/188/5
f 29/27/5 30/255/5 268/254/5 267/28/5
f 166/245/5 165/102/5 225/10/5 226/9/5
f 135/218/5 136/217/5 353/21/5 354/223/5
f 343/4/3 344/205/3 354/223/3 353/21/3
l 247 248
