# Blender 5.1.1
# www.blender.org
mtllib invader_bullet.mtl
o Cube
v 1.000000 3.000000 -0.500000
v 1.000000 3.000000 0.500000
v -1.000000 -3.000000 -0.500000
v -1.000000 -3.000000 0.500000
v 0.000000 -3.000000 -0.500000
v 0.000000 3.000000 0.500000
v 0.000000 -3.000000 0.500000
v 0.000000 3.000000 -0.500000
v 1.000000 0.000000 -0.500000
v -1.000000 0.000000 0.500000
v 1.000000 0.000000 0.500000
v -1.000000 0.000000 -0.500000
v 0.000000 0.000000 -0.500000
v 0.000000 0.000000 0.500000
v -1.000000 1.980582 0.500000
v 1.000000 1.980582 -0.500000
v 1.000000 1.980582 0.500000
v -1.000000 1.980582 -0.500000
v 0.000000 1.980582 -0.500000
v 0.000000 1.980582 0.500000
v 1.000000 0.990291 -0.500000
v 1.000000 0.990291 0.500000
v -1.000000 0.990291 -0.500000
v 0.000000 0.990291 -0.500000
v 0.000000 0.990291 0.500000
v -1.000000 0.990291 0.500000
v 1.000000 -1.004854 -0.500000
v 1.000000 -1.004854 0.500000
v -1.000000 -1.004854 -0.500000
v 0.000000 -1.004854 -0.500000
v 0.000000 -1.004854 0.500000
v -1.000000 -1.004854 0.500000
v 1.000000 -2.002427 -0.500000
v 1.000000 -2.002427 0.500000
v -1.000000 -2.002427 -0.500000
v 0.000000 -2.002427 -0.500000
v 0.000000 -2.002427 0.500000
v -1.000000 -2.002427 0.500000
vn -0.0000 -1.0000 -0.0000
vn 1.0000 -0.0000 -0.0000
vn -0.0000 -0.0000 -1.0000
vn -0.0000 -0.0000 1.0000
vn -0.0000 1.0000 -0.0000
vn -1.0000 -0.0000 -0.0000
vt 0.582524 0.500000
vt 0.582524 0.750000
vt 0.582524 0.875000
vt 0.582524 0.375000
vt 0.625000 0.500000
vt 0.625000 0.750000
vt 0.625000 0.375000
vt 0.125000 0.500000
vt 0.250000 0.500000
vt 0.250000 0.750000
vt 0.125000 0.750000
vt 0.625000 0.875000
vt 0.750000 0.500000
vt 0.750000 0.750000
vt 0.500000 0.375000
vt 0.500000 0.875000
vt 0.541262 0.875000
vt 0.541262 0.375000
vt 0.458131 0.250000
vt 0.500000 0.250000
vt 0.458131 0.375000
vt 0.416566 0.875000
vt 0.458131 0.875000
vt 0.416566 0.375000
vt 0.416566 0.250000
vt 0.416566 0.000000
vt 0.458131 0.000000
vt 0.500000 0.000000
vt 0.500000 1.000000
vt 0.458131 1.000000
vt 0.541262 0.250000
vt 0.541262 1.000000
vt 0.582524 0.250000
vt 0.541262 0.000000
vt 0.582524 0.000000
vt 0.582524 1.000000
vt 0.500000 0.500000
vt 0.500000 0.750000
vt 0.541262 0.500000
vt 0.541262 0.750000
vt 0.416566 0.500000
vt 0.416566 0.750000
vt 0.458131 0.750000
vt 0.458131 0.500000
vt 0.375000 0.250000
vt 0.375000 0.375000
vt 0.375000 0.000000
vt 0.375000 0.875000
vt 0.416566 1.000000
vt 0.375000 1.000000
s 0
usemtl Material
f 16/1/1 17/2/1 20/3/1 19/4/1
f 16/1/2 1/5/2 2/6/2 17/2/2
f 19/4/3 8/7/3 1/5/3 16/1/3
f 3/8/1 5/9/1 7/10/1 4/11/1
f 17/2/4 2/6/4 6/12/4 20/3/4
f 1/5/5 8/13/5 6/14/5 2/6/5
f 13/15/6 14/16/6 25/17/6 24/18/6
f 29/19/3 12/20/3 13/15/3 30/21/3
f 37/22/6 31/23/6 30/21/6 36/24/6
f 36/24/5 35/25/5 38/26/5 37/22/5
f 32/27/6 10/28/6 12/20/6 29/19/6
f 31/23/4 14/16/4 10/29/4 32/30/4
f 23/31/1 24/18/1 25/17/1 26/32/1
f 23/31/3 18/33/3 19/4/3 24/18/3
f 29/19/1 30/21/1 31/23/1 32/30/1
f 7/10/2 5/9/2 36/24/2 37/22/2
f 26/34/6 15/35/6 18/33/6 23/31/6
f 25/17/4 20/3/4 15/36/4 26/32/4
f 13/15/2 14/16/2 31/23/2 30/21/2
f 9/37/1 11/38/1 14/16/1 13/15/1
f 9/37/2 21/39/2 22/40/2 11/38/2
f 13/15/3 24/18/3 21/39/3 9/37/3
f 33/41/1 34/42/1 37/22/1 36/24/1
f 11/38/4 22/40/4 25/17/4 14/16/4
f 13/15/5 12/20/5 10/28/5 14/16/5
f 31/23/5 28/43/5 27/44/5 30/21/5
f 33/41/2 27/44/2 28/43/2 34/42/2
f 36/24/3 30/21/3 27/44/3 33/41/3
f 25/17/1 24/18/1 21/39/1 22/40/1
f 34/42/4 28/43/4 31/23/4 37/22/4
f 18/33/5 15/35/5 20/3/5 19/4/5
f 3/45/3 35/25/3 36/24/3 5/46/3
f 19/4/2 20/3/2 25/17/2 24/18/2
f 20/3/6 6/12/6 8/13/6 19/4/6
f 4/47/6 38/26/6 35/25/6 3/45/6
f 7/48/4 37/22/4 38/49/4 4/50/4
