# Blender 5.1.1
# www.blender.org
mtllib data/invader_base_2.mtl
o Cube
v 8.000000 -8.000000 -0.500000
v 8.000000 -8.000000 0.500000
v -8.000000 -8.000000 -0.500000
v -8.000000 -8.000000 0.500000
v 0.000000 8.000000 0.500000
v 0.000000 8.000000 -0.500000
v -4.000000 -8.000000 -0.500000
v -4.000000 8.000000 0.500000
v -4.000000 -8.000000 0.500000
v -4.000000 8.000000 -0.500000
v -2.000000 8.000000 -0.500000
v -2.000000 8.000000 0.500000
v -6.000000 -8.000000 -0.500000
v -6.000000 -8.000000 0.500000
v 4.000000 -8.000000 0.500000
v 4.000000 8.000000 -0.500000
v 4.000000 -8.000000 -0.500000
v 4.000000 8.000000 0.500000
v 2.000000 8.000000 0.500000
v 2.000000 8.000000 -0.500000
v 6.000000 -8.000000 0.500000
v 6.000000 -8.000000 -0.500000
v 8.000000 0.000000 -0.500000
v -8.000000 0.000000 0.500000
v 8.000000 0.000000 0.500000
v -8.000000 0.000000 -0.500000
v 0.000000 0.000000 -0.500000
v 0.000000 0.000000 0.500000
v -4.000000 0.000000 -0.500000
v -4.000000 0.000000 0.500000
v -2.000000 0.000000 0.500000
v -2.000000 0.000000 -0.500000
v -6.000000 0.000000 -0.500000
v -6.000000 0.000000 0.500000
v 4.000000 0.000000 0.500000
v 4.000000 0.000000 -0.500000
v 2.000000 0.000000 -0.500000
v 2.000000 0.000000 0.500000
v 6.000000 0.000000 0.500000
v 6.000000 0.000000 -0.500000
v -8.000000 4.000000 0.500000
v 8.000000 4.000000 -0.500000
v 8.000000 4.000000 0.500000
v -8.000000 4.000000 -0.500000
v 0.000000 4.000000 -0.500000
v 0.000000 4.000000 0.500000
v -4.000000 4.000000 -0.500000
v -4.000000 4.000000 0.500000
v -2.000000 4.000000 0.500000
v -2.000000 4.000000 -0.500000
v -6.000000 4.000000 -0.500000
v -6.000000 4.000000 0.500000
v 4.000000 4.000000 0.500000
v 4.000000 4.000000 -0.500000
v 2.000000 4.000000 -0.500000
v 2.000000 4.000000 0.500000
v 6.000000 4.000000 0.500000
v 6.000000 4.000000 -0.500000
v 0.000000 5.985402 -0.500000
v 0.000000 5.985402 0.500000
v -4.000000 5.985402 -0.500000
v -4.000000 5.985402 0.500000
v -2.000000 5.985402 0.500000
v -2.000000 5.985402 -0.500000
v 4.000000 5.985402 0.500000
v 4.000000 5.985402 -0.500000
v 2.000000 5.985402 -0.500000
v 2.000000 5.985402 0.500000
v 6.000000 5.985402 0.500000
v 6.000000 5.985402 -0.500000
v 8.000000 2.000000 -0.500000
v 8.000000 2.000000 0.500000
v -8.000000 2.000000 -0.500000
v 0.000000 2.000000 -0.500000
v 0.000000 2.000000 0.500000
v -4.000000 2.000000 -0.500000
v -4.000000 2.000000 0.500000
v -2.000000 2.000000 0.500000
v -2.000000 2.000000 -0.500000
v -6.000000 2.000000 -0.500000
v -6.000000 2.000000 0.500000
v 4.000000 2.000000 0.500000
v 4.000000 2.000000 -0.500000
v 2.000000 2.000000 -0.500000
v 2.000000 2.000000 0.500000
v 6.000000 2.000000 0.500000
v 6.000000 2.000000 -0.500000
v -8.000000 2.000000 0.500000
v 8.000000 -4.000000 -0.500000
v 8.000000 -4.000000 0.500000
v -8.000000 -4.000000 -0.500000
v -4.000000 -4.000000 -0.500000
v -4.000000 -4.000000 0.500000
v -6.000000 -4.000000 -0.500000
v -6.000000 -4.000000 0.500000
v 4.000000 -4.000000 0.500000
v 4.000000 -4.000000 -0.500000
v 6.000000 -4.000000 0.500000
v 6.000000 -4.000000 -0.500000
v -8.000000 -4.000000 0.500000
v -8.000000 -2.000000 0.500000
v 8.000000 -2.000000 -0.500000
v 8.000000 -2.000000 0.500000
v -8.000000 -2.000000 -0.500000
v -4.000000 -2.000000 -0.500000
v -4.000000 -2.000000 0.500000
v -2.000000 -2.000000 0.500000
v -2.000000 -2.000000 -0.500000
v -6.000000 -2.000000 -0.500000
v -6.000000 -2.000000 0.500000
v 4.000000 -2.000000 0.500000
v 4.000000 -2.000000 -0.500000
v 2.000000 -2.000000 -0.500000
v 2.000000 -2.000000 0.500000
v 6.000000 -2.000000 0.500000
v 6.000000 -2.000000 -0.500000
v -7.000000 -8.000000 -0.500000
v -7.000000 -8.000000 0.500000
v -7.000000 0.000000 -0.500000
v -7.000000 0.000000 0.500000
v -7.000000 4.000000 -0.500000
v -7.000000 4.000000 0.500000
v -7.000000 2.000000 0.500000
v -7.000000 2.000000 -0.500000
v -7.000000 -4.000000 0.500000
v -7.000000 -4.000000 -0.500000
v -7.000000 -2.000000 0.500000
v -7.000000 -2.000000 -0.500000
v -5.014493 -8.000000 0.500000
v -5.014493 -8.000000 -0.500000
v -5.014493 0.000000 0.500000
v -5.014493 0.000000 -0.500000
v -5.014493 4.000000 0.500000
v -5.014493 4.000000 -0.500000
v -5.014493 5.985402 0.500000
v -5.014493 5.985402 -0.500000
v -5.014493 2.000000 -0.500000
v -5.014493 2.000000 0.500000
v -5.014493 -4.000000 -0.500000
v -5.014493 -4.000000 0.500000
v -5.014493 -2.000000 -0.500000
v -5.014493 -2.000000 0.500000
v -3.000000 -8.000000 -0.500000
v -3.000000 8.000000 0.500000
v -3.000000 -8.000000 0.500000
v -3.000000 8.000000 -0.500000
v -3.000000 0.000000 -0.500000
v -3.000000 0.000000 0.500000
v -3.000000 4.000000 -0.500000
v -3.000000 4.000000 0.500000
v -3.000000 5.985402 -0.500000
v -3.000000 5.985402 0.500000
v -3.000000 2.000000 0.500000
v -3.000000 2.000000 -0.500000
v -3.000000 -4.000000 0.500000
v -3.000000 -4.000000 -0.500000
v -3.000000 -2.000000 0.500000
v -3.000000 -2.000000 -0.500000
v -1.000000 8.000000 -0.500000
v -1.000000 8.000000 0.500000
v -1.000000 0.000000 0.500000
v -1.000000 0.000000 -0.500000
v -1.000000 4.000000 0.500000
v -1.000000 4.000000 -0.500000
v -1.000000 5.985402 0.500000
v -1.000000 5.985402 -0.500000
v -1.000000 2.000000 -0.500000
v -1.000000 2.000000 0.500000
v -1.000000 -2.000000 -0.500000
v -1.000000 -2.000000 0.500000
v 1.000000 8.000000 0.500000
v 1.000000 8.000000 -0.500000
v 1.000000 0.000000 -0.500000
v 1.000000 0.000000 0.500000
v 1.000000 4.000000 -0.500000
v 1.000000 4.000000 0.500000
v 1.000000 5.985402 -0.500000
v 1.000000 5.985402 0.500000
v 1.000000 2.000000 0.500000
v 1.000000 2.000000 -0.500000
v 1.000000 -2.000000 0.500000
v 1.000000 -2.000000 -0.500000
v 3.000000 -8.000000 0.500000
v 3.000000 8.000000 -0.500000
v 3.000000 -8.000000 -0.500000
v 3.000000 8.000000 0.500000
v 3.000000 0.000000 0.500000
v 3.000000 0.000000 -0.500000
v 3.000000 4.000000 0.500000
v 3.000000 4.000000 -0.500000
v 3.000000 5.985402 0.500000
v 3.000000 5.985402 -0.500000
v 3.000000 2.000000 -0.500000
v 3.000000 2.000000 0.500000
v 3.000000 -4.000000 -0.500000
v 3.000000 -4.000000 0.500000
v 3.000000 -2.000000 -0.500000
v 3.000000 -2.000000 0.500000
v 5.000000 -8.000000 -0.500000
v 5.000000 -8.000000 0.500000
v 5.000000 0.000000 -0.500000
v 5.000000 0.000000 0.500000
v 5.000000 4.000000 -0.500000
v 5.000000 4.000000 0.500000
v 5.000000 5.985402 -0.500000
v 5.000000 5.985402 0.500000
v 5.000000 2.000000 0.500000
v 5.000000 2.000000 -0.500000
v 5.000000 -4.000000 0.500000
v 5.000000 -4.000000 -0.500000
v 5.000000 -2.000000 0.500000
v 5.000000 -2.000000 -0.500000
v 7.000000 -8.000000 0.500000
v 7.000000 -8.000000 -0.500000
v 7.000000 0.000000 0.500000
v 7.000000 0.000000 -0.500000
v 7.000000 4.000000 0.500000
v 7.000000 4.000000 -0.500000
v 7.000000 2.000000 -0.500000
v 7.000000 2.000000 0.500000
v 7.000000 -4.000000 -0.500000
v 7.000000 -4.000000 0.500000
v 7.000000 -2.000000 -0.500000
v 7.000000 -2.000000 0.500000
v 0.000000 4.992701 -0.500000
v 0.000000 4.992701 0.500000
v -4.000000 4.992701 -0.500000
v -4.000000 4.992701 0.500000
v -2.000000 4.992701 0.500000
v -2.000000 4.992701 -0.500000
v -6.000000 4.992701 -0.500000
v -6.000000 4.992701 0.500000
v 4.000000 4.992701 0.500000
v 4.000000 4.992701 -0.500000
v 2.000000 4.992701 -0.500000
v 2.000000 4.992701 0.500000
v 6.000000 4.992701 0.500000
v 6.000000 4.992701 -0.500000
v -7.000000 4.992701 0.500000
v -7.000000 4.992701 -0.500000
v -5.014493 4.992701 -0.500000
v -5.014493 4.992701 0.500000
v -3.000000 4.992701 0.500000
v -3.000000 4.992701 -0.500000
v -1.000000 4.992701 -0.500000
v -1.000000 4.992701 0.500000
v 1.000000 4.992701 0.500000
v 1.000000 4.992701 -0.500000
v 3.000000 4.992701 -0.500000
v 3.000000 4.992701 0.500000
v 5.000000 4.992701 0.500000
v 5.000000 4.992701 -0.500000
v 7.000000 4.992701 -0.500000
v 7.000000 4.992701 0.500000
v -8.000000 2.985294 0.500000
v 8.000000 2.985294 -0.500000
v 8.000000 2.985294 0.500000
v -8.000000 2.985294 -0.500000
v 0.000000 2.985294 -0.500000
v 0.000000 2.985294 0.500000
v -4.000000 2.985294 -0.500000
v -4.000000 2.985294 0.500000
v -2.000000 2.985294 0.500000
v -2.000000 2.985294 -0.500000
v -6.000000 2.985294 -0.500000
v -6.000000 2.985294 0.500000
v 4.000000 2.985294 0.500000
v 4.000000 2.985294 -0.500000
v 2.000000 2.985294 -0.500000
v 2.000000 2.985294 0.500000
v 6.000000 2.985294 0.500000
v 6.000000 2.985294 -0.500000
v -7.000000 2.985294 0.500000
v -7.000000 2.985294 -0.500000
v -5.014493 2.985294 -0.500000
v -5.014493 2.985294 0.500000
v -3.000000 2.985294 0.500000
v -3.000000 2.985294 -0.500000
v -1.000000 2.985294 -0.500000
v -1.000000 2.985294 0.500000
v 1.000000 2.985294 0.500000
v 1.000000 2.985294 -0.500000
v 3.000000 2.985294 -0.500000
v 3.000000 2.985294 0.500000
v 5.000000 2.985294 0.500000
v 5.000000 2.985294 -0.500000
v 7.000000 2.985294 -0.500000
v 7.000000 2.985294 0.500000
v 8.000000 1.000000 -0.500000
v 8.000000 1.000000 0.500000
v -8.000000 1.000000 -0.500000
v 0.000000 1.000000 -0.500000
v 0.000000 1.000000 0.500000
v -4.000000 1.000000 -0.500000
v -4.000000 1.000000 0.500000
v -2.000000 1.000000 0.500000
v -2.000000 1.000000 -0.500000
v -6.000000 1.000000 -0.500000
v -6.000000 1.000000 0.500000
v 4.000000 1.000000 0.500000
v 4.000000 1.000000 -0.500000
v 2.000000 1.000000 -0.500000
v 2.000000 1.000000 0.500000
v 6.000000 1.000000 0.500000
v 6.000000 1.000000 -0.500000
v -8.000000 1.000000 0.500000
v -7.000000 1.000000 -0.500000
v -7.000000 1.000000 0.500000
v -5.014493 1.000000 0.500000
v -5.014493 1.000000 -0.500000
v -3.000000 1.000000 -0.500000
v -3.000000 1.000000 0.500000
v -1.000000 1.000000 0.500000
v -1.000000 1.000000 -0.500000
v 1.000000 1.000000 -0.500000
v 1.000000 1.000000 0.500000
v 3.000000 1.000000 0.500000
v 3.000000 1.000000 -0.500000
v 5.000000 1.000000 -0.500000
v 5.000000 1.000000 0.500000
v 7.000000 1.000000 0.500000
v 7.000000 1.000000 -0.500000
v -8.000000 -1.000000 0.500000
v 8.000000 -1.000000 -0.500000
v 8.000000 -1.000000 0.500000
v -8.000000 -1.000000 -0.500000
v 0.000000 -1.000000 -0.500000
v 0.000000 -1.000000 0.500000
v -4.000000 -1.000000 -0.500000
v -4.000000 -1.000000 0.500000
v -2.000000 -1.000000 0.500000
v -2.000000 -1.000000 -0.500000
v -6.000000 -1.000000 -0.500000
v -6.000000 -1.000000 0.500000
v 4.000000 -1.000000 0.500000
v 4.000000 -1.000000 -0.500000
v 2.000000 -1.000000 -0.500000
v 2.000000 -1.000000 0.500000
v 6.000000 -1.000000 0.500000
v 6.000000 -1.000000 -0.500000
v -7.000000 -1.000000 0.500000
v -7.000000 -1.000000 -0.500000
v -5.014493 -1.000000 -0.500000
v -5.014493 -1.000000 0.500000
v -3.000000 -1.000000 0.500000
v -3.000000 -1.000000 -0.500000
v -1.000000 -1.000000 -0.500000
v -1.000000 -1.000000 0.500000
v 1.000000 -1.000000 0.500000
v 1.000000 -1.000000 -0.500000
v 3.000000 -1.000000 -0.500000
v 3.000000 -1.000000 0.500000
v 5.000000 -1.000000 0.500000
v 5.000000 -1.000000 -0.500000
v 7.000000 -1.000000 -0.500000
v 7.000000 -1.000000 0.500000
v 8.000000 -3.000000 -0.500000
v 8.000000 -3.000000 0.500000
v -8.000000 -3.000000 -0.500000
v -4.000000 -3.000000 -0.500000
v -4.000000 -3.000000 0.500000
v -2.000000 -3.000000 0.500000
v -2.000000 -3.000000 -0.500000
v -6.000000 -3.000000 -0.500000
v -6.000000 -3.000000 0.500000
v 4.000000 -3.000000 0.500000
v 4.000000 -3.000000 -0.500000
v 2.000000 -3.000000 -0.500000
v 2.000000 -3.000000 0.500000
v 6.000000 -3.000000 0.500000
v 6.000000 -3.000000 -0.500000
v -8.000000 -3.000000 0.500000
v -7.000000 -3.000000 -0.500000
v -7.000000 -3.000000 0.500000
v -5.014493 -3.000000 0.500000
v -5.014493 -3.000000 -0.500000
v -3.000000 -3.000000 -0.500000
v -3.000000 -3.000000 0.500000
v 3.000000 -3.000000 0.500000
v 3.000000 -3.000000 -0.500000
v 5.000000 -3.000000 -0.500000
v 5.000000 -3.000000 0.500000
v 7.000000 -3.000000 0.500000
v 7.000000 -3.000000 -0.500000
v -8.000000 -5.014706 0.500000
v -8.000000 -5.014706 -0.500000
v -4.000000 -5.014706 -0.500000
v -4.000000 -5.014706 0.500000
v -6.000000 -5.014706 -0.500000
v -6.000000 -5.014706 0.500000
v 4.000000 -5.014706 0.500000
v 4.000000 -5.014706 -0.500000
v 6.000000 -5.014706 0.500000
v 6.000000 -5.014706 -0.500000
v -7.000000 -5.014706 -0.500000
v -7.000000 -5.014706 0.500000
v -5.014493 -5.014706 0.500000
v -5.014493 -5.014706 -0.500000
v -3.000000 -5.014706 -0.500000
v -3.000000 -5.014706 0.500000
v 3.000000 -5.014706 0.500000
v 3.000000 -5.014706 -0.500000
v 5.000000 -5.014706 -0.500000
v 5.000000 -5.014706 0.500000
v 7.000000 -5.014706 0.500000
v 7.000000 -5.014706 -0.500000
v 8.000000 -7.000000 -0.500000
v 8.000000 -7.000000 0.500000
v -8.000000 -7.000000 -0.500000
v -4.000000 -7.000000 -0.500000
v -4.000000 -7.000000 0.500000
v -6.000000 -7.000000 -0.500000
v -6.000000 -7.000000 0.500000
v 4.000000 -7.000000 0.500000
v 4.000000 -7.000000 -0.500000
v 6.000000 -7.000000 0.500000
v 6.000000 -7.000000 -0.500000
v -8.000000 -7.000000 0.500000
v -7.000000 -7.000000 0.500000
v -7.000000 -7.000000 -0.500000
v -5.014493 -7.000000 -0.500000
v -5.014493 -7.000000 0.500000
v -3.000000 -7.000000 0.500000
v -3.000000 -7.000000 -0.500000
v 3.000000 -7.000000 -0.500000
v 3.000000 -7.000000 0.500000
v 5.000000 -7.000000 0.500000
v 5.000000 -7.000000 -0.500000
v 7.000000 -7.000000 -0.500000
v 7.000000 -7.000000 0.500000
v 0.000000 6.978102 -0.500000
v 0.000000 6.978102 0.500000
v -4.000000 6.978102 -0.500000
v -4.000000 6.978102 0.500000
v -2.000000 6.978102 0.500000
v -2.000000 6.978102 -0.500000
v 4.000000 6.978102 0.500000
v 4.000000 6.978102 -0.500000
v 2.000000 6.978102 -0.500000
v 2.000000 6.978102 0.500000
v -5.014493 6.978102 0.500000
v -5.014493 6.978102 -0.500000
v -3.000000 6.978102 -0.500000
v -3.000000 6.978102 0.500000
v -1.000000 6.978102 0.500000
v -1.000000 6.978102 -0.500000
v 1.000000 6.978102 -0.500000
v 1.000000 6.978102 0.500000
v 3.000000 6.978102 0.500000
v 3.000000 6.978102 -0.500000
vn -0.0000 1.0000 -0.0000
vn -1.0000 -0.0000 -0.0000
vn -0.0000 -0.0000 -1.0000
vn -0.0000 -0.0000 1.0000
vn 1.0000 -0.0000 -0.0000
vn -0.0000 -1.0000 -0.0000
vt 0.562500 0.250000
vt 0.562500 1.000000
vt 0.562500 0.984375
vt 0.562500 0.265625
vt 0.578011 0.984375
vt 0.578011 0.265625
vt 0.609033 0.359375
vt 0.625000 0.359375
vt 0.625000 0.375000
vt 0.609033 0.375000
vt 0.578011 0.296649
vt 0.578011 0.953351
vt 0.593522 0.953351
vt 0.593522 0.296649
vt 0.609033 0.921875
vt 0.625000 0.921875
vt 0.625000 0.937500
vt 0.609033 0.937500
vt 0.796875 0.500000
vt 0.812500 0.500000
vt 0.812500 0.750000
vt 0.796875 0.750000
vt 0.765625 0.500000
vt 0.781250 0.500000
vt 0.781250 0.750000
vt 0.765625 0.750000
vt 0.609033 0.890625
vt 0.625000 0.890625
vt 0.625000 0.906250
vt 0.609033 0.906250
vt 0.578011 0.968750
vt 0.578011 0.281250
vt 0.609033 0.421875
vt 0.625000 0.421875
vt 0.625000 0.437500
vt 0.609033 0.437500
vt 0.609033 0.390625
vt 0.625000 0.390625
vt 0.625000 0.406250
vt 0.609033 0.406250
vt 0.703125 0.500000
vt 0.718750 0.500000
vt 0.718750 0.750000
vt 0.703125 0.750000
vt 0.609033 0.828125
vt 0.625000 0.828125
vt 0.625000 0.843750
vt 0.609033 0.843750
vt 0.484375 0.765625
vt 0.500000 0.765625
vt 0.500000 0.781250
vt 0.484375 0.781250
vt 0.484375 0.828125
vt 0.500000 0.828125
vt 0.500000 0.843750
vt 0.484375 0.843750
vt 0.484375 0.421875
vt 0.500000 0.421875
vt 0.500000 0.437500
vt 0.484375 0.437500
vt 0.484375 0.796875
vt 0.500000 0.796875
vt 0.500000 0.812500
vt 0.484375 0.812500
vt 0.484375 0.953351
vt 0.500000 0.953351
vt 0.500000 0.968750
vt 0.484375 0.968750
vt 0.484375 0.265625
vt 0.500000 0.265625
vt 0.500000 0.281250
vt 0.484375 0.281250
vt 0.484375 0.890625
vt 0.500000 0.890625
vt 0.500000 0.906250
vt 0.484375 0.906250
vt 0.484375 0.921875
vt 0.500000 0.921875
vt 0.500000 0.937500
vt 0.484375 0.937500
vt 0.484375 0.296649
vt 0.500000 0.296649
vt 0.500000 0.312500
vt 0.484375 0.312500
vt 0.484375 0.859375
vt 0.500000 0.859375
vt 0.500000 0.875000
vt 0.484375 0.875000
vt 0.484375 0.359375
vt 0.500000 0.359375
vt 0.500000 0.375000
vt 0.484375 0.375000
vt 0.484375 0.484375
vt 0.500000 0.484375
vt 0.500000 0.500000
vt 0.484375 0.500000
vt 0.500000 0.750000
vt 0.484375 0.750000
vt 0.484375 0.000000
vt 0.500000 0.000000
vt 0.500000 0.250000
vt 0.484375 0.250000
vt 0.484375 0.984375
vt 0.500000 0.984375
vt 0.500000 1.000000
vt 0.484375 1.000000
vt 0.546645 0.765625
vt 0.562500 0.765625
vt 0.562500 0.781250
vt 0.546645 0.781250
vt 0.546645 0.828125
vt 0.562500 0.828125
vt 0.562500 0.843750
vt 0.546645 0.843750
vt 0.546645 0.421875
vt 0.562500 0.421875
vt 0.562500 0.437500
vt 0.546645 0.437500
vt 0.546645 0.796875
vt 0.562500 0.796875
vt 0.562500 0.812500
vt 0.546645 0.812500
vt 0.546645 0.953351
vt 0.562500 0.953351
vt 0.562500 0.968750
vt 0.546645 0.968750
vt 0.546645 0.265625
vt 0.562500 0.281250
vt 0.546645 0.281250
vt 0.546645 0.328125
vt 0.562500 0.328125
vt 0.562500 0.343750
vt 0.546645 0.343750
vt 0.546645 0.921875
vt 0.562500 0.921875
vt 0.562500 0.937500
vt 0.546645 0.937500
vt 0.546645 0.296649
vt 0.562500 0.296649
vt 0.562500 0.312500
vt 0.546645 0.312500
vt 0.546645 0.859375
vt 0.562500 0.859375
vt 0.562500 0.875000
vt 0.546645 0.875000
vt 0.546645 0.359375
vt 0.562500 0.359375
vt 0.562500 0.375000
vt 0.546645 0.375000
vt 0.546645 0.484375
vt 0.562500 0.484375
vt 0.562500 0.500000
vt 0.546645 0.500000
vt 0.562500 0.750000
vt 0.546645 0.750000
vt 0.546645 0.000000
vt 0.562500 0.000000
vt 0.546645 0.250000
vt 0.546645 0.984375
vt 0.546645 1.000000
vt 0.578011 0.453125
vt 0.593522 0.453125
vt 0.593522 0.468750
vt 0.578011 0.468750
vt 0.578011 0.828125
vt 0.593522 0.828125
vt 0.593522 0.843750
vt 0.578011 0.843750
vt 0.578011 0.390625
vt 0.593522 0.390625
vt 0.593522 0.406250
vt 0.578011 0.406250
vt 0.578011 0.796875
vt 0.593522 0.796875
vt 0.593522 0.812500
vt 0.578011 0.812500
vt 0.578011 0.328125
vt 0.593522 0.328125
vt 0.593522 0.343750
vt 0.578011 0.343750
vt 0.578011 0.890625
vt 0.593522 0.890625
vt 0.593522 0.906250
vt 0.578011 0.906250
vt 0.593522 0.312500
vt 0.578011 0.312500
vt 0.578011 0.859375
vt 0.593522 0.859375
vt 0.593522 0.875000
vt 0.578011 0.875000
vt 0.578011 0.359375
vt 0.593522 0.359375
vt 0.593522 0.375000
vt 0.578011 0.375000
vt 0.562500 0.890625
vt 0.515625 0.984375
vt 0.531250 0.984375
vt 0.531250 1.000000
vt 0.515625 1.000000
vt 0.515625 0.000000
vt 0.531250 0.000000
vt 0.531250 0.250000
vt 0.515625 0.250000
vt 0.515625 0.500000
vt 0.531250 0.500000
vt 0.531250 0.750000
vt 0.515625 0.750000
vt 0.515625 0.484375
vt 0.531250 0.484375
vt 0.515625 0.359375
vt 0.531250 0.359375
vt 0.531250 0.375000
vt 0.515625 0.375000
vt 0.515625 0.296649
vt 0.531250 0.296649
vt 0.531250 0.312500
vt 0.515625 0.312500
vt 0.515625 0.890625
vt 0.531250 0.890625
vt 0.531250 0.906250
vt 0.515625 0.906250
vt 0.515625 0.328125
vt 0.531250 0.328125
vt 0.531250 0.343750
vt 0.515625 0.343750
vt 0.515625 0.953351
vt 0.531250 0.953351
vt 0.531250 0.968750
vt 0.515625 0.968750
vt 0.515625 0.796875
vt 0.531250 0.796875
vt 0.531250 0.812500
vt 0.515625 0.812500
vt 0.515625 0.390625
vt 0.531250 0.390625
vt 0.531250 0.406250
vt 0.515625 0.406250
vt 0.515625 0.828125
vt 0.531250 0.828125
vt 0.531250 0.843750
vt 0.515625 0.843750
vt 0.515625 0.765625
vt 0.531250 0.765625
vt 0.531250 0.781250
vt 0.515625 0.781250
vt 0.515625 0.453125
vt 0.531250 0.453125
vt 0.531250 0.468750
vt 0.515625 0.468750
vt 0.421645 0.984375
vt 0.437500 0.984375
vt 0.437500 1.000000
vt 0.421645 1.000000
vt 0.421645 0.000000
vt 0.437500 0.000000
vt 0.437500 0.250000
vt 0.421645 0.250000
vt 0.609033 0.859375
vt 0.625000 0.859375
vt 0.734375 0.500000
vt 0.421645 0.296649
vt 0.437500 0.296649
vt 0.437500 0.312500
vt 0.421645 0.312500
vt 0.421645 0.921875
vt 0.437500 0.921875
vt 0.437500 0.937500
vt 0.421645 0.937500
vt 0.421645 0.265625
vt 0.437500 0.265625
vt 0.437500 0.281250
vt 0.421645 0.281250
vt 0.421645 0.953351
vt 0.437500 0.953351
vt 0.437500 0.968750
vt 0.421645 0.968750
vt 0.421645 0.796875
vt 0.437500 0.796875
vt 0.437500 0.812500
vt 0.421645 0.812500
vt 0.421645 0.421875
vt 0.437500 0.421875
vt 0.437500 0.437500
vt 0.421645 0.437500
vt 0.421645 0.765625
vt 0.437500 0.765625
vt 0.437500 0.781250
vt 0.421645 0.781250
vt 0.421645 0.453125
vt 0.437500 0.453125
vt 0.437500 0.468750
vt 0.421645 0.468750
vt 0.453125 0.984375
vt 0.468750 0.984375
vt 0.468750 1.000000
vt 0.453125 1.000000
vt 0.453125 0.000000
vt 0.468750 0.000000
vt 0.468750 0.250000
vt 0.453125 0.250000
vt 0.453125 0.500000
vt 0.468750 0.500000
vt 0.468750 0.750000
vt 0.453125 0.750000
vt 0.453125 0.484375
vt 0.468750 0.484375
vt 0.453125 0.921875
vt 0.468750 0.921875
vt 0.468750 0.937500
vt 0.453125 0.937500
vt 0.453125 0.328125
vt 0.468750 0.328125
vt 0.468750 0.343750
vt 0.453125 0.343750
vt 0.453125 0.953351
vt 0.468750 0.953351
vt 0.468750 0.968750
vt 0.453125 0.968750
vt 0.453125 0.796875
vt 0.468750 0.796875
vt 0.468750 0.812500
vt 0.453125 0.812500
vt 0.453125 0.421875
vt 0.468750 0.421875
vt 0.468750 0.437500
vt 0.453125 0.437500
vt 0.578011 0.484375
vt 0.578011 0.765625
vt 0.453125 0.828125
vt 0.468750 0.828125
vt 0.468750 0.843750
vt 0.453125 0.843750
vt 0.421645 0.484375
vt 0.468750 0.265625
vt 0.453125 0.265625
vt 0.531250 0.265625
vt 0.515625 0.265625
vt 0.546645 0.906250
vt 0.546645 0.890625
vt 0.453125 0.406250
vt 0.421645 0.828125
vt 0.437500 0.828125
vt 0.453125 0.281250
vt 0.468750 0.281250
vt 0.468750 0.296649
vt 0.453125 0.296649
vt 0.515625 0.937500
vt 0.531250 0.937500
vt 0.515625 0.281250
vt 0.531250 0.281250
vt 0.578011 0.937500
vt 0.593522 0.937500
vt 0.609033 0.953351
vt 0.609033 0.296649
vt 0.468750 0.390625
vt 0.468750 0.406250
vt 0.468750 0.859375
vt 0.453125 0.312500
vt 0.468750 0.312500
vt 0.453125 0.906250
vt 0.468750 0.906250
vt 0.437500 0.328125
vt 0.421645 0.328125
vt 0.531250 0.921875
vt 0.515625 0.921875
vt 0.593522 0.921875
vt 0.578011 0.921875
vt 0.562500 0.906250
vt 0.500000 0.328125
vt 0.484375 0.328125
vt 0.609033 0.312500
vt 0.625000 0.312500
vt 0.625000 0.328125
vt 0.609033 0.328125
vt 0.578011 0.781250
vt 0.515625 0.875000
vt 0.531250 0.875000
vt 0.484375 0.343750
vt 0.500000 0.343750
vt 0.609033 0.875000
vt 0.625000 0.875000
vt 0.750000 0.500000
vt 0.750000 0.750000
vt 0.609033 0.343750
vt 0.625000 0.343750
vt 0.593522 0.781250
vt 0.531250 0.859375
vt 0.515625 0.859375
vt 0.562500 0.390625
vt 0.546645 0.390625
vt 0.500000 0.390625
vt 0.484375 0.390625
vt 0.734375 0.750000
vt 0.531250 0.421875
vt 0.515625 0.421875
vt 0.593522 0.421875
vt 0.578011 0.421875
vt 0.546645 0.406250
vt 0.562500 0.406250
vt 0.484375 0.406250
vt 0.500000 0.406250
vt 0.609033 0.812500
vt 0.625000 0.812500
vt 0.687500 0.500000
vt 0.687500 0.750000
vt 0.468750 0.890625
vt 0.468750 0.359375
vt 0.468750 0.453125
vt 0.453125 0.453125
vt 0.515625 0.437500
vt 0.531250 0.437500
vt 0.578011 0.437500
vt 0.593522 0.437500
vt 0.562500 0.453125
vt 0.546645 0.453125
vt 0.500000 0.453125
vt 0.484375 0.453125
vt 0.468750 0.765625
vt 0.453125 0.765625
vt 0.437500 0.484375
vt 0.546645 0.468750
vt 0.562500 0.468750
vt 0.484375 0.468750
vt 0.500000 0.468750
vt 0.468750 0.468750
vt 0.468750 0.781250
vt 0.453125 0.468750
vt 0.437500 0.750000
vt 0.453125 0.781250
vt 0.437500 0.500000
s 0
usemtl Material
f 44/1/1 41/2/1 122/3/1 121/4/1
f 122/3/2 239/5/2 240/6/2 121/4/2
f 446/7/3 159/8/3 6/9/3 431/10/3
f 241/11/2 242/12/2 135/13/2 136/14/2
f 444/15/4 144/16/4 8/17/4 434/18/4
f 146/19/1 10/20/1 8/21/1 144/22/1
f 159/23/1 11/24/1 12/25/1 160/26/1
f 445/27/4 160/28/4 12/29/4 435/30/4
f 239/5/1 232/31/1 231/32/1 240/6/1
f 450/33/3 184/34/3 16/35/3 438/36/3
f 447/37/3 172/38/3 20/39/3 439/40/3
f 184/41/1 20/42/1 19/43/1 186/44/1
f 449/45/4 186/46/4 19/47/4 440/48/4
f 356/49/4 215/50/4 39/51/4 339/52/4
f 352/53/4 187/54/4 38/55/4 338/56/4
f 351/57/3 188/58/3 36/59/3 336/60/3
f 353/61/4 202/62/4 35/63/4 335/64/4
f 344/65/4 131/66/4 34/67/4 334/68/4
f 342/69/3 119/70/3 33/71/3 333/72/3
f 348/73/4 161/74/4 31/75/4 331/76/4
f 345/77/4 148/78/4 30/79/4 330/80/4
f 343/81/3 132/82/3 29/83/3 329/84/3
f 349/85/4 174/86/4 28/87/4 328/88/4
f 347/89/3 162/90/3 27/91/3 327/92/3
f 355/93/3 216/94/3 23/95/3 324/96/3
f 324/96/5 23/95/5 25/97/5 325/98/5
f 323/99/2 24/100/2 26/101/2 326/102/2
f 341/103/4 120/104/4 24/105/4 323/106/4
f 288/107/4 217/108/4 57/109/4 271/110/4
f 284/111/4 189/112/4 56/113/4 270/114/4
f 283/115/3 190/116/3 54/117/3 268/118/3
f 285/119/4 204/120/4 53/121/4 267/122/4
f 276/123/4 133/124/4 52/125/4 266/126/4
f 274/127/3 121/4/3 51/128/3 265/129/3
f 278/130/3 149/131/3 50/132/3 264/133/3
f 277/134/4 150/135/4 48/136/4 262/137/4
f 275/138/3 134/139/3 47/140/3 261/141/3
f 281/142/4 176/143/4 46/144/4 260/145/4
f 279/146/3 164/147/3 45/148/3 259/149/3
f 287/150/3 218/151/3 42/152/3 256/153/3
f 256/153/5 42/152/5 43/154/5 257/155/5
f 255/156/2 41/157/2 44/1/2 258/158/2
f 273/159/4 122/3/4 41/2/4 255/160/4
f 252/161/3 205/162/3 70/163/3 238/164/3
f 250/165/4 191/166/4 68/167/4 236/168/4
f 248/169/3 177/170/3 67/171/3 235/172/3
f 251/173/4 206/174/4 65/175/4 233/176/4
f 244/177/3 151/178/3 64/179/3 230/180/3
f 246/181/4 165/182/4 63/183/4 229/184/4
f 241/11/3 136/14/3 61/185/3 227/186/3
f 247/187/4 178/188/4 60/189/4 226/190/4
f 245/191/3 166/192/3 59/193/3 225/194/3
f 164/147/1 163/195/1 46/144/1 45/148/1
f 308/196/4 123/197/4 88/198/4 306/199/4
f 306/200/2 88/201/2 73/202/2 291/203/2
f 289/204/5 71/205/5 72/206/5 290/207/5
f 322/208/3 219/209/3 71/205/3 289/204/3
f 314/210/3 167/211/3 74/212/3 292/213/3
f 310/214/3 137/215/3 76/216/3 294/217/3
f 313/218/4 168/219/4 78/220/4 296/221/4
f 311/222/3 154/223/3 79/224/3 297/225/3
f 309/226/4 138/227/4 81/228/4 299/229/4
f 320/230/4 207/231/4 82/232/4 300/233/4
f 315/234/3 180/235/3 84/236/3 302/237/3
f 317/238/4 194/239/4 85/240/4 303/241/4
f 321/242/4 220/243/4 86/244/4 304/245/4
f 319/246/3 208/247/3 87/248/3 305/249/3
f 396/250/4 125/251/4 100/252/4 385/253/4
f 385/254/2 100/255/2 91/256/2 386/257/2
f 448/258/2 171/259/2 172/260/2 447/37/2
f 398/261/3 139/262/3 92/263/3 387/264/3
f 400/265/4 155/266/4 93/267/4 388/268/4
f 395/269/3 126/270/3 94/271/3 389/272/3
f 397/273/4 140/274/4 95/275/4 390/276/4
f 404/277/4 209/278/4 96/279/4 391/280/4
f 402/281/3 195/282/3 97/283/3 392/284/3
f 405/285/4 222/286/4 98/287/4 393/288/4
f 403/289/3 210/290/3 99/291/3 394/292/3
f 374/293/4 127/294/4 101/295/4 372/296/4
f 372/297/2 101/298/2 104/299/2 359/300/2
f 357/301/5 102/302/5 103/303/5 358/304/5
f 384/305/3 223/306/3 102/302/3 357/301/3
f 378/307/4 157/308/4 106/309/4 361/310/4
f 218/151/1 217/108/1 43/154/1 42/152/1
f 377/311/3 158/312/3 108/313/3 363/314/3
f 375/315/4 142/316/4 110/317/4 365/318/4
f 382/319/4 211/320/4 111/321/4 366/322/4
f 380/323/3 197/324/3 112/325/3 367/326/3
f 217/108/5 218/151/5 253/327/5 254/328/5
f 379/329/4 198/330/4 114/331/4 369/332/4
f 403/289/6 404/277/6 391/280/6 392/284/6
f 406/333/6 405/285/6 393/288/6 394/292/6
f 359/300/3 104/299/3 128/334/3 373/335/3
f 386/257/3 91/256/3 126/270/3 395/269/3
f 390/276/4 95/275/4 125/251/4 396/250/4
f 291/203/3 73/202/3 124/336/3 307/337/3
f 266/126/4 52/125/4 122/3/4 273/159/4
f 258/158/3 44/1/3 121/4/3 274/127/3
f 334/68/4 34/67/4 120/104/4 341/103/4
f 326/102/3 26/101/3 119/70/3 342/69/3
f 264/133/1 263/338/1 280/339/1 279/146/1
f 379/329/6 369/332/6 368/340/6 380/323/6
f 402/281/2 401/341/2 196/342/2 195/282/2
f 364/343/3 109/344/3 141/345/3 376/346/3
f 388/268/4 93/267/4 140/274/4 397/273/4
f 389/272/3 94/271/3 139/262/3 398/261/3
f 295/347/4 77/348/4 138/227/4 309/226/4
f 298/349/3 80/350/3 137/215/3 310/214/3
f 228/351/4 62/352/4 135/13/4 242/12/4
f 265/129/3 51/128/3 134/139/3 275/138/3
f 262/137/4 48/136/4 133/124/4 276/123/4
f 333/72/3 33/71/3 132/82/3 343/81/3
f 330/80/4 30/79/4 131/66/4 344/65/4
f 135/13/2 441/353/2 442/354/2 136/14/2
f 182/355/6 113/356/6 114/331/6 181/357/6
f 360/358/3 105/359/3 158/312/3 377/311/3
f 362/360/4 107/361/4 157/308/4 378/307/4
f 387/264/3 92/263/3 156/362/3 399/363/3
f 296/221/4 78/220/4 153/364/4 312/365/4
f 229/184/4 63/183/4 152/366/4 243/367/4
f 263/338/4 49/368/4 150/135/4 277/134/4
f 261/141/3 47/140/3 149/131/3 278/130/3
f 329/84/3 29/83/3 147/369/3 346/370/3
f 433/371/3 10/372/3 146/373/3 443/374/3
f 242/12/1 241/11/1 231/32/1 232/31/1
f 253/327/1 238/164/1 237/375/1 254/328/1
f 293/376/4 75/377/4 168/219/4 313/218/4
f 297/225/3 79/224/3 167/211/3 314/210/3
f 230/180/3 64/179/3 166/192/3 245/191/3
f 226/190/4 60/189/4 165/182/4 246/181/4
f 260/145/4 46/144/4 163/195/4 280/339/4
f 332/378/3 32/379/3 162/90/3 347/89/3
f 328/88/4 28/87/4 161/74/4 348/73/4
f 432/380/4 5/381/4 160/28/4 445/27/4
f 6/382/1 159/23/1 160/26/1 5/383/1
f 436/384/3 11/385/3 159/8/3 446/7/3
f 237/375/5 238/164/5 70/163/5 69/386/5
f 303/241/4 85/240/4 179/387/4 316/388/4
f 236/168/4 68/167/4 178/188/4 247/187/4
f 225/194/3 59/193/3 177/170/3 248/169/3
f 259/149/3 45/148/3 175/389/3 282/390/3
f 327/92/3 27/91/3 173/391/3 350/392/3
f 20/42/1 172/260/1 171/393/1 19/43/1
f 440/48/4 19/47/4 171/259/4 448/258/4
f 328/88/6 327/92/6 350/392/6 349/85/6
f 366/322/4 111/321/4 198/330/4 379/329/4
f 368/340/3 113/356/3 197/324/3 380/323/3
f 391/280/4 96/279/4 196/342/4 401/341/4
f 302/237/3 84/236/3 193/394/3 318/395/3
f 235/172/3 67/171/3 192/396/3 249/397/3
f 269/398/3 55/399/3 190/116/3 283/115/3
f 267/122/4 53/121/4 189/112/4 284/111/4
f 337/400/3 37/401/3 188/58/3 351/57/3
f 335/64/4 35/63/4 187/54/4 352/53/4
f 437/402/4 18/403/4 186/46/4 449/45/4
f 16/404/1 184/41/1 186/44/1 18/405/1
f 439/40/3 20/39/3 184/34/3 450/33/3
f 108/313/5 107/361/5 362/360/5 363/314/5
f 347/89/5 348/73/5 170/406/5 169/407/5
f 367/326/3 112/325/3 212/408/3 381/409/3
f 392/284/3 97/283/3 210/290/3 403/289/3
f 393/288/4 98/287/4 209/278/4 404/277/4
f 301/410/3 83/411/3 208/247/3 319/246/3
f 304/245/4 86/244/4 207/231/4 320/230/4
f 237/375/4 69/386/4 206/174/4 251/173/4
f 234/412/3 66/413/3 205/162/3 252/161/3
f 268/118/3 54/117/3 203/414/3 286/415/3
f 336/60/3 36/59/3 201/416/3 354/417/3
f 399/363/6 400/265/6 388/268/6 387/264/6
f 378/307/5 155/266/5 156/362/5 377/311/5
f 358/304/4 103/303/4 224/418/4 383/419/4
f 394/292/3 99/291/3 221/420/3 406/333/3
f 290/207/4 72/206/4 220/243/4 321/242/4
f 305/249/3 87/248/3 219/209/3 322/208/3
f 272/421/3 58/422/3 218/151/3 287/150/3
f 257/155/4 43/154/4 217/108/4 288/107/4
f 340/423/3 40/424/3 216/94/3 355/93/3
f 325/98/4 25/97/4 215/50/4 356/49/4
f 58/422/3 238/164/3 253/327/3 218/151/3
f 57/109/4 237/375/4 251/173/4 204/120/4
f 53/121/4 233/176/4 250/165/4 189/112/4
f 55/399/3 235/172/3 249/397/3 190/116/3
f 45/148/3 225/194/3 248/169/3 175/389/3
f 56/113/4 236/168/4 247/187/4 176/143/4
f 47/140/3 227/186/3 244/177/3 149/131/3
f 49/368/4 229/184/4 243/367/4 150/135/4
f 51/128/3 231/32/3 241/11/3 134/139/3
f 52/125/4 232/31/4 239/5/4 122/3/4
f 441/353/1 434/18/1 433/371/1 442/354/1
f 176/143/4 247/187/4 226/190/4 46/144/4
f 47/140/2 48/136/2 228/351/2 227/186/2
f 150/135/4 243/367/4 228/351/4 48/136/4
f 149/131/3 244/177/3 230/180/3 50/132/3
f 121/4/3 240/6/3 231/32/3 51/128/3
f 133/124/4 242/12/4 232/31/4 52/125/4
f 190/116/3 249/397/3 234/412/3 54/117/3
f 175/389/3 248/169/3 235/172/3 55/399/3
f 189/112/4 250/165/4 236/168/4 56/113/4
f 217/108/4 254/328/4 237/375/4 57/109/4
f 203/414/3 252/161/3 238/164/3 58/422/3
f 87/248/3 272/421/3 287/150/3 219/209/3
f 83/411/3 268/118/3 286/415/3 208/247/3
f 86/244/4 271/110/4 285/119/4 207/231/4
f 82/232/4 267/122/4 284/111/4 194/239/4
f 74/212/3 259/149/3 282/390/3 180/235/3
f 85/240/4 270/114/4 281/142/4 179/387/4
f 75/377/4 260/145/4 280/339/4 168/219/4
f 79/224/3 264/133/3 279/146/3 167/211/3
f 76/216/3 261/141/3 278/130/3 154/223/3
f 78/220/4 263/338/4 277/134/4 153/364/4
f 77/348/4 262/137/4 276/123/4 138/227/4
f 73/202/3 258/158/3 274/127/3 124/336/3
f 81/228/4 266/126/4 273/159/4 123/197/4
f 123/197/4 273/159/4 255/160/4 88/198/4
f 88/201/2 255/156/2 258/158/2 73/202/2
f 432/380/1 448/258/1 447/37/1 431/10/1
f 167/211/3 279/146/3 259/149/3 74/212/3
f 179/387/4 281/142/4 260/145/4 75/377/4
f 137/215/3 275/138/3 261/141/3 76/216/3
f 153/364/4 277/134/4 262/137/4 77/348/4
f 168/219/4 280/339/4 263/338/4 78/220/4
f 154/223/3 278/130/3 264/133/3 79/224/3
f 124/336/3 274/127/3 265/129/3 80/350/3
f 207/231/4 285/119/4 267/122/4 82/232/4
f 193/394/3 283/115/3 268/118/3 83/411/3
f 180/235/3 282/390/3 269/398/3 84/236/3
f 220/243/4 288/107/4 271/110/4 86/244/4
f 208/247/3 286/415/3 272/421/3 87/248/3
f 25/97/4 290/207/4 321/242/4 215/50/4
f 39/51/4 304/245/4 320/230/4 202/62/4
f 36/59/3 301/410/3 319/246/3 201/416/3
f 37/401/3 302/237/3 318/395/3 188/58/3
f 38/55/4 303/241/4 316/388/4 174/86/4
f 27/91/3 292/213/3 315/234/3 173/391/3
f 32/379/3 297/225/3 314/210/3 162/90/3
f 29/83/3 294/217/3 311/222/3 147/369/3
f 30/79/4 295/347/4 309/226/4 131/66/4
f 34/67/4 299/229/4 308/196/4 120/104/4
f 26/101/3 291/203/3 307/337/3 119/70/3
f 201/416/3 319/246/3 305/249/3 40/424/3
f 187/54/4 317/238/4 303/241/4 38/55/4
f 173/391/3 315/234/3 302/237/3 37/401/3
f 202/62/4 320/230/4 300/233/4 35/63/4
f 119/70/3 307/337/3 298/349/3 33/71/3
f 161/74/4 313/218/4 296/221/4 31/75/4
f 148/78/4 312/365/4 295/347/4 30/79/4
f 132/82/3 310/214/3 294/217/3 29/83/3
f 174/86/4 316/388/4 293/376/4 28/87/4
f 216/94/3 322/208/3 289/204/3 23/95/3
f 23/95/5 289/204/5 290/207/5 25/97/5
f 24/100/2 306/200/2 291/203/2 26/101/2
f 120/104/4 308/196/4 306/199/4 24/105/4
f 103/303/4 325/98/4 356/49/4 224/418/4
f 116/425/3 340/423/3 355/93/3 223/306/3
f 112/325/3 336/60/3 354/417/3 212/408/3
f 115/426/4 339/52/4 353/61/4 211/320/4
f 111/321/4 335/64/4 352/53/4 198/330/4
f 205/162/1 206/174/1 69/386/1 70/163/1
f 114/331/4 338/56/4 349/85/4 181/357/4
f 166/192/1 165/182/1 60/189/1 59/193/1
f 108/313/3 332/378/3 347/89/3 169/407/3
f 105/359/3 329/84/3 346/370/3 158/312/3
f 107/361/4 331/76/4 345/77/4 157/308/4
f 106/309/4 330/80/4 344/65/4 142/316/4
f 109/344/3 333/72/3 343/81/3 141/345/3
f 104/299/3 326/102/3 342/69/3 128/334/3
f 110/317/4 334/68/4 341/103/4 127/294/4
f 127/294/4 341/103/4 323/106/4 101/295/4
f 101/298/2 323/99/2 326/102/2 104/299/2
f 102/302/5 324/96/5 325/98/5 103/303/5
f 223/306/3 355/93/3 324/96/3 102/302/3
f 436/384/1 443/374/1 444/15/1 435/30/1
f 16/35/5 18/403/5 437/402/5 438/36/5
f 141/345/3 343/81/3 329/84/3 105/359/3
f 157/308/4 345/77/4 330/80/4 106/309/4
f 170/406/4 348/73/4 331/76/4 107/361/4
f 158/312/3 346/370/3 332/378/3 108/313/3
f 128/334/3 342/69/3 333/72/3 109/344/3
f 142/316/4 344/65/4 334/68/4 110/317/4
f 211/320/4 353/61/4 335/64/4 111/321/4
f 197/324/3 351/57/3 336/60/3 112/325/3
f 182/355/3 350/392/3 337/400/3 113/356/3
f 224/418/4 356/49/4 339/52/4 115/426/4
f 212/408/3 354/417/3 340/423/3 116/425/3
f 99/291/3 371/427/3 384/305/3 221/420/3
f 90/428/4 358/304/4 383/419/4 222/286/4
f 98/287/4 370/429/4 382/319/4 209/278/4
f 388/268/6 397/273/6 398/261/6 387/264/6
f 96/279/4 366/322/4 379/329/4 196/342/4
f 398/261/6 397/273/6 390/276/6 389/272/6
f 92/263/3 360/358/3 377/311/3 156/362/3
f 93/267/4 361/310/4 375/315/4 140/274/4
f 95/275/4 365/318/4 374/293/4 125/251/4
f 91/256/3 359/300/3 373/335/3 126/270/3
f 210/290/3 381/409/3 371/427/3 99/291/3
f 222/286/4 383/419/4 370/429/4 98/287/4
f 390/276/6 396/250/6 395/269/6 389/272/6
f 195/282/3 380/323/3 367/326/3 97/283/3
f 126/270/3 373/335/3 364/343/3 94/271/3
f 395/269/6 396/250/6 385/254/6 386/257/6
f 155/266/4 378/307/4 361/310/4 93/267/4
f 139/262/3 376/346/3 360/358/3 92/263/3
f 221/420/3 384/305/3 357/301/3 89/430/3
f 89/430/5 357/301/5 358/304/5 90/428/5
f 100/255/2 372/297/2 359/300/2 91/256/2
f 125/251/4 374/293/4 372/296/4 100/252/4
f 155/266/5 400/265/5 399/363/5 156/362/5
f 362/360/6 378/307/6 377/311/6 363/314/6
f 170/406/6 107/361/6 108/313/6 169/407/6
f 328/88/6 348/73/6 347/89/6 327/92/6
f 181/357/2 349/85/2 350/392/2 182/355/2
f 369/332/2 114/331/2 113/356/2 368/340/2
f 196/342/2 379/329/2 380/323/2 195/282/2
f 392/284/6 391/280/6 401/341/6 402/281/6
f 393/288/6 404/277/6 403/289/6 394/292/6
f 11/385/2 436/384/2 435/30/2 12/29/2
f 65/175/4 437/402/4 449/45/4 191/166/4
f 68/167/4 440/48/4 448/258/4 178/188/4
f 59/193/3 431/10/3 447/37/3 177/170/3
f 64/179/3 436/384/3 446/7/3 166/192/3
f 63/183/4 435/30/4 444/15/4 152/366/4
f 61/185/3 433/371/3 443/374/3 151/178/3
f 62/352/4 434/18/4 441/353/4 135/13/4
f 177/170/3 447/37/3 439/40/3 67/171/3
f 192/396/3 450/33/3 438/36/3 66/413/3
f 151/178/3 443/374/3 436/384/3 64/179/3
f 165/182/4 445/27/4 435/30/4 63/183/4
f 152/366/4 444/15/4 434/18/4 62/352/4
f 136/14/3 442/354/3 433/371/3 61/185/3
f 178/188/4 448/258/4 432/380/4 60/189/4
f 8/17/2 10/372/2 433/371/2 434/18/2
f 140/274/2 375/315/2 376/346/2 139/262/2
f 360/358/2 361/310/2 106/309/2 105/359/2
f 31/75/2 296/221/2 297/225/2 32/379/2
f 331/76/2 31/75/2 32/379/2 332/378/2
f 315/234/2 316/388/2 179/387/2 180/235/2
f 269/398/2 270/114/2 56/113/2 55/399/2
f 193/394/2 194/239/2 284/111/2 283/115/2
f 163/195/2 164/147/2 279/146/2 280/339/2
f 432/380/2 431/10/2 59/193/2 60/189/2
f 191/166/1 192/396/1 67/171/1 68/167/1
f 249/397/1 250/165/1 233/176/1 234/412/1
f 204/120/1 203/414/1 54/117/1 53/121/1
f 286/415/1 285/119/1 271/110/1 272/421/1
f 281/142/1 270/114/1 269/398/1 282/390/1
f 85/240/1 194/239/1 193/394/1 84/236/1
f 188/58/1 187/54/1 35/63/1 36/59/1
f 338/56/1 337/400/1 350/392/1 349/85/1
f 331/76/1 332/378/1 346/370/1 345/77/1
f 140/274/1 139/262/1 94/271/1 95/275/1
f 365/318/1 364/343/1 373/335/1 374/293/1
f 364/343/2 365/318/2 110/317/2 109/344/2
f 361/310/1 360/358/1 376/346/1 375/315/1
f 299/229/1 298/349/1 307/337/1 308/196/1
f 138/227/1 137/215/1 80/350/1 81/228/1
f 137/215/2 138/227/2 276/123/2 275/138/2
f 298/349/2 299/229/2 81/228/2 80/350/2
f 131/66/2 309/226/2 310/214/2 132/82/2
f 131/66/1 132/82/1 33/71/1 34/67/1
f 294/217/1 295/347/1 312/365/1 311/222/1
f 311/222/2 312/365/2 153/364/2 154/223/2
f 45/148/2 46/144/2 226/190/2 225/194/2
f 243/367/2 152/366/2 151/178/2 244/177/2
f 227/186/1 228/351/1 243/367/1 244/177/1
f 173/391/5 174/86/5 349/85/5 350/392/5
f 282/390/5 175/389/5 176/143/5 281/142/5
f 85/240/5 84/236/5 269/398/5 270/114/5
f 193/394/5 194/239/5 317/238/5 318/395/5
f 187/54/5 188/58/5 318/395/5 317/238/5
f 381/409/5 212/408/5 211/320/5 382/319/5
f 370/429/1 371/427/1 381/409/1 382/319/1
f 371/427/1 370/429/1 383/419/1 384/305/1
f 215/50/1 216/94/1 40/424/1 39/51/1
f 39/51/5 40/424/5 305/249/5 304/245/5
f 219/209/5 287/150/5 288/107/5 220/243/5
f 72/206/1 71/205/1 219/209/1 220/243/1
f 203/414/5 204/120/5 285/119/5 286/415/5
f 53/121/5 54/117/5 234/412/5 233/176/5
f 249/397/5 192/396/5 191/166/5 250/165/5
f 67/171/5 439/40/5 440/48/5 68/167/5
f 65/175/5 66/413/5 438/36/5 437/402/5
f 206/174/1 205/162/1 66/413/1 65/175/1
f 339/52/1 340/423/1 354/417/1 353/61/1
f 353/61/5 354/417/5 201/416/5 202/62/5
f 148/78/5 147/369/5 311/222/5 312/365/5
f 345/77/5 346/370/5 147/369/5 148/78/5
f 141/345/5 142/316/5 375/315/5 376/346/5
f 95/275/5 94/271/5 364/343/5 365/318/5
f 34/67/5 33/71/5 298/349/5 299/229/5
f 81/228/5 80/350/5 265/129/5 266/126/5
f 307/337/5 124/336/5 123/197/5 308/196/5
f 373/335/5 128/334/5 127/294/5 374/293/5
f 294/217/5 76/216/5 77/348/5 295/347/5
f 263/338/5 264/133/5 50/132/5 49/368/5
f 49/368/5 50/132/5 230/180/5 229/184/5
f 134/139/1 133/124/1 48/136/1 47/140/1
f 192/396/2 191/166/2 449/45/2 450/33/2
f 233/176/2 65/175/2 66/413/2 234/412/2
f 203/414/2 204/120/2 251/173/2 252/161/2
f 272/421/2 271/110/2 57/109/2 58/422/2
f 215/50/2 321/242/2 322/208/2 216/94/2
f 39/51/2 40/424/2 340/423/2 339/52/2
f 383/419/2 224/418/2 223/306/2 384/305/2
f 210/290/2 209/278/2 382/319/2 381/409/2
f 209/278/1 210/290/1 97/283/1 96/279/1
f 35/63/2 300/233/2 301/410/2 36/59/2
f 300/233/2 82/232/2 83/411/2 301/410/2
f 270/114/6 269/398/6 283/115/6 284/111/6
f 141/345/6 105/359/6 106/309/6 142/316/6
f 128/334/6 109/344/6 110/317/6 127/294/6
f 365/318/6 364/343/6 376/346/6 375/315/6
f 299/229/6 298/349/6 310/214/6 309/226/6
f 80/350/6 81/228/6 123/197/6 124/336/6
f 265/129/6 275/138/6 276/123/6 266/126/6
f 227/186/6 228/351/6 242/12/6 241/11/6
f 133/124/5 134/139/5 241/11/5 242/12/5
f 153/364/6 77/348/6 76/216/6 154/223/6
f 152/366/6 62/352/6 61/185/6 151/178/6
f 227/186/5 61/185/5 62/352/5 228/351/5
f 146/373/5 144/16/5 444/15/5 443/374/5
f 6/382/5 5/383/5 432/380/5 431/10/5
f 439/40/6 450/33/6 449/45/6 440/48/6
f 431/10/6 432/380/6 445/27/6 446/7/6
f 165/182/5 166/192/5 446/7/5 445/27/5
f 226/190/6 246/181/6 245/191/6 225/194/6
f 230/180/6 245/191/6 246/181/6 229/184/6
f 233/176/6 234/412/6 252/161/6 251/173/6
f 58/422/6 57/109/6 204/120/6 203/414/6
f 257/155/6 288/107/6 287/150/6 256/153/6
f 305/249/6 322/208/6 321/242/6 304/245/6
f 40/424/6 39/51/6 202/62/6 201/416/6
f 224/418/6 115/426/6 116/425/6 223/306/6
f 212/408/6 116/425/6 115/426/6 211/320/6
f 366/322/6 367/326/6 381/409/6 382/319/6
f 337/400/6 351/57/6 352/53/6 338/56/6
f 197/324/2 198/330/2 352/53/2 351/57/2
f 83/411/6 82/232/6 194/239/6 193/394/6
f 175/389/6 55/399/6 56/113/6 176/143/6
f 66/413/6 65/175/6 191/166/6 192/396/6
f 173/391/6 37/401/6 38/55/6 174/86/6
f 38/55/2 37/401/2 337/400/2 338/56/2
f 179/387/6 75/377/6 74/212/6 180/235/6
f 293/376/6 313/218/6 314/210/6 292/213/6
f 27/91/2 28/87/2 293/376/2 292/213/2
f 297/225/6 296/221/6 312/365/6 311/222/6
f 114/331/5 113/356/5 337/400/5 338/56/5
f 113/356/1 114/331/1 198/330/1 197/324/1
f 161/74/5 162/90/5 314/210/5 313/218/5
f 74/212/5 75/377/5 293/376/5 292/213/5
f 292/213/1 293/376/1 316/388/1 315/234/1
f 162/90/1 161/74/1 28/87/1 27/91/1
f 96/279/5 97/283/5 367/326/5 366/322/5
