<?xml version="1.0" encoding="UTF-8" standalone="no"?>
<!-- Generator: Adobe Illustrator 9.0, SVG Export Plug-In  -->

<svg
   width="48"
   height="48"
   viewBox="0 0 48 48"
   xml:space="preserve"
   id="svg2"
   sodipodi:version="0.32"
   inkscape:version="1.2.2 (b0a8486541, 2022-12-01)"
   sodipodi:docname="bird.svg"
   version="1.0"
   hola_ext_inject="disabled"
   inkscape:export-filename="letter_i.png"
   inkscape:export-xdpi="96"
   inkscape:export-ydpi="96"
   xmlns:inkscape="http://www.inkscape.org/namespaces/inkscape"
   xmlns:sodipodi="http://sodipodi.sourceforge.net/DTD/sodipodi-0.dtd"
   xmlns="http://www.w3.org/2000/svg"
   xmlns:svg="http://www.w3.org/2000/svg"
   xmlns:rdf="http://www.w3.org/1999/02/22-rdf-syntax-ns#"
   xmlns:cc="http://creativecommons.org/ns#"
   xmlns:dc="http://purl.org/dc/elements/1.1/"><metadata
     id="metadata25"><rdf:RDF><cc:Work
         rdf:about=""><dc:format>image/svg+xml</dc:format><dc:type
           rdf:resource="http://purl.org/dc/dcmitype/StillImage" /></cc:Work></rdf:RDF></metadata><defs
     id="defs23" /><sodipodi:namedview
     inkscape:window-height="1711"
     inkscape:window-width="2373"
     inkscape:pageshadow="2"
     inkscape:pageopacity="0.0"
     borderopacity="1.0"
     bordercolor="#666666"
     pagecolor="#ffffff"
     id="base"
     showgrid="true"
     inkscape:grid-bbox="true"
     inkscape:grid-points="true"
     inkscape:zoom="16.416667"
     inkscape:cx="15.807106"
     inkscape:cy="24.639593"
     inkscape:window-x="619"
     inkscape:window-y="396"
     inkscape:current-layer="svg2"
     inkscape:window-maximized="0"
     inkscape:showpageshadow="2"
     inkscape:pagecheckerboard="0"
     inkscape:deskcolor="#d1d1d1" /><g
     id="crop_x0020_marks"
     style="fill-rule:nonzero;stroke:#000000;stroke-miterlimit:4"><path
       style="fill:none;stroke:none"
       d="M 48,48 L 0,48 L 0,0 L 48,0 L 48,48 z "
       id="path20" /></g><path
     style="fill:#1a1a1a;stroke-width:8;stop-color:#000000"
     d="m 1.7791606,9.2845736 c 0,0 2.5869534,-2.8768167 8.8790044,-2.8762448 6.29205,5.719e-4 7.382753,3.4822175 8.934738,4.9066742 1.551984,1.424457 4.961298,6.613309 4.961298,6.613309 0,0 1.657683,-3.585506 3.446979,-6.295126 1.789296,-2.7096196 4.177593,-4.019657 8.854088,-5.1343176 4.676495,-1.1146606 8.95102,3.200754 8.95102,3.200754 0,0 -7.483773,2.5225916 -10.795943,8.1833606 -3.31217,5.660769 -10.161695,23.237486 -10.161695,23.237486 0,0 -3.473918,-11.191839 -8.030229,-18.871702 C 12.262109,14.568904 1.7791606,9.2845736 1.7791606,9.2845736 Z"
     id="path345"
     sodipodi:nodetypes="czzczsczczc"
     inkscape:export-filename="bird.png"
     inkscape:export-xdpi="96"
     inkscape:export-ydpi="96" /></svg>
